<svg width="781" height="350" viewBox="0 0 781 350" fill="none" xmlns="http://www.w3.org/2000/svg">
<path d="M438.817 321.473C438.817 321.473 568.261 309.859 614.499 306.964C623.182 306.415 638.644 303.154 648.28 284.651C654.252 273.183 648.976 262.247 648.976 262.247C648.976 262.247 668.211 258.766 668.743 231.214C669.274 202.819 660.169 201.811 660.169 201.811C660.169 201.811 673.286 199.521 669.823 168.305C666.361 137.089 655.15 140.661 655.15 140.661C655.15 140.661 785.129 137.959 780 107C774.871 76.0401 548.605 84.659 548.605 84.659C555.053 75.7558 621.526 27.0554 597.957 2.38691C578 -18.5002 405 106.5 405 106.5" fill="#FFCB44"/>
<path d="M534.59 89.9897C534.59 89.9897 516.417 113.017 492.089 105.928" stroke="black" stroke-width="5" stroke-linecap="round" stroke-linejoin="round"/>
<path d="M-251.071 36.6992C-251.071 36.6992 233.988 54.1209 391.809 52.9485C455.139 52.4722 472.249 246.291 472.249 246.291C473.862 270.967 470.766 328.325 433.339 333.802L-261 349.63L-251.071 36.6992Z" fill="black"/>
</svg>
