<svg width="73" height="71" viewBox="0 0 73 71" fill="none" xmlns="http://www.w3.org/2000/svg">
<path d="M62.6711 1.41902C54.6225 -2.38634 44.1191 1.69941 35.4668 10.8323C26.4323 3.26162 16.2106 0.537786 8.78573 4.8038C-2.32133 11.1928 -2.98534 30.7404 7.29674 48.4654C13.7759 59.6411 23.0519 67.4121 31.8248 70.0358C32.5894 70.2962 33.3742 70.4965 34.179 70.6367C34.179 70.6367 34.179 70.6367 34.1992 70.6367C34.5815 70.6967 34.9638 70.7568 35.3461 70.7969C39.2094 71.3377 42.8715 70.8169 46.0306 69.0144C46.7751 68.5938 47.4592 68.0931 48.1031 67.5723C55.4676 63.4065 62.6107 55.5955 67.4801 45.361C76.414 26.5745 74.2811 6.90676 62.6912 1.43904L62.6711 1.41902Z" fill="#151515"/>
</svg>
