<svg width="1301" height="724" viewBox="0 0 1301 724" fill="none" xmlns="http://www.w3.org/2000/svg">
<path fill-rule="evenodd" clip-rule="evenodd" d="M1038.18 101.624C1044.12 68.6664 1051.97 34.355 1063.74 0H1300.63C1279.43 37.9732 1266.6 82.2103 1257.39 133.354C1251.83 164.185 1247.87 195.723 1243.65 229.254L1243.17 233.033C1238.86 267.248 1234.22 303.609 1227.36 339.318C1213.73 410.231 1189.99 487.132 1132.96 554.13C1073.9 623.509 985.121 675.435 857.763 704.705C562.158 772.644 359.289 641.092 223.796 553.229C205.679 541.481 188.766 530.514 172.997 520.909C97.3674 474.843 53.4831 459.437 14.1323 461.71C9.80707 461.959 5.10051 462.457 0 463.292V285.687C125.489 281.732 227.329 336.591 303.172 382.787C325.2 396.205 346.178 409.43 366.433 422.199C505.734 510.018 610.861 576.293 788.5 535.466C873.235 515.991 919.097 485.534 948.028 451.548C978.985 415.182 996.586 367.738 1008.45 305.982C1014.34 275.356 1018.48 243.302 1022.85 208.602C1023.06 206.954 1023.27 205.3 1023.48 203.64C1027.57 171.076 1031.96 136.204 1038.18 101.624Z" fill="#8842F9"/>
</svg>
