<svg width="1034" height="191" viewBox="0 0 1034 191" fill="none" xmlns="http://www.w3.org/2000/svg">
<path d="M41.744 106.289C41.744 116.035 43.612 124.4 47.3479 131.385C51.0838 138.369 56.5252 143.811 63.6722 147.709C70.9816 151.445 79.7528 153.313 89.986 153.313C100.382 153.313 109.153 151.445 116.3 147.709C123.447 143.811 128.888 138.369 132.624 131.385C136.36 124.4 138.228 116.035 138.228 106.289V3.71426H179.648V108.238C179.648 124.644 175.912 139.019 168.44 151.364C160.968 163.546 150.491 173.048 137.01 179.87C123.528 186.692 107.853 190.103 89.986 190.103C72.1186 190.103 56.444 186.692 42.9623 179.87C29.643 173.048 19.1662 163.546 11.5319 151.364C4.06012 139.019 0.324219 124.644 0.324219 108.238V3.71426H41.744V106.289Z" fill="black"/>
<path d="M221.777 188.642C217.392 188.642 213.331 187.586 209.595 185.474C206.022 183.363 203.179 180.52 201.068 176.947C198.956 173.211 197.9 169.15 197.9 164.764C197.9 160.216 198.956 156.155 201.068 152.582C203.179 148.846 206.022 145.922 209.595 143.811C213.331 141.699 217.392 140.643 221.777 140.643C226.326 140.643 230.386 141.699 233.96 143.811C237.696 145.922 240.619 148.846 242.731 152.582C244.843 156.155 245.898 160.216 245.898 164.764C245.898 169.15 244.843 173.211 242.731 176.947C240.619 180.52 237.696 183.363 233.96 185.474C230.386 187.586 226.326 188.642 221.777 188.642Z" fill="black"/>
<path d="M263.072 126.756H304.979C305.953 132.928 308.634 138.369 313.019 143.08C317.567 147.628 323.577 151.201 331.049 153.8C338.683 156.237 347.454 157.455 357.363 157.455C371.819 157.455 383.189 155.425 391.473 151.364C399.92 147.141 404.143 141.293 404.143 133.821C404.143 127.974 401.706 123.507 396.833 120.421C392.123 117.172 383.27 114.817 370.276 113.355L333.485 109.213C309.771 106.614 292.553 101.091 281.832 92.6451C271.274 84.0362 265.995 72.0976 265.995 56.8291C265.995 44.8092 269.488 34.5761 276.472 26.1297C283.619 17.6833 293.609 11.2673 306.441 6.88166C319.273 2.3336 334.379 0.0595703 351.759 0.0595703C368.652 0.0595703 383.676 2.57725 396.833 7.6126C409.99 12.4855 420.467 19.3888 428.264 28.3225C436.06 37.0938 440.284 47.4081 440.933 59.2656H399.026C398.214 53.9053 395.778 49.2761 391.717 45.3777C387.818 41.317 382.377 38.2308 375.393 36.1192C368.408 33.8451 360.205 32.7081 350.784 32.7081C337.627 32.7081 327.151 34.6573 319.354 38.5556C311.557 42.454 307.659 47.9766 307.659 55.1236C307.659 60.6462 309.933 64.9506 314.481 68.0368C319.192 70.9606 327.394 73.1534 339.089 74.6153L377.342 79.2445C394.234 81.0313 407.635 83.955 417.543 88.0158C427.614 91.9141 434.761 97.1931 438.984 103.853C443.37 110.512 445.563 118.959 445.563 129.192C445.563 141.374 441.827 152.095 434.355 161.353C427.045 170.449 416.731 177.515 403.412 182.55C390.092 187.586 374.499 190.103 356.632 190.103C338.44 190.103 322.44 187.505 308.633 182.307C294.827 176.947 283.944 169.556 275.985 160.135C268.026 150.552 263.721 139.425 263.072 126.756Z" fill="black"/>
<path d="M494.562 147.953V114.33H621.258V147.953H494.562ZM585.442 3.71426L670.962 186.449H626.862L552.062 20.5258H565.707L490.907 186.449H446.807L532.327 3.71426H585.442Z" fill="black"/>
<path d="M710.611 81.1937H842.667V116.522H710.611V81.1937ZM846.81 3.71426V39.2866H711.099L732.052 18.0894V186.449H690.632V3.71426H846.81Z" fill="black"/>
<path d="M1025.62 79.2445V110.919H894.779V79.2445H1025.62ZM922.555 95.0815L910.373 172.561L892.343 152.095H1033.17V186.449H868.709L882.841 95.0815L868.709 3.71426H1031.95V38.0684H892.343L910.373 17.6021L922.555 95.0815Z" fill="black"/>
<path d="M41.744 106.289C41.744 116.035 43.612 124.4 47.3479 131.384C51.0838 138.369 56.5252 143.81 63.6722 147.709C70.9816 151.445 79.7528 153.313 89.986 153.313C100.382 153.313 109.153 151.445 116.3 147.709C123.447 143.81 128.888 138.369 132.624 131.384C136.36 124.4 138.228 116.035 138.228 106.289V3.71387H179.648V108.238C179.648 124.644 175.912 139.019 168.44 151.363C160.968 163.546 150.491 173.048 137.01 179.87C123.528 186.692 107.853 190.103 89.986 190.103C72.1186 190.103 56.444 186.692 42.9623 179.87C29.643 173.048 19.1662 163.546 11.5319 151.363C4.06012 139.019 0.324219 124.644 0.324219 108.238V3.71387H41.744V106.289Z" fill="#7F35F9"/>
<path d="M221.777 188.641C217.392 188.641 213.331 187.585 209.595 185.474C206.022 183.362 203.179 180.52 201.068 176.946C198.956 173.21 197.9 169.15 197.9 164.764C197.9 160.216 198.956 156.155 201.068 152.582C203.179 148.846 206.022 145.922 209.595 143.81C213.331 141.699 217.392 140.643 221.777 140.643C226.326 140.643 230.386 141.699 233.96 143.81C237.696 145.922 240.619 148.846 242.731 152.582C244.843 156.155 245.898 160.216 245.898 164.764C245.898 169.15 244.843 173.21 242.731 176.946C240.619 180.52 237.696 183.362 233.96 185.474C230.386 187.585 226.326 188.641 221.777 188.641Z" fill="#7F35F9"/>
</svg>
