<svg width="482" height="162" viewBox="0 0 482 162" fill="none" xmlns="http://www.w3.org/2000/svg">
<path d="M94.3536 95.227C88.6262 95.227 83.5039 94.0573 78.9866 91.718C74.5499 89.298 71.0409 85.789 68.4596 81.191C65.8782 76.593 64.5876 70.9463 64.5876 64.251V33.396C64.5876 31.944 65.0716 30.734 66.0396 29.766C67.0076 28.798 68.2176 28.314 69.6696 28.314C71.1216 28.314 72.3316 28.798 73.2996 29.766C74.2676 30.734 74.7516 31.944 74.7516 33.396V64.251C74.7516 69.1717 75.6792 73.205 77.5346 76.351C79.3899 79.4163 81.8906 81.7557 85.0366 83.369C88.1826 84.9017 91.7319 85.668 95.6846 85.668C99.4759 85.668 102.904 84.942 105.97 83.49C109.035 81.9573 111.455 79.9407 113.23 77.44C115.004 74.8587 115.892 71.9143 115.892 68.607H122.789C122.627 73.689 121.296 78.2467 118.796 82.28C116.295 86.2327 112.907 89.3787 108.632 91.718C104.356 94.0573 99.5969 95.227 94.3536 95.227ZM120.974 94.501C119.441 94.501 118.191 94.0573 117.223 93.17C116.335 92.202 115.892 90.9113 115.892 89.298V33.396C115.892 31.8633 116.335 30.6533 117.223 29.766C118.191 28.798 119.441 28.314 120.974 28.314C122.506 28.314 123.757 28.798 124.725 29.766C125.693 30.6533 126.177 31.8633 126.177 33.396V89.298C126.177 90.9113 125.693 92.202 124.725 93.17C123.757 94.0573 122.506 94.501 120.974 94.501Z" fill="white"/>
<path d="M150.463 96.437C148.446 96.437 146.712 95.711 145.26 94.259C143.808 92.807 143.082 91.0727 143.082 89.056C143.082 86.878 143.808 85.063 145.26 83.611C146.792 82.159 148.527 81.433 150.463 81.433C152.56 81.433 154.335 82.1993 155.787 83.732C157.239 85.184 157.965 86.9587 157.965 89.056C157.965 90.992 157.239 92.7263 155.787 94.259C154.415 95.711 152.641 96.437 150.463 96.437Z" fill="white"/>
<path d="M198.216 95.106C193.215 95.106 188.334 94.2993 183.575 92.686C178.896 90.992 175.145 88.6123 172.322 85.547C171.354 84.4983 170.951 83.2883 171.112 81.917C171.273 80.5457 171.919 79.4163 173.048 78.529C174.339 77.561 175.629 77.1577 176.92 77.319C178.291 77.4803 179.421 78.045 180.308 79.013C182.083 81.1103 184.543 82.8043 187.689 84.095C190.835 85.305 194.304 85.91 198.095 85.91C203.661 85.91 207.735 84.9823 210.316 83.127C212.978 81.191 214.349 78.8113 214.43 75.988C214.43 73.2453 213.099 70.9463 210.437 69.091C207.856 67.2357 203.419 65.7837 197.127 64.735C188.98 63.3637 183.01 61.0647 179.219 57.838C175.508 54.6113 173.653 50.7393 173.653 46.222C173.653 42.108 174.782 38.6797 177.041 35.937C179.3 33.1943 182.244 31.1373 185.874 29.766C189.585 28.3947 193.578 27.709 197.853 27.709C203.258 27.709 207.936 28.6367 211.889 30.492C215.842 32.2667 219.028 34.6867 221.448 37.752C222.335 38.8813 222.698 40.0913 222.537 41.382C222.456 42.592 221.811 43.56 220.601 44.286C219.552 45.012 218.302 45.254 216.85 45.012C215.479 44.77 214.309 44.1247 213.341 43.076C211.324 40.898 209.025 39.325 206.444 38.357C203.863 37.3083 200.918 36.784 197.611 36.784C193.416 36.784 190.028 37.631 187.447 39.325C184.866 40.9383 183.575 43.0357 183.575 45.617C183.575 47.3917 184.019 48.9243 184.906 50.215C185.874 51.5057 187.528 52.6753 189.867 53.724C192.287 54.692 195.715 55.5793 200.152 56.386C206.202 57.4347 210.961 58.927 214.43 60.863C217.979 62.7183 220.48 64.8963 221.932 67.397C223.465 69.8977 224.231 72.6807 224.231 75.746C224.231 79.5373 223.142 82.885 220.964 85.789C218.867 88.6123 215.882 90.871 212.01 92.565C208.138 94.259 203.54 95.106 198.216 95.106Z" fill="white"/>
<path d="M268.885 95.106C262.754 95.106 257.269 93.654 252.429 90.75C247.589 87.7653 243.757 83.732 240.934 78.65C238.11 73.568 236.699 67.8407 236.699 61.468C236.699 55.0147 238.151 49.247 241.055 44.165C244.039 39.083 248.073 35.09 253.155 32.186C258.237 29.2013 263.964 27.709 270.337 27.709C276.629 27.709 282.275 29.2013 287.277 32.186C292.359 35.09 296.352 39.083 299.256 44.165C302.24 49.247 303.773 55.0147 303.854 61.468L299.74 63.525C299.74 69.4943 298.368 74.8587 295.626 79.618C292.964 84.3773 289.293 88.1687 284.615 90.992C280.017 93.7347 274.773 95.106 268.885 95.106ZM270.337 85.91C274.854 85.91 278.847 84.8613 282.316 82.764C285.865 80.586 288.648 77.6417 290.665 73.931C292.762 70.2203 293.811 66.066 293.811 61.468C293.811 56.7893 292.762 52.635 290.665 49.005C288.648 45.2943 285.865 42.35 282.316 40.172C278.847 37.994 274.854 36.905 270.337 36.905C265.9 36.905 261.867 37.994 258.237 40.172C254.687 42.35 251.864 45.2943 249.767 49.005C247.669 52.635 246.621 56.7893 246.621 61.468C246.621 66.066 247.669 70.2203 249.767 73.931C251.864 77.6417 254.687 80.586 258.237 82.764C261.867 84.8613 265.9 85.91 270.337 85.91ZM298.651 94.501C297.199 94.501 295.948 94.0573 294.9 93.17C293.932 92.202 293.448 90.9517 293.448 89.419V69.454L295.747 58.927L303.854 61.468V89.419C303.854 90.9517 303.37 92.202 302.402 93.17C301.434 94.0573 300.183 94.501 298.651 94.501Z" fill="white"/>
<path d="M329.842 94.501C328.552 94.501 327.422 94.0573 326.454 93.17C325.486 92.202 325.002 90.9113 325.002 89.298V28.556C325.002 22.8287 326.011 17.8273 328.027 13.552C330.044 9.27666 332.988 5.96933 336.86 3.63C340.813 1.21 345.492 0 350.896 0C352.429 0 353.679 0.443666 354.647 1.331C355.615 2.21833 356.099 3.30733 356.099 4.598C356.099 5.96933 355.615 7.09867 354.647 7.986C353.679 8.87333 352.429 9.317 350.896 9.317C347.508 9.317 344.645 10.1237 342.305 11.737C339.966 13.2697 338.191 15.4477 336.981 18.271C335.771 21.0137 335.166 24.2 335.166 27.83V89.298C335.166 90.9113 334.682 92.202 333.714 93.17C332.827 94.0573 331.536 94.501 329.842 94.501ZM317.984 39.567C316.532 39.567 315.363 39.1637 314.475 38.357C313.669 37.4697 313.265 36.421 313.265 35.211C313.265 33.9203 313.669 32.8717 314.475 32.065C315.363 31.1777 316.532 30.734 317.984 30.734H349.081C350.453 30.734 351.542 31.1777 352.348 32.065C353.236 32.8717 353.679 33.9203 353.679 35.211C353.679 36.421 353.236 37.4697 352.348 38.357C351.542 39.1637 350.453 39.567 349.081 39.567H317.984Z" fill="white"/>
<path d="M394.296 95.106C387.682 95.106 381.833 93.6943 376.751 90.871C371.669 87.967 367.676 83.974 364.772 78.892C361.868 73.81 360.416 68.002 360.416 61.468C360.416 54.8533 361.788 49.0453 364.53 44.044C367.273 38.962 371.024 34.969 375.783 32.065C380.623 29.161 386.189 27.709 392.481 27.709C398.612 27.709 403.936 29.1207 408.453 31.944C413.051 34.6867 416.561 38.5183 418.98 43.439C421.481 48.3597 422.731 53.966 422.731 60.258C422.731 61.6293 422.288 62.7587 421.4 63.646C420.513 64.4527 419.384 64.856 418.012 64.856H367.434V56.507H418.617L413.414 60.137C413.495 55.7003 412.688 51.7073 410.994 48.158C409.3 44.6087 406.88 41.8257 403.734 39.809C400.588 37.7923 396.837 36.784 392.481 36.784C387.883 36.784 383.85 37.8327 380.382 39.93C376.994 42.0273 374.372 44.9717 372.516 48.763C370.742 52.4737 369.854 56.7087 369.854 61.468C369.854 66.2273 370.903 70.4623 373 74.173C375.098 77.8837 377.961 80.7877 381.591 82.885C385.302 84.9823 389.537 86.031 394.296 86.031C397.039 86.031 399.822 85.547 402.645 84.579C405.549 83.611 407.848 82.401 409.542 80.949C410.51 80.223 411.599 79.86 412.809 79.86C414.1 79.7793 415.149 80.102 415.955 80.828C417.165 81.8767 417.77 83.006 417.77 84.216C417.851 85.426 417.327 86.4747 416.197 87.362C413.535 89.6207 410.147 91.476 406.033 92.928C401.919 94.38 398.007 95.106 394.296 95.106Z" fill="white"/>
<path d="M0 155.501V137.171H2.132L9.36 153.447H8.58L15.808 137.171H17.914V155.501H15.704V140.395H16.51L9.724 155.501H8.19L1.404 140.395H2.21V155.501H0Z" fill="white"/>
<path d="M28.2185 155.735C26.1385 155.735 24.4919 155.137 23.2785 153.941C22.0825 152.745 21.4845 151.098 21.4845 149.001C21.4845 147.614 21.7445 146.418 22.2645 145.413C22.8019 144.39 23.5385 143.602 24.4745 143.047C25.4105 142.475 26.5025 142.189 27.7505 142.189C28.9465 142.189 29.9605 142.449 30.7925 142.969C31.6245 143.472 32.2572 144.191 32.6905 145.127C33.1239 146.063 33.3405 147.172 33.3405 148.455V149.235H23.3305V147.831H31.7285L31.2865 148.169C31.2865 146.817 30.9832 145.768 30.3765 145.023C29.7872 144.278 28.9119 143.905 27.7505 143.905C26.4852 143.905 25.5059 144.347 24.8125 145.231C24.1192 146.098 23.7725 147.285 23.7725 148.793V149.027C23.7725 150.622 24.1625 151.826 24.9425 152.641C25.7399 153.456 26.8405 153.863 28.2445 153.863C29.0245 153.863 29.7525 153.75 30.4285 153.525C31.1045 153.3 31.7545 152.927 32.3785 152.407L33.1585 154.045C32.5692 154.582 31.8325 154.998 30.9485 155.293C30.0819 155.588 29.1719 155.735 28.2185 155.735Z" fill="white"/>
<path d="M35.2818 158.881V153.655H36.7118C37.3011 152.771 37.7258 151.731 37.9858 150.535C38.2631 149.339 38.4018 147.918 38.4018 146.271V142.423H47.7878V153.655H49.8678V158.881H47.8398V155.501H37.3358V158.881H35.2818ZM38.9478 153.681H45.5778V144.243H40.4818V146.687C40.4818 148.004 40.3518 149.287 40.0918 150.535C39.8318 151.766 39.4505 152.814 38.9478 153.681Z" fill="white"/>
<path d="M52.6045 155.501V142.423H54.7625V153.265H54.0605L62.1725 142.423H64.1485V155.501H61.9905V144.633H62.7185L54.5805 155.501H52.6045Z" fill="white"/>
<path d="M73.2643 155.735C72.1203 155.735 71.115 155.466 70.2483 154.929C69.3817 154.392 68.7057 153.612 68.2203 152.589C67.735 151.566 67.4923 150.353 67.4923 148.949C67.4923 147.545 67.735 146.34 68.2203 145.335C68.7057 144.312 69.3817 143.532 70.2483 142.995C71.115 142.458 72.1203 142.189 73.2643 142.189C74.4257 142.189 75.431 142.484 76.2803 143.073C77.147 143.645 77.719 144.434 77.9963 145.439H77.6843L77.9703 142.423H80.2583C80.2063 142.943 80.1543 143.463 80.1023 143.983C80.0677 144.503 80.0503 145.014 80.0503 145.517V155.501H77.6843V152.511H77.9703C77.693 153.499 77.121 154.288 76.2543 154.877C75.405 155.449 74.4083 155.735 73.2643 155.735ZM73.8103 153.863C74.989 153.863 75.9337 153.447 76.6443 152.615C77.355 151.783 77.7103 150.561 77.7103 148.949C77.7103 147.337 77.355 146.124 76.6443 145.309C75.9337 144.494 74.989 144.087 73.8103 144.087C72.6317 144.087 71.6783 144.494 70.9503 145.309C70.2397 146.124 69.8843 147.337 69.8843 148.949C69.8843 150.561 70.2397 151.783 70.9503 152.615C71.661 153.447 72.6143 153.863 73.8103 153.863Z" fill="white"/>
<path d="M84.0338 149.339V147.415H91.5478V149.339H84.0338Z" fill="white"/>
<path d="M101.488 155.735C100.188 155.735 99.0613 155.466 98.108 154.929C97.1546 154.374 96.4093 153.586 95.872 152.563C95.352 151.523 95.0919 150.292 95.0919 148.871C95.0919 147.467 95.3606 146.271 95.898 145.283C96.4353 144.278 97.1806 143.515 98.134 142.995C99.0873 142.458 100.205 142.189 101.488 142.189C102.337 142.189 103.161 142.336 103.958 142.631C104.755 142.908 105.405 143.316 105.908 143.853L105.102 145.517C104.599 145.032 104.045 144.676 103.438 144.451C102.831 144.208 102.233 144.087 101.644 144.087C100.361 144.087 99.356 144.503 98.628 145.335C97.9 146.15 97.5359 147.337 97.5359 148.897C97.5359 150.474 97.9 151.688 98.628 152.537C99.356 153.386 100.361 153.811 101.644 153.811C102.216 153.811 102.805 153.698 103.412 153.473C104.019 153.248 104.582 152.892 105.102 152.407L105.908 154.045C105.388 154.6 104.721 155.024 103.906 155.319C103.109 155.596 102.303 155.735 101.488 155.735Z" fill="white"/>
<path d="M115.029 155.735C112.949 155.735 111.302 155.137 110.089 153.941C108.893 152.745 108.295 151.098 108.295 149.001C108.295 147.614 108.555 146.418 109.075 145.413C109.612 144.39 110.349 143.602 111.285 143.047C112.221 142.475 113.313 142.189 114.561 142.189C115.757 142.189 116.771 142.449 117.603 142.969C118.435 143.472 119.068 144.191 119.501 145.127C119.934 146.063 120.151 147.172 120.151 148.455V149.235H110.141V147.831H118.539L118.097 148.169C118.097 146.817 117.794 145.768 117.187 145.023C116.598 144.278 115.722 143.905 114.561 143.905C113.296 143.905 112.316 144.347 111.623 145.231C110.93 146.098 110.583 147.285 110.583 148.793V149.027C110.583 150.622 110.973 151.826 111.753 152.641C112.55 153.456 113.651 153.863 115.055 153.863C115.835 153.863 116.563 153.75 117.239 153.525C117.915 153.3 118.565 152.927 119.189 152.407L119.969 154.045C119.38 154.582 118.643 154.998 117.759 155.293C116.892 155.588 115.982 155.735 115.029 155.735Z" fill="white"/>
<path d="M123.522 161.117V145.517C123.522 145.014 123.505 144.503 123.47 143.983C123.436 143.463 123.384 142.943 123.314 142.423H125.602L125.888 145.439H125.602C125.862 144.434 126.417 143.645 127.266 143.073C128.116 142.484 129.13 142.189 130.308 142.189C131.47 142.189 132.484 142.458 133.35 142.995C134.217 143.532 134.884 144.312 135.352 145.335C135.838 146.34 136.08 147.545 136.08 148.949C136.08 150.353 135.838 151.566 135.352 152.589C134.884 153.612 134.217 154.392 133.35 154.929C132.484 155.466 131.47 155.735 130.308 155.735C129.147 155.735 128.142 155.449 127.292 154.877C126.46 154.288 125.897 153.499 125.602 152.511H125.888V161.117H123.522ZM129.762 153.863C130.958 153.863 131.912 153.447 132.622 152.615C133.333 151.783 133.688 150.561 133.688 148.949C133.688 147.337 133.333 146.124 132.622 145.309C131.912 144.494 130.958 144.087 129.762 144.087C128.566 144.087 127.613 144.494 126.902 145.309C126.209 146.124 125.862 147.337 125.862 148.949C125.862 150.561 126.209 151.783 126.902 152.615C127.613 153.447 128.566 153.863 129.762 153.863Z" fill="white"/>
<path d="M139.466 155.501V142.423H145.914C147.457 142.423 148.6 142.718 149.346 143.307C150.108 143.896 150.49 144.746 150.49 145.855C150.49 146.687 150.204 147.389 149.632 147.961C149.06 148.516 148.314 148.854 147.396 148.975V148.637C148.488 148.672 149.346 148.992 149.97 149.599C150.611 150.188 150.932 150.951 150.932 151.887C150.932 152.996 150.507 153.88 149.658 154.539C148.826 155.18 147.656 155.501 146.148 155.501H139.466ZM141.702 153.941H145.992C146.876 153.941 147.552 153.759 148.02 153.395C148.488 153.014 148.722 152.476 148.722 151.783C148.722 151.072 148.488 150.535 148.02 150.171C147.552 149.807 146.876 149.625 145.992 149.625H141.702V153.941ZM141.702 148.065H145.706C146.52 148.065 147.153 147.883 147.604 147.519C148.055 147.155 148.28 146.652 148.28 146.011C148.28 145.352 148.055 144.85 147.604 144.503C147.153 144.156 146.52 143.983 145.706 143.983H141.702V148.065Z" fill="white"/>
<path d="M154.116 155.501V142.423H156.274V153.265H155.572L163.684 142.423H165.66V155.501H163.502V144.633H164.23L156.092 155.501H154.116Z" fill="white"/>
<path d="M175.4 155.735C174.1 155.735 172.973 155.466 172.02 154.929C171.067 154.374 170.321 153.586 169.784 152.563C169.264 151.523 169.004 150.292 169.004 148.871C169.004 147.467 169.273 146.271 169.81 145.283C170.347 144.278 171.093 143.515 172.046 142.995C172.999 142.458 174.117 142.189 175.4 142.189C176.249 142.189 177.073 142.336 177.87 142.631C178.667 142.908 179.317 143.316 179.82 143.853L179.014 145.517C178.511 145.032 177.957 144.676 177.35 144.451C176.743 144.208 176.145 144.087 175.556 144.087C174.273 144.087 173.268 144.503 172.54 145.335C171.812 146.15 171.448 147.337 171.448 148.897C171.448 150.474 171.812 151.688 172.54 152.537C173.268 153.386 174.273 153.811 175.556 153.811C176.128 153.811 176.717 153.698 177.324 153.473C177.931 153.248 178.494 152.892 179.014 152.407L179.82 154.045C179.3 154.6 178.633 155.024 177.818 155.319C177.021 155.596 176.215 155.735 175.4 155.735Z" fill="white"/>
<path d="M195.355 155.735C194.072 155.735 192.963 155.466 192.027 154.929C191.091 154.374 190.363 153.594 189.843 152.589C189.323 151.566 189.063 150.353 189.063 148.949C189.063 147.562 189.323 146.366 189.843 145.361C190.363 144.338 191.091 143.558 192.027 143.021C192.963 142.466 194.072 142.189 195.355 142.189C196.637 142.189 197.747 142.466 198.683 143.021C199.636 143.558 200.364 144.338 200.867 145.361C201.387 146.366 201.647 147.562 201.647 148.949C201.647 150.353 201.387 151.566 200.867 152.589C200.364 153.594 199.636 154.374 198.683 154.929C197.747 155.466 196.637 155.735 195.355 155.735ZM195.355 153.863C196.533 153.863 197.478 153.447 198.189 152.615C198.899 151.783 199.255 150.561 199.255 148.949C199.255 147.337 198.899 146.124 198.189 145.309C197.478 144.494 196.533 144.087 195.355 144.087C194.159 144.087 193.205 144.494 192.495 145.309C191.801 146.124 191.455 147.337 191.455 148.949C191.455 150.561 191.801 151.783 192.495 152.615C193.205 153.447 194.159 153.863 195.355 153.863Z" fill="white"/>
<path d="M211.256 155.813L210.424 153.967C211.031 153.69 211.533 153.36 211.932 152.979C212.348 152.58 212.669 152.078 212.894 151.471C213.137 150.864 213.31 150.11 213.414 149.209C213.518 148.308 213.57 147.216 213.57 145.933V142.423H223.216V155.501H220.876V144.269H215.754V145.985C215.754 147.996 215.598 149.66 215.286 150.977C214.991 152.277 214.515 153.308 213.856 154.071C213.215 154.834 212.348 155.414 211.256 155.813Z" fill="white"/>
<path d="M227.267 155.501V142.423H229.425V153.265H228.723L236.835 142.423H238.811V155.501H236.653V144.633H237.381L229.243 155.501H227.267Z" fill="white"/>
<path d="M251.254 155.501V150.327C250.752 150.604 250.214 150.821 249.642 150.977C249.07 151.116 248.464 151.185 247.822 151.185C245.95 151.185 244.564 150.752 243.662 149.885C242.778 149.001 242.336 147.675 242.336 145.907V142.423H244.676V145.725C244.676 146.956 244.954 147.848 245.508 148.403C246.08 148.94 246.964 149.209 248.16 149.209C248.767 149.209 249.313 149.148 249.798 149.027C250.284 148.888 250.752 148.672 251.202 148.377V142.423H253.568V155.501H251.254Z" fill="white"/>
<path d="M257.634 155.501V142.423H259.974V147.831H266.89V142.423H269.23V155.501H266.89V149.703H259.974V155.501H257.634Z" fill="white"/>
<path d="M278.864 155.735C277.582 155.735 276.472 155.466 275.536 154.929C274.6 154.374 273.872 153.594 273.352 152.589C272.832 151.566 272.572 150.353 272.572 148.949C272.572 147.562 272.832 146.366 273.352 145.361C273.872 144.338 274.6 143.558 275.536 143.021C276.472 142.466 277.582 142.189 278.864 142.189C280.147 142.189 281.256 142.466 282.192 143.021C283.146 143.558 283.874 144.338 284.376 145.361C284.896 146.366 285.156 147.562 285.156 148.949C285.156 150.353 284.896 151.566 284.376 152.589C283.874 153.594 283.146 154.374 282.192 154.929C281.256 155.466 280.147 155.735 278.864 155.735ZM278.864 153.863C280.043 153.863 280.988 153.447 281.698 152.615C282.409 151.783 282.764 150.561 282.764 148.949C282.764 147.337 282.409 146.124 281.698 145.309C280.988 144.494 280.043 144.087 278.864 144.087C277.668 144.087 276.715 144.494 276.004 145.309C275.311 146.124 274.964 147.337 274.964 148.949C274.964 150.561 275.311 151.783 276.004 152.615C276.715 153.447 277.668 153.863 278.864 153.863Z" fill="white"/>
<path d="M288.534 155.501V142.423H290.692V153.265H289.99L298.102 142.423H300.078V155.501H297.92V144.633H298.648L290.51 155.501H288.534ZM294.306 141.227C293.561 141.227 292.876 141.097 292.252 140.837C291.628 140.577 291.091 140.204 290.64 139.719C290.207 139.216 289.878 138.592 289.652 137.847L291.004 137.353C291.316 138.185 291.741 138.8 292.278 139.199C292.816 139.58 293.492 139.771 294.306 139.771C295.138 139.771 295.823 139.589 296.36 139.225C296.898 138.861 297.366 138.246 297.764 137.379L299.038 137.847C298.605 139.026 297.972 139.884 297.14 140.421C296.326 140.958 295.381 141.227 294.306 141.227Z" fill="white"/>
<path d="M316.673 155.735C314.715 155.735 313.164 155.12 312.02 153.889C310.876 152.658 310.303 150.856 310.303 148.481V146.219C310.303 143.792 310.815 141.834 311.837 140.343C312.86 138.852 314.446 137.847 316.595 137.327L321.379 136.131L322.082 138.055L316.777 139.329C315.824 139.554 315.035 139.962 314.411 140.551C313.787 141.14 313.32 141.834 313.008 142.631C312.713 143.428 312.565 144.278 312.565 145.179V146.297H312.202C312.41 145.517 312.739 144.841 313.19 144.269C313.658 143.697 314.238 143.264 314.931 142.969C315.625 142.657 316.388 142.501 317.22 142.501C318.346 142.501 319.334 142.761 320.184 143.281C321.033 143.801 321.692 144.555 322.16 145.543C322.645 146.514 322.888 147.675 322.888 149.027C322.888 150.414 322.628 151.61 322.108 152.615C321.605 153.62 320.885 154.392 319.949 154.929C319.013 155.466 317.921 155.735 316.673 155.735ZM316.595 153.863C317.809 153.863 318.762 153.464 319.456 152.667C320.166 151.87 320.522 150.682 320.522 149.105C320.522 147.562 320.166 146.384 319.456 145.569C318.762 144.754 317.809 144.347 316.595 144.347C315.382 144.347 314.42 144.746 313.71 145.543C313.016 146.34 312.669 147.476 312.669 148.949C312.669 150.596 313.016 151.826 313.71 152.641C314.42 153.456 315.382 153.863 316.595 153.863Z" fill="white"/>
<path d="M332.271 155.735C330.191 155.735 328.545 155.137 327.331 153.941C326.135 152.745 325.537 151.098 325.537 149.001C325.537 147.614 325.797 146.418 326.317 145.413C326.855 144.39 327.591 143.602 328.527 143.047C329.463 142.475 330.555 142.189 331.803 142.189C332.999 142.189 334.013 142.449 334.845 142.969C335.677 143.472 336.31 144.191 336.743 145.127C337.177 146.063 337.393 147.172 337.393 148.455V149.235H327.383V147.831H335.781L335.339 148.169C335.339 146.817 335.036 145.768 334.429 145.023C333.84 144.278 332.965 143.905 331.803 143.905C330.538 143.905 329.559 144.347 328.865 145.231C328.172 146.098 327.825 147.285 327.825 148.793V149.027C327.825 150.622 328.215 151.826 328.995 152.641C329.793 153.456 330.893 153.863 332.297 153.863C333.077 153.863 333.805 153.75 334.481 153.525C335.157 153.3 335.807 152.927 336.431 152.407L337.211 154.045C336.622 154.582 335.885 154.998 335.001 155.293C334.135 155.588 333.225 155.735 332.271 155.735Z" fill="white"/>
<path d="M345.133 155.735C343.989 155.735 342.923 155.588 341.935 155.293C340.947 154.998 340.132 154.582 339.491 154.045L340.271 152.407C340.912 152.927 341.64 153.317 342.455 153.577C343.269 153.837 344.153 153.967 345.107 153.967C346.355 153.967 347.256 153.785 347.811 153.421C348.383 153.04 348.669 152.494 348.669 151.783C348.669 151.107 348.435 150.596 347.967 150.249C347.499 149.902 346.814 149.729 345.913 149.729H342.741V148.013H345.627C346.441 148.013 347.074 147.84 347.525 147.493C347.993 147.129 348.227 146.635 348.227 146.011C348.227 145.37 347.967 144.867 347.447 144.503C346.927 144.122 346.129 143.931 345.055 143.931C344.153 143.931 343.33 144.052 342.585 144.295C341.839 144.52 341.129 144.867 340.453 145.335L339.699 143.801C340.409 143.246 341.241 142.839 342.195 142.579C343.148 142.319 344.188 142.189 345.315 142.189C346.961 142.189 348.218 142.51 349.085 143.151C349.969 143.775 350.411 144.668 350.411 145.829C350.411 146.644 350.133 147.346 349.579 147.935C349.024 148.507 348.287 148.854 347.369 148.975V148.637C348.409 148.689 349.249 149.01 349.891 149.599C350.532 150.171 350.853 150.934 350.853 151.887C350.853 153.048 350.367 153.984 349.397 154.695C348.426 155.388 347.005 155.735 345.133 155.735Z" fill="white"/>
<path d="M359.607 155.735C358.324 155.735 357.215 155.466 356.279 154.929C355.343 154.374 354.615 153.594 354.095 152.589C353.575 151.566 353.315 150.353 353.315 148.949C353.315 147.562 353.575 146.366 354.095 145.361C354.615 144.338 355.343 143.558 356.279 143.021C357.215 142.466 358.324 142.189 359.607 142.189C360.889 142.189 361.999 142.466 362.935 143.021C363.888 143.558 364.616 144.338 365.119 145.361C365.639 146.366 365.899 147.562 365.899 148.949C365.899 150.353 365.639 151.566 365.119 152.589C364.616 153.594 363.888 154.374 362.935 154.929C361.999 155.466 360.889 155.735 359.607 155.735ZM359.607 153.863C360.785 153.863 361.73 153.447 362.441 152.615C363.151 151.783 363.507 150.561 363.507 148.949C363.507 147.337 363.151 146.124 362.441 145.309C361.73 144.494 360.785 144.087 359.607 144.087C358.411 144.087 357.457 144.494 356.747 145.309C356.053 146.124 355.707 147.337 355.707 148.949C355.707 150.561 356.053 151.783 356.747 152.615C357.457 153.447 358.411 153.863 359.607 153.863Z" fill="white"/>
<path d="M369.276 155.501V142.423H380.794V155.501H378.454V144.269H371.616V155.501H369.276Z" fill="white"/>
<path d="M389.911 155.735C388.767 155.735 387.762 155.466 386.895 154.929C386.028 154.392 385.352 153.612 384.867 152.589C384.381 151.566 384.139 150.353 384.139 148.949C384.139 147.545 384.381 146.34 384.867 145.335C385.352 144.312 386.028 143.532 386.895 142.995C387.762 142.458 388.767 142.189 389.911 142.189C391.072 142.189 392.077 142.484 392.927 143.073C393.793 143.645 394.365 144.434 394.643 145.439H394.331L394.617 142.423H396.905C396.853 142.943 396.801 143.463 396.749 143.983C396.714 144.503 396.697 145.014 396.697 145.517V155.501H394.331V152.511H394.617C394.339 153.499 393.767 154.288 392.901 154.877C392.051 155.449 391.055 155.735 389.911 155.735ZM390.457 153.863C391.635 153.863 392.58 153.447 393.291 152.615C394.001 151.783 394.357 150.561 394.357 148.949C394.357 147.337 394.001 146.124 393.291 145.309C392.58 144.494 391.635 144.087 390.457 144.087C389.278 144.087 388.325 144.494 387.597 145.309C386.886 146.124 386.531 147.337 386.531 148.949C386.531 150.561 386.886 151.783 387.597 152.615C388.307 153.447 389.261 153.863 390.457 153.863Z" fill="white"/>
<path d="M406.556 155.735C405.256 155.735 404.13 155.466 403.176 154.929C402.223 154.374 401.478 153.586 400.94 152.563C400.42 151.523 400.16 150.292 400.16 148.871C400.16 147.467 400.429 146.271 400.966 145.283C401.504 144.278 402.249 143.515 403.202 142.995C404.156 142.458 405.274 142.189 406.556 142.189C407.406 142.189 408.229 142.336 409.026 142.631C409.824 142.908 410.474 143.316 410.976 143.853L410.17 145.517C409.668 145.032 409.113 144.676 408.506 144.451C407.9 144.208 407.302 144.087 406.712 144.087C405.43 144.087 404.424 144.503 403.696 145.335C402.968 146.15 402.604 147.337 402.604 148.897C402.604 150.474 402.968 151.688 403.696 152.537C404.424 153.386 405.43 153.811 406.712 153.811C407.284 153.811 407.874 153.698 408.48 153.473C409.087 153.248 409.65 152.892 410.17 152.407L410.976 154.045C410.456 154.6 409.789 155.024 408.974 155.319C408.177 155.596 407.371 155.735 406.556 155.735Z" fill="white"/>
<path d="M414.065 155.501V142.423H416.405V147.831H423.321V142.423H425.661V155.501H423.321V149.703H416.405V155.501H414.065Z" fill="white"/>
<path d="M435.296 155.735C434.013 155.735 432.904 155.466 431.968 154.929C431.032 154.374 430.304 153.594 429.784 152.589C429.264 151.566 429.004 150.353 429.004 148.949C429.004 147.562 429.264 146.366 429.784 145.361C430.304 144.338 431.032 143.558 431.968 143.021C432.904 142.466 434.013 142.189 435.296 142.189C436.579 142.189 437.688 142.466 438.624 143.021C439.577 143.558 440.305 144.338 440.808 145.361C441.328 146.366 441.588 147.562 441.588 148.949C441.588 150.353 441.328 151.566 440.808 152.589C440.305 153.594 439.577 154.374 438.624 154.929C437.688 155.466 436.579 155.735 435.296 155.735ZM435.296 153.863C436.475 153.863 437.419 153.447 438.13 152.615C438.841 151.783 439.196 150.561 439.196 148.949C439.196 147.337 438.841 146.124 438.13 145.309C437.419 144.494 436.475 144.087 435.296 144.087C434.1 144.087 433.147 144.494 432.436 145.309C431.743 146.124 431.396 147.337 431.396 148.949C431.396 150.561 431.743 151.783 432.436 152.615C433.147 153.447 434.1 153.863 435.296 153.863Z" fill="white"/>
<path d="M450.66 155.735C449.36 155.735 448.233 155.466 447.28 154.929C446.326 154.374 445.581 153.586 445.044 152.563C444.524 151.523 444.264 150.292 444.264 148.871C444.264 147.467 444.532 146.271 445.07 145.283C445.607 144.278 446.352 143.515 447.306 142.995C448.259 142.458 449.377 142.189 450.66 142.189C451.509 142.189 452.332 142.336 453.13 142.631C453.927 142.908 454.577 143.316 455.08 143.853L454.274 145.517C453.771 145.032 453.216 144.676 452.61 144.451C452.003 144.208 451.405 144.087 450.816 144.087C449.533 144.087 448.528 144.503 447.8 145.335C447.072 146.15 446.708 147.337 446.708 148.897C446.708 150.474 447.072 151.688 447.8 152.537C448.528 153.386 449.533 153.811 450.816 153.811C451.388 153.811 451.977 153.698 452.584 153.473C453.19 153.248 453.754 152.892 454.274 152.407L455.08 154.045C454.56 154.6 453.892 155.024 453.078 155.319C452.28 155.596 451.474 155.735 450.66 155.735Z" fill="white"/>
<path d="M460.977 155.501V144.321H456.271V142.423H468.023V144.321H463.317V155.501H460.977Z" fill="white"/>
<path d="M470.179 155.501V142.423H472.337V153.265H471.635L479.747 142.423H481.723V155.501H479.565V144.633H480.293L472.155 155.501H470.179Z" fill="white"/>
</svg>
