<svg width="1216" height="80" viewBox="0 0 1216 80" fill="none" xmlns="http://www.w3.org/2000/svg">
<g opacity="0.1">
<path d="M12.7449 61.992C12.7449 64.863 13.3242 66.903 14.4828 68.1119C15.7187 69.2452 17.3407 69.8119 19.349 69.8119C19.4318 69.8119 74.8158 69.5717 74.8971 69.5698C76.789 69.525 78.3932 69.4963 79.5041 68.4097C80.7399 67.2009 81.2551 65.7688 81.2551 62.8977V20.0587C81.2551 17.1876 80.6372 15.1854 79.4013 14.0521C78.2907 12.8933 76.973 11.6964 75.0816 11.6484C74.9999 11.6464 19.4322 11.3331 19.349 11.3331C17.3407 11.3331 15.7187 11.9375 14.4828 13.1464C13.3242 14.2797 12.7449 16.2819 12.7449 19.1529V61.992ZM0 19.9462C0 13.5241 1.66068 8.61315 4.98207 5.21322C8.30345 1.73774 13.0924 0 19.349 0C19.4317 0 74.9994 0.322961 75.0816 0.323568C81.2172 0.368881 85.7404 2.68941 89.0179 6.11897C92.3393 9.5189 94 14.4299 94 20.852V62.1044C94 68.5265 92.3393 73.4753 89.0179 76.9508C85.7402 80.306 81.0333 79.7158 74.8971 79.7599C74.8153 79.7605 19.4313 80 19.349 80C13.0924 80 8.30345 79.445 4.98207 76.045C1.66068 72.5696 0 67.6208 0 61.1987V19.9462Z" fill="white"/>
<path d="M12.7449 61.992C12.7449 64.863 13.3242 66.903 14.4828 68.1119C15.7187 69.2452 17.3407 69.8119 19.349 69.8119C19.4318 69.8119 74.8158 69.5717 74.8971 69.5698C76.789 69.525 78.3932 69.4963 79.5041 68.4097C80.7399 67.2009 81.2551 65.7688 81.2551 62.8977V20.0587C81.2551 17.1876 80.6372 15.1854 79.4013 14.0521C78.2907 12.8933 76.973 11.6964 75.0816 11.6484C74.9999 11.6464 19.4322 11.3331 19.349 11.3331C17.3407 11.3331 15.7187 11.9375 14.4828 13.1464C13.3242 14.2797 12.7449 16.2819 12.7449 19.1529V61.992ZM0 19.9462C0 13.5241 1.66068 8.61315 4.98207 5.21322C8.30345 1.73774 13.0924 0 19.349 0C19.4317 0 74.9994 0.322961 75.0816 0.323568C81.2172 0.368881 85.7404 2.68941 89.0179 6.11897C92.3393 9.5189 94 14.4299 94 20.852V62.1044C94 68.5265 92.3393 73.4753 89.0179 76.9508C85.7402 80.306 81.0333 79.7158 74.8971 79.7599C74.8153 79.7605 19.4313 80 19.349 80C13.0924 80 8.30345 79.445 4.98207 76.045C1.66068 72.5696 0 67.6208 0 61.1987V19.9462Z" fill="white"/>
</g>
<g opacity="0.1">
<path d="M114.745 61.992C114.745 64.863 115.324 66.903 116.483 68.1119C117.719 69.2452 119.341 69.8119 121.349 69.8119C121.432 69.8119 176.816 69.5717 176.897 69.5698C178.789 69.525 180.393 69.4963 181.504 68.4097C182.74 67.2009 183.255 65.7688 183.255 62.8977V20.0587C183.255 17.1876 182.637 15.1854 181.401 14.0521C180.291 12.8933 178.973 11.6964 177.082 11.6484C177 11.6464 121.432 11.3331 121.349 11.3331C119.341 11.3331 117.719 11.9375 116.483 13.1464C115.324 14.2797 114.745 16.2819 114.745 19.1529V61.992ZM102 19.9462C102 13.5241 103.661 8.61315 106.982 5.21322C110.303 1.73774 115.092 0 121.349 0C121.432 0 176.999 0.322961 177.082 0.323568C183.217 0.368881 187.74 2.68941 191.018 6.11897C194.339 9.5189 196 14.4299 196 20.852V62.1044C196 68.5265 194.339 73.4753 191.018 76.9508C187.74 80.306 183.033 79.7158 176.897 79.7599C176.815 79.7605 121.431 80 121.349 80C115.092 80 110.303 79.445 106.982 76.045C103.661 72.5696 102 67.6208 102 61.1987V19.9462Z" fill="white"/>
<path d="M114.745 61.992C114.745 64.863 115.324 66.903 116.483 68.1119C117.719 69.2452 119.341 69.8119 121.349 69.8119C121.432 69.8119 176.816 69.5717 176.897 69.5698C178.789 69.525 180.393 69.4963 181.504 68.4097C182.74 67.2009 183.255 65.7688 183.255 62.8977V20.0587C183.255 17.1876 182.637 15.1854 181.401 14.0521C180.291 12.8933 178.973 11.6964 177.082 11.6484C177 11.6464 121.432 11.3331 121.349 11.3331C119.341 11.3331 117.719 11.9375 116.483 13.1464C115.324 14.2797 114.745 16.2819 114.745 19.1529V61.992ZM102 19.9462C102 13.5241 103.661 8.61315 106.982 5.21322C110.303 1.73774 115.092 0 121.349 0C121.432 0 176.999 0.322961 177.082 0.323568C183.217 0.368881 187.74 2.68941 191.018 6.11897C194.339 9.5189 196 14.4299 196 20.852V62.1044C196 68.5265 194.339 73.4753 191.018 76.9508C187.74 80.306 183.033 79.7158 176.897 79.7599C176.815 79.7605 121.431 80 121.349 80C115.092 80 110.303 79.445 106.982 76.045C103.661 72.5696 102 67.6208 102 61.1987V19.9462Z" fill="white"/>
</g>
<path fill-rule="evenodd" clip-rule="evenodd" d="M102 57V61.1987C102 67.6208 103.656 72.5696 106.967 76.045C110.278 79.445 115.053 80 121.291 80C121.373 80 176.589 79.7605 176.671 79.7599C177.533 79.7537 178.366 79.7601 179.171 79.7663H179.171H179.172C184.083 79.8038 187.942 79.8333 190.749 76.9508C194.06 73.4753 195.716 68.5265 195.716 62.1044V57H183.01V62.8977C183.01 65.7688 182.496 67.2009 181.264 68.4097C180.166 69.487 178.585 69.5244 176.72 69.5686L176.671 69.5698C176.59 69.5717 121.373 69.8119 121.291 69.8119C119.288 69.8119 117.671 69.2452 116.439 68.1119C115.284 66.903 114.706 64.863 114.706 61.992V57H102Z" fill="#FFAF31"/>
<g opacity="0.1">
<path d="M216.745 61.992C216.745 64.863 217.324 66.903 218.483 68.1119C219.719 69.2452 221.341 69.8119 223.349 69.8119C223.432 69.8119 278.816 69.5717 278.897 69.5698C280.789 69.525 282.393 69.4963 283.504 68.4097C284.74 67.2009 285.255 65.7688 285.255 62.8977V20.0587C285.255 17.1876 284.637 15.1854 283.401 14.0521C282.291 12.8933 280.973 11.6964 279.082 11.6484C279 11.6464 223.432 11.3331 223.349 11.3331C221.341 11.3331 219.719 11.9375 218.483 13.1464C217.324 14.2797 216.745 16.2819 216.745 19.1529V61.992ZM204 19.9462C204 13.5241 205.661 8.61315 208.982 5.21322C212.303 1.73774 217.092 0 223.349 0C223.432 0 278.999 0.322961 279.082 0.323568C285.217 0.368881 289.74 2.68941 293.018 6.11897C296.339 9.5189 298 14.4299 298 20.852V62.1044C298 68.5265 296.339 73.4753 293.018 76.9508C289.74 80.306 285.033 79.7158 278.897 79.7599C278.815 79.7605 223.431 80 223.349 80C217.092 80 212.303 79.445 208.982 76.045C205.661 72.5696 204 67.6208 204 61.1987V19.9462Z" fill="white"/>
<path d="M216.745 61.992C216.745 64.863 217.324 66.903 218.483 68.1119C219.719 69.2452 221.341 69.8119 223.349 69.8119C223.432 69.8119 278.816 69.5717 278.897 69.5698C280.789 69.525 282.393 69.4963 283.504 68.4097C284.74 67.2009 285.255 65.7688 285.255 62.8977V20.0587C285.255 17.1876 284.637 15.1854 283.401 14.0521C282.291 12.8933 280.973 11.6964 279.082 11.6484C279 11.6464 223.432 11.3331 223.349 11.3331C221.341 11.3331 219.719 11.9375 218.483 13.1464C217.324 14.2797 216.745 16.2819 216.745 19.1529V61.992ZM204 19.9462C204 13.5241 205.661 8.61315 208.982 5.21322C212.303 1.73774 217.092 0 223.349 0C223.432 0 278.999 0.322961 279.082 0.323568C285.217 0.368881 289.74 2.68941 293.018 6.11897C296.339 9.5189 298 14.4299 298 20.852V62.1044C298 68.5265 296.339 73.4753 293.018 76.9508C289.74 80.306 285.033 79.7158 278.897 79.7599C278.815 79.7605 223.431 80 223.349 80C217.092 80 212.303 79.445 208.982 76.045C205.661 72.5696 204 67.6208 204 61.1987V19.9462Z" fill="white"/>
</g>
<g opacity="0.1">
<path d="M318.745 61.992C318.745 64.863 319.324 66.903 320.483 68.1119C321.719 69.2452 323.341 69.8119 325.349 69.8119C325.432 69.8119 380.816 69.5717 380.897 69.5698C382.789 69.525 384.393 69.4963 385.504 68.4097C386.74 67.2009 387.255 65.7688 387.255 62.8977V20.0587C387.255 17.1876 386.637 15.1854 385.401 14.0521C384.291 12.8933 382.973 11.6964 381.082 11.6484C381 11.6464 325.432 11.3331 325.349 11.3331C323.341 11.3331 321.719 11.9375 320.483 13.1464C319.324 14.2797 318.745 16.2819 318.745 19.1529V61.992ZM306 19.9462C306 13.5241 307.661 8.61315 310.982 5.21322C314.303 1.73774 319.092 0 325.349 0C325.432 0 380.999 0.322961 381.082 0.323568C387.217 0.368881 391.74 2.68941 395.018 6.11897C398.339 9.5189 400 14.4299 400 20.852V62.1044C400 68.5265 398.339 73.4753 395.018 76.9508C391.74 80.306 387.033 79.7158 380.897 79.7599C380.815 79.7605 325.431 80 325.349 80C319.092 80 314.303 79.445 310.982 76.045C307.661 72.5696 306 67.6208 306 61.1987V19.9462Z" fill="white"/>
<path d="M318.745 61.992C318.745 64.863 319.324 66.903 320.483 68.1119C321.719 69.2452 323.341 69.8119 325.349 69.8119C325.432 69.8119 380.816 69.5717 380.897 69.5698C382.789 69.525 384.393 69.4963 385.504 68.4097C386.74 67.2009 387.255 65.7688 387.255 62.8977V20.0587C387.255 17.1876 386.637 15.1854 385.401 14.0521C384.291 12.8933 382.973 11.6964 381.082 11.6484C381 11.6464 325.432 11.3331 325.349 11.3331C323.341 11.3331 321.719 11.9375 320.483 13.1464C319.324 14.2797 318.745 16.2819 318.745 19.1529V61.992ZM306 19.9462C306 13.5241 307.661 8.61315 310.982 5.21322C314.303 1.73774 319.092 0 325.349 0C325.432 0 380.999 0.322961 381.082 0.323568C387.217 0.368881 391.74 2.68941 395.018 6.11897C398.339 9.5189 400 14.4299 400 20.852V62.1044C400 68.5265 398.339 73.4753 395.018 76.9508C391.74 80.306 387.033 79.7158 380.897 79.7599C380.815 79.7605 325.431 80 325.349 80C319.092 80 314.303 79.445 310.982 76.045C307.661 72.5696 306 67.6208 306 61.1987V19.9462Z" fill="white"/>
</g>
<g opacity="0.1">
<path d="M420.745 61.992C420.745 64.863 421.324 66.903 422.483 68.1119C423.719 69.2452 425.341 69.8119 427.349 69.8119C427.432 69.8119 482.816 69.5717 482.897 69.5698C484.789 69.525 486.393 69.4963 487.504 68.4097C488.74 67.2009 489.255 65.7688 489.255 62.8977V20.0587C489.255 17.1876 488.637 15.1854 487.401 14.0521C486.291 12.8933 484.973 11.6964 483.082 11.6484C483 11.6464 427.432 11.3331 427.349 11.3331C425.341 11.3331 423.719 11.9375 422.483 13.1464C421.324 14.2797 420.745 16.2819 420.745 19.1529V61.992ZM408 19.9462C408 13.5241 409.661 8.61315 412.982 5.21322C416.303 1.73774 421.092 0 427.349 0C427.432 0 482.999 0.322961 483.082 0.323568C489.217 0.368881 493.74 2.68941 497.018 6.11897C500.339 9.5189 502 14.4299 502 20.852V62.1044C502 68.5265 500.339 73.4753 497.018 76.9508C493.74 80.306 489.033 79.7158 482.897 79.7599C482.815 79.7605 427.431 80 427.349 80C421.092 80 416.303 79.445 412.982 76.045C409.661 72.5696 408 67.6208 408 61.1987V19.9462Z" fill="white"/>
<path d="M420.745 61.992C420.745 64.863 421.324 66.903 422.483 68.1119C423.719 69.2452 425.341 69.8119 427.349 69.8119C427.432 69.8119 482.816 69.5717 482.897 69.5698C484.789 69.525 486.393 69.4963 487.504 68.4097C488.74 67.2009 489.255 65.7688 489.255 62.8977V20.0587C489.255 17.1876 488.637 15.1854 487.401 14.0521C486.291 12.8933 484.973 11.6964 483.082 11.6484C483 11.6464 427.432 11.3331 427.349 11.3331C425.341 11.3331 423.719 11.9375 422.483 13.1464C421.324 14.2797 420.745 16.2819 420.745 19.1529V61.992ZM408 19.9462C408 13.5241 409.661 8.61315 412.982 5.21322C416.303 1.73774 421.092 0 427.349 0C427.432 0 482.999 0.322961 483.082 0.323568C489.217 0.368881 493.74 2.68941 497.018 6.11897C500.339 9.5189 502 14.4299 502 20.852V62.1044C502 68.5265 500.339 73.4753 497.018 76.9508C493.74 80.306 489.033 79.7158 482.897 79.7599C482.815 79.7605 427.431 80 427.349 80C421.092 80 416.303 79.445 412.982 76.045C409.661 72.5696 408 67.6208 408 61.1987V19.9462Z" fill="white"/>
</g>
<path fill-rule="evenodd" clip-rule="evenodd" d="M467.84 0.235962C451.402 0.140137 427.345 0 427.291 0C421.053 0 416.278 1.73774 412.967 5.21322C409.656 8.61315 408 13.5241 408 19.9462V61.1987C408 64.9594 408.568 68.2148 409.703 70.9651L420.706 57.5786V19.1529C420.706 16.2819 421.284 14.2797 422.439 13.1464C423.671 11.9375 425.288 11.3331 427.291 11.3331C427.336 11.3331 443.64 11.4252 458.573 11.5098L467.84 0.235962Z" fill="#FFAF31"/>
<g opacity="0.1">
<path d="M522.745 61.992C522.745 64.863 523.324 66.903 524.483 68.1119C525.719 69.2452 527.341 69.8119 529.349 69.8119C529.432 69.8119 584.816 69.5717 584.897 69.5698C586.789 69.525 588.393 69.4963 589.504 68.4097C590.74 67.2009 591.255 65.7688 591.255 62.8977V20.0587C591.255 17.1876 590.637 15.1854 589.401 14.0521C588.291 12.8933 586.973 11.6964 585.082 11.6484C585 11.6464 529.432 11.3331 529.349 11.3331C527.341 11.3331 525.719 11.9375 524.483 13.1464C523.324 14.2797 522.745 16.2819 522.745 19.1529V61.992ZM510 19.9462C510 13.5241 511.661 8.61315 514.982 5.21322C518.303 1.73774 523.092 0 529.349 0C529.432 0 584.999 0.322961 585.082 0.323568C591.217 0.368881 595.74 2.68941 599.018 6.11897C602.339 9.5189 604 14.4299 604 20.852V62.1044C604 68.5265 602.339 73.4753 599.018 76.9508C595.74 80.306 591.033 79.7158 584.897 79.7599C584.815 79.7605 529.431 80 529.349 80C523.092 80 518.303 79.445 514.982 76.045C511.661 72.5696 510 67.6208 510 61.1987V19.9462Z" fill="white"/>
<path d="M522.745 61.992C522.745 64.863 523.324 66.903 524.483 68.1119C525.719 69.2452 527.341 69.8119 529.349 69.8119C529.432 69.8119 584.816 69.5717 584.897 69.5698C586.789 69.525 588.393 69.4963 589.504 68.4097C590.74 67.2009 591.255 65.7688 591.255 62.8977V20.0587C591.255 17.1876 590.637 15.1854 589.401 14.0521C588.291 12.8933 586.973 11.6964 585.082 11.6484C585 11.6464 529.432 11.3331 529.349 11.3331C527.341 11.3331 525.719 11.9375 524.483 13.1464C523.324 14.2797 522.745 16.2819 522.745 19.1529V61.992ZM510 19.9462C510 13.5241 511.661 8.61315 514.982 5.21322C518.303 1.73774 523.092 0 529.349 0C529.432 0 584.999 0.322961 585.082 0.323568C591.217 0.368881 595.74 2.68941 599.018 6.11897C602.339 9.5189 604 14.4299 604 20.852V62.1044C604 68.5265 602.339 73.4753 599.018 76.9508C595.74 80.306 591.033 79.7158 584.897 79.7599C584.815 79.7605 529.431 80 529.349 80C523.092 80 518.303 79.445 514.982 76.045C511.661 72.5696 510 67.6208 510 61.1987V19.9462Z" fill="white"/>
</g>
<g opacity="0.1">
<path d="M624.745 61.992C624.745 64.863 625.324 66.903 626.483 68.1119C627.719 69.2452 629.341 69.8119 631.349 69.8119C631.432 69.8119 686.816 69.5717 686.897 69.5698C688.789 69.525 690.393 69.4963 691.504 68.4097C692.74 67.2009 693.255 65.7688 693.255 62.8977V20.0587C693.255 17.1876 692.637 15.1854 691.401 14.0521C690.291 12.8933 688.973 11.6964 687.082 11.6484C687 11.6464 631.432 11.3331 631.349 11.3331C629.341 11.3331 627.719 11.9375 626.483 13.1464C625.324 14.2797 624.745 16.2819 624.745 19.1529V61.992ZM612 19.9462C612 13.5241 613.661 8.61315 616.982 5.21322C620.303 1.73774 625.092 0 631.349 0C631.432 0 686.999 0.322961 687.082 0.323568C693.217 0.368881 697.74 2.68941 701.018 6.11897C704.339 9.5189 706 14.4299 706 20.852V62.1044C706 68.5265 704.339 73.4753 701.018 76.9508C697.74 80.306 693.033 79.7158 686.897 79.7599C686.815 79.7605 631.431 80 631.349 80C625.092 80 620.303 79.445 616.982 76.045C613.661 72.5696 612 67.6208 612 61.1987V19.9462Z" fill="white"/>
<path d="M624.745 61.992C624.745 64.863 625.324 66.903 626.483 68.1119C627.719 69.2452 629.341 69.8119 631.349 69.8119C631.432 69.8119 686.816 69.5717 686.897 69.5698C688.789 69.525 690.393 69.4963 691.504 68.4097C692.74 67.2009 693.255 65.7688 693.255 62.8977V20.0587C693.255 17.1876 692.637 15.1854 691.401 14.0521C690.291 12.8933 688.973 11.6964 687.082 11.6484C687 11.6464 631.432 11.3331 631.349 11.3331C629.341 11.3331 627.719 11.9375 626.483 13.1464C625.324 14.2797 624.745 16.2819 624.745 19.1529V61.992ZM612 19.9462C612 13.5241 613.661 8.61315 616.982 5.21322C620.303 1.73774 625.092 0 631.349 0C631.432 0 686.999 0.322961 687.082 0.323568C693.217 0.368881 697.74 2.68941 701.018 6.11897C704.339 9.5189 706 14.4299 706 20.852V62.1044C706 68.5265 704.339 73.4753 701.018 76.9508C697.74 80.306 693.033 79.7158 686.897 79.7599C686.815 79.7605 631.431 80 631.349 80C625.092 80 620.303 79.445 616.982 76.045C613.661 72.5696 612 67.6208 612 61.1987V19.9462Z" fill="white"/>
</g>
<g opacity="0.1">
<path d="M726.745 61.992C726.745 64.863 727.324 66.903 728.483 68.1119C729.719 69.2452 731.341 69.8119 733.349 69.8119C733.432 69.8119 788.816 69.5717 788.897 69.5698C790.789 69.525 792.393 69.4963 793.504 68.4097C794.74 67.2009 795.255 65.7688 795.255 62.8977V20.0587C795.255 17.1876 794.637 15.1854 793.401 14.0521C792.291 12.8933 790.973 11.6964 789.082 11.6484C789 11.6464 733.432 11.3331 733.349 11.3331C731.341 11.3331 729.719 11.9375 728.483 13.1464C727.324 14.2797 726.745 16.2819 726.745 19.1529V61.992ZM714 19.9462C714 13.5241 715.661 8.61315 718.982 5.21322C722.303 1.73774 727.092 0 733.349 0C733.432 0 788.999 0.322961 789.082 0.323568C795.217 0.368881 799.74 2.68941 803.018 6.11897C806.339 9.5189 808 14.4299 808 20.852V62.1044C808 68.5265 806.339 73.4753 803.018 76.9508C799.74 80.306 795.033 79.7158 788.897 79.7599C788.815 79.7605 733.431 80 733.349 80C727.092 80 722.303 79.445 718.982 76.045C715.661 72.5696 714 67.6208 714 61.1987V19.9462Z" fill="white"/>
<path d="M726.745 61.992C726.745 64.863 727.324 66.903 728.483 68.1119C729.719 69.2452 731.341 69.8119 733.349 69.8119C733.432 69.8119 788.816 69.5717 788.897 69.5698C790.789 69.525 792.393 69.4963 793.504 68.4097C794.74 67.2009 795.255 65.7688 795.255 62.8977V20.0587C795.255 17.1876 794.637 15.1854 793.401 14.0521C792.291 12.8933 790.973 11.6964 789.082 11.6484C789 11.6464 733.432 11.3331 733.349 11.3331C731.341 11.3331 729.719 11.9375 728.483 13.1464C727.324 14.2797 726.745 16.2819 726.745 19.1529V61.992ZM714 19.9462C714 13.5241 715.661 8.61315 718.982 5.21322C722.303 1.73774 727.092 0 733.349 0C733.432 0 788.999 0.322961 789.082 0.323568C795.217 0.368881 799.74 2.68941 803.018 6.11897C806.339 9.5189 808 14.4299 808 20.852V62.1044C808 68.5265 806.339 73.4753 803.018 76.9508C799.74 80.306 795.033 79.7158 788.897 79.7599C788.815 79.7605 733.431 80 733.349 80C727.092 80 722.303 79.445 718.982 76.045C715.661 72.5696 714 67.6208 714 61.1987V19.9462Z" fill="white"/>
</g>
<path fill-rule="evenodd" clip-rule="evenodd" d="M743 80.0001C758.648 79.9313 788.976 79.7975 789.036 79.7971C789.894 79.7908 790.724 79.7972 791.526 79.8035C796.416 79.8415 800.259 79.8713 803.054 76.9535C806.351 73.4354 808 68.426 808 61.9252V30L795.348 39.7326V62.7283C795.348 65.6345 794.836 67.0841 793.609 68.3078C792.516 69.3982 790.942 69.4361 789.084 69.4809H789.084L789.036 69.482C788.991 69.4831 771.693 69.56 756.485 69.6274L743 80.0001Z" fill="#FFAF31"/>
<g opacity="0.1">
<path d="M828.745 61.992C828.745 64.863 829.324 66.903 830.483 68.1119C831.719 69.2452 833.341 69.8119 835.349 69.8119C835.432 69.8119 890.816 69.5717 890.897 69.5698C892.789 69.525 894.393 69.4963 895.504 68.4097C896.74 67.2009 897.255 65.7688 897.255 62.8977V20.0587C897.255 17.1876 896.637 15.1854 895.401 14.0521C894.291 12.8933 892.973 11.6964 891.082 11.6484C891 11.6464 835.432 11.3331 835.349 11.3331C833.341 11.3331 831.719 11.9375 830.483 13.1464C829.324 14.2797 828.745 16.2819 828.745 19.1529V61.992ZM816 19.9462C816 13.5241 817.661 8.61315 820.982 5.21322C824.303 1.73774 829.092 0 835.349 0C835.432 0 890.999 0.322961 891.082 0.323568C897.217 0.368881 901.74 2.68941 905.018 6.11897C908.339 9.5189 910 14.4299 910 20.852V62.1044C910 68.5265 908.339 73.4753 905.018 76.9508C901.74 80.306 897.033 79.7158 890.897 79.7599C890.815 79.7605 835.431 80 835.349 80C829.092 80 824.303 79.445 820.982 76.045C817.661 72.5696 816 67.6208 816 61.1987V19.9462Z" fill="white"/>
<path d="M828.745 61.992C828.745 64.863 829.324 66.903 830.483 68.1119C831.719 69.2452 833.341 69.8119 835.349 69.8119C835.432 69.8119 890.816 69.5717 890.897 69.5698C892.789 69.525 894.393 69.4963 895.504 68.4097C896.74 67.2009 897.255 65.7688 897.255 62.8977V20.0587C897.255 17.1876 896.637 15.1854 895.401 14.0521C894.291 12.8933 892.973 11.6964 891.082 11.6484C891 11.6464 835.432 11.3331 835.349 11.3331C833.341 11.3331 831.719 11.9375 830.483 13.1464C829.324 14.2797 828.745 16.2819 828.745 19.1529V61.992ZM816 19.9462C816 13.5241 817.661 8.61315 820.982 5.21322C824.303 1.73774 829.092 0 835.349 0C835.432 0 890.999 0.322961 891.082 0.323568C897.217 0.368881 901.74 2.68941 905.018 6.11897C908.339 9.5189 910 14.4299 910 20.852V62.1044C910 68.5265 908.339 73.4753 905.018 76.9508C901.74 80.306 897.033 79.7158 890.897 79.7599C890.815 79.7605 835.431 80 835.349 80C829.092 80 824.303 79.445 820.982 76.045C817.661 72.5696 816 67.6208 816 61.1987V19.9462Z" fill="white"/>
</g>
<g opacity="0.1">
<path d="M930.745 61.992C930.745 64.863 931.324 66.903 932.483 68.1119C933.719 69.2452 935.341 69.8119 937.349 69.8119C937.432 69.8119 992.816 69.5717 992.897 69.5698C994.789 69.525 996.393 69.4963 997.504 68.4097C998.74 67.2009 999.255 65.7688 999.255 62.8977V20.0587C999.255 17.1876 998.637 15.1854 997.401 14.0521C996.291 12.8933 994.973 11.6964 993.082 11.6484C993 11.6464 937.432 11.3331 937.349 11.3331C935.341 11.3331 933.719 11.9375 932.483 13.1464C931.324 14.2797 930.745 16.2819 930.745 19.1529V61.992ZM918 19.9462C918 13.5241 919.661 8.61315 922.982 5.21322C926.303 1.73774 931.092 0 937.349 0C937.432 0 992.999 0.322961 993.082 0.323568C999.217 0.368881 1003.74 2.68941 1007.02 6.11897C1010.34 9.5189 1012 14.4299 1012 20.852V62.1044C1012 68.5265 1010.34 73.4753 1007.02 76.9508C1003.74 80.306 999.033 79.7158 992.897 79.7599C992.815 79.7605 937.431 80 937.349 80C931.092 80 926.303 79.445 922.982 76.045C919.661 72.5696 918 67.6208 918 61.1987V19.9462Z" fill="white"/>
<path d="M930.745 61.992C930.745 64.863 931.324 66.903 932.483 68.1119C933.719 69.2452 935.341 69.8119 937.349 69.8119C937.432 69.8119 992.816 69.5717 992.897 69.5698C994.789 69.525 996.393 69.4963 997.504 68.4097C998.74 67.2009 999.255 65.7688 999.255 62.8977V20.0587C999.255 17.1876 998.637 15.1854 997.401 14.0521C996.291 12.8933 994.973 11.6964 993.082 11.6484C993 11.6464 937.432 11.3331 937.349 11.3331C935.341 11.3331 933.719 11.9375 932.483 13.1464C931.324 14.2797 930.745 16.2819 930.745 19.1529V61.992ZM918 19.9462C918 13.5241 919.661 8.61315 922.982 5.21322C926.303 1.73774 931.092 0 937.349 0C937.432 0 992.999 0.322961 993.082 0.323568C999.217 0.368881 1003.74 2.68941 1007.02 6.11897C1010.34 9.5189 1012 14.4299 1012 20.852V62.1044C1012 68.5265 1010.34 73.4753 1007.02 76.9508C1003.74 80.306 999.033 79.7158 992.897 79.7599C992.815 79.7605 937.431 80 937.349 80C931.092 80 926.303 79.445 922.982 76.045C919.661 72.5696 918 67.6208 918 61.1987V19.9462Z" fill="white"/>
</g>
<g opacity="0.1">
<path d="M1032.74 61.992C1032.74 64.863 1033.32 66.903 1034.48 68.1119C1035.72 69.2452 1037.34 69.8119 1039.35 69.8119C1039.43 69.8119 1094.82 69.5717 1094.9 69.5698C1096.79 69.525 1098.39 69.4963 1099.5 68.4097C1100.74 67.2009 1101.26 65.7688 1101.26 62.8977V20.0587C1101.26 17.1876 1100.64 15.1854 1099.4 14.0521C1098.29 12.8933 1096.97 11.6964 1095.08 11.6484C1095 11.6464 1039.43 11.3331 1039.35 11.3331C1037.34 11.3331 1035.72 11.9375 1034.48 13.1464C1033.32 14.2797 1032.74 16.2819 1032.74 19.1529V61.992ZM1020 19.9462C1020 13.5241 1021.66 8.61315 1024.98 5.21322C1028.3 1.73774 1033.09 0 1039.35 0C1039.43 0 1095 0.322961 1095.08 0.323568C1101.22 0.368881 1105.74 2.68941 1109.02 6.11897C1112.34 9.5189 1114 14.4299 1114 20.852V62.1044C1114 68.5265 1112.34 73.4753 1109.02 76.9508C1105.74 80.306 1101.03 79.7158 1094.9 79.7599C1094.82 79.7605 1039.43 80 1039.35 80C1033.09 80 1028.3 79.445 1024.98 76.045C1021.66 72.5696 1020 67.6208 1020 61.1987V19.9462Z" fill="white"/>
<path d="M1032.74 61.992C1032.74 64.863 1033.32 66.903 1034.48 68.1119C1035.72 69.2452 1037.34 69.8119 1039.35 69.8119C1039.43 69.8119 1094.82 69.5717 1094.9 69.5698C1096.79 69.525 1098.39 69.4963 1099.5 68.4097C1100.74 67.2009 1101.26 65.7688 1101.26 62.8977V20.0587C1101.26 17.1876 1100.64 15.1854 1099.4 14.0521C1098.29 12.8933 1096.97 11.6964 1095.08 11.6484C1095 11.6464 1039.43 11.3331 1039.35 11.3331C1037.34 11.3331 1035.72 11.9375 1034.48 13.1464C1033.32 14.2797 1032.74 16.2819 1032.74 19.1529V61.992ZM1020 19.9462C1020 13.5241 1021.66 8.61315 1024.98 5.21322C1028.3 1.73774 1033.09 0 1039.35 0C1039.43 0 1095 0.322961 1095.08 0.323568C1101.22 0.368881 1105.74 2.68941 1109.02 6.11897C1112.34 9.5189 1114 14.4299 1114 20.852V62.1044C1114 68.5265 1112.34 73.4753 1109.02 76.9508C1105.74 80.306 1101.03 79.7158 1094.9 79.7599C1094.82 79.7605 1039.43 80 1039.35 80C1033.09 80 1028.3 79.445 1024.98 76.045C1021.66 72.5696 1020 67.6208 1020 61.1987V19.9462Z" fill="white"/>
</g>
<path fill-rule="evenodd" clip-rule="evenodd" d="M1114.02 59.8783V20.7218C1114.02 14.2997 1112.37 9.38869 1109.06 5.98876C1105.79 2.5592 1101.28 0.23867 1095.16 0.193356C1095.12 0.193014 1077.41 0.0897613 1062 0L1071.89 11.3853C1084.11 11.4546 1095.13 11.5173 1095.16 11.5182C1097.05 11.5662 1098.36 12.7631 1099.47 13.9219C1100.7 15.0552 1101.32 17.0574 1101.32 19.9284V45.2535L1114.02 59.8783Z" fill="#FFAF31"/>
<g opacity="0.1">
<path d="M1134.74 61.992C1134.74 64.863 1135.32 66.903 1136.48 68.1119C1137.72 69.2452 1139.34 69.8119 1141.35 69.8119C1141.43 69.8119 1196.82 69.5717 1196.9 69.5698C1198.79 69.525 1200.39 69.4963 1201.5 68.4097C1202.74 67.2009 1203.26 65.7688 1203.26 62.8977V20.0587C1203.26 17.1876 1202.64 15.1854 1201.4 14.0521C1200.29 12.8933 1198.97 11.6964 1197.08 11.6484C1197 11.6464 1141.43 11.3331 1141.35 11.3331C1139.34 11.3331 1137.72 11.9375 1136.48 13.1464C1135.32 14.2797 1134.74 16.2819 1134.74 19.1529V61.992ZM1122 19.9462C1122 13.5241 1123.66 8.61315 1126.98 5.21322C1130.3 1.73774 1135.09 0 1141.35 0C1141.43 0 1197 0.322961 1197.08 0.323568C1203.22 0.368881 1207.74 2.68941 1211.02 6.11897C1214.34 9.5189 1216 14.4299 1216 20.852V62.1044C1216 68.5265 1214.34 73.4753 1211.02 76.9508C1207.74 80.306 1203.03 79.7158 1196.9 79.7599C1196.82 79.7605 1141.43 80 1141.35 80C1135.09 80 1130.3 79.445 1126.98 76.045C1123.66 72.5696 1122 67.6208 1122 61.1987V19.9462Z" fill="white"/>
<path d="M1134.74 61.992C1134.74 64.863 1135.32 66.903 1136.48 68.1119C1137.72 69.2452 1139.34 69.8119 1141.35 69.8119C1141.43 69.8119 1196.82 69.5717 1196.9 69.5698C1198.79 69.525 1200.39 69.4963 1201.5 68.4097C1202.74 67.2009 1203.26 65.7688 1203.26 62.8977V20.0587C1203.26 17.1876 1202.64 15.1854 1201.4 14.0521C1200.29 12.8933 1198.97 11.6964 1197.08 11.6484C1197 11.6464 1141.43 11.3331 1141.35 11.3331C1139.34 11.3331 1137.72 11.9375 1136.48 13.1464C1135.32 14.2797 1134.74 16.2819 1134.74 19.1529V61.992ZM1122 19.9462C1122 13.5241 1123.66 8.61315 1126.98 5.21322C1130.3 1.73774 1135.09 0 1141.35 0C1141.43 0 1197 0.322961 1197.08 0.323568C1203.22 0.368881 1207.74 2.68941 1211.02 6.11897C1214.34 9.5189 1216 14.4299 1216 20.852V62.1044C1216 68.5265 1214.34 73.4753 1211.02 76.9508C1207.74 80.306 1203.03 79.7158 1196.9 79.7599C1196.82 79.7605 1141.43 80 1141.35 80C1135.09 80 1130.3 79.445 1126.98 76.045C1123.66 72.5696 1122 67.6208 1122 61.1987V19.9462Z" fill="white"/>
</g>
</svg>
