<svg width="939" height="156" viewBox="0 0 939 156" fill="none" xmlns="http://www.w3.org/2000/svg">
<path d="M21.7184 140.162H0V1.58376H68.5118V140.162H46.3985V21.3807H21.7184V140.162Z" fill="#FFAF31"/>
<path d="M116.244 1.58376C127.17 1.58376 135.265 4.48731 140.53 10.2944C145.926 16.1015 148.625 24.6142 148.625 35.8325V53.8477C148.625 65.066 145.926 73.5787 140.53 79.3858C135.265 85.1929 127.17 88.0964 116.244 88.0964H105.978V140.162H84.2592V1.58376H116.244ZM105.978 21.3807V68.2995H116.244C119.667 68.2995 122.299 67.3756 124.142 65.5279C125.985 63.6802 126.906 60.2487 126.906 55.2335V34.4467C126.906 29.4314 125.985 26 124.142 24.1523C122.299 22.3046 119.667 21.3807 116.244 21.3807H105.978Z" fill="#FFAF31"/>
<path d="M178.236 108.289C178.236 113.305 179.223 116.868 181.198 118.98C183.304 120.959 186.068 121.949 189.49 121.949C189.631 121.949 284.011 121.53 284.149 121.526C287.373 121.448 290.107 121.398 292 119.5C294.106 117.388 294.984 114.887 294.984 109.871V35.039C294.984 30.0238 293.931 26.5263 291.825 24.5467C289.932 22.5224 287.687 20.4316 284.464 20.3478C284.324 20.3442 189.632 19.7969 189.49 19.7969C186.068 19.7969 183.304 20.8528 181.198 22.9645C179.223 24.9442 178.236 28.4416 178.236 33.4568V108.289ZM156.518 34.8426C156.518 23.6243 159.348 15.0457 165.008 9.10659C170.668 3.03554 178.828 0 189.49 0C189.631 0 284.324 0.564158 284.464 0.565217C294.919 0.644372 302.627 4.69794 308.212 10.6888C313.872 16.6279 316.702 25.2065 316.702 36.4248V108.486C316.702 119.704 313.872 128.349 308.212 134.42C302.627 140.281 294.606 139.25 284.149 139.327C284.01 139.328 189.63 139.746 189.49 139.746C178.828 139.746 170.668 138.777 165.008 132.838C159.348 126.766 156.518 118.122 156.518 106.904V34.8426Z" fill="#FFAF31"/>
<path d="M320.27 120.366C321.454 120.498 322.705 120.563 324.021 120.563C325.337 120.563 326.588 120.563 327.772 120.563C331.195 120.563 334.09 119.706 336.46 117.99C338.961 116.274 340.211 112.711 340.211 107.299V1.58376H408.92V120.366H419.977V156H397.864V140.162H342.383V156H320.27V120.366ZM361.93 105.716C361.93 111.523 361.337 116.406 360.153 120.366H387.202V21.3807H361.93V105.716Z" fill="#FFAF31"/>
<path d="M498.907 140.162H476.991L473.24 115.02H446.585L442.834 140.162H422.892L445.006 1.58376H476.794L498.907 140.162ZM449.349 96.2132H470.278L459.814 26.132L449.349 96.2132Z" fill="#FFAF31"/>
<path d="M537.264 84.9289L530.551 97.599V140.162H508.833V1.58376H530.551V61.9645L559.378 1.58376H580.701L550.493 63.3502L580.701 140.162H558.39L537.264 84.9289Z" fill="#FFAF31"/>
<path d="M651.594 120.366H669.167V1.58376H691.083V140.162H590.585V1.58376H612.106V120.366H629.876V1.58376H651.594V120.366Z" fill="#FFAF31"/>
<path d="M728.57 59.9847H758.383V79.7817H728.57V120.366H766.083V140.162H706.852V1.58376H766.083V21.3807H728.57V59.9847Z" fill="#FFAF31"/>
<path d="M800.682 140.162H778.963V1.58376H800.682V60.9746L916.887 60.9747V1.58381H939V140.162H916.887V80.7716L800.682 80.7716V140.162Z" fill="#FFAF31"/>
</svg>
