<svg width="547" height="54" viewBox="0 0 547 54" fill="none" xmlns="http://www.w3.org/2000/svg">
<path d="M16.0763 52.3292C13.0466 52.3292 10.3242 51.6925 7.90921 50.4192C5.53813 49.1019 3.65004 47.1919 2.24495 44.6891C0.883775 42.1862 0.203186 39.1126 0.203186 35.4682V19.2658C0.203186 18.2998 0.510549 17.5094 1.12527 16.8947C1.78391 16.236 2.59622 15.9067 3.56222 15.9067C4.52822 15.9067 5.31858 16.236 5.93331 16.8947C6.59194 17.5094 6.92126 18.2998 6.92126 19.2658V35.4682C6.92126 37.9271 7.3823 39.9688 8.30439 41.5935C9.22648 43.1742 10.4779 44.3597 12.0586 45.1501C13.6393 45.8966 15.4176 46.2698 17.3935 46.2698C19.2816 46.2698 20.9502 45.8966 22.3992 45.1501C23.8921 44.4037 25.0776 43.3937 25.9558 42.1204C26.834 40.847 27.2731 39.42 27.2731 37.8393H31.4225C31.4225 40.5616 30.7419 43.0205 29.3807 45.216C28.0634 47.4114 26.2412 49.1458 23.914 50.4192C21.6308 51.6925 19.0182 52.3292 16.0763 52.3292ZM30.6321 51.9999C29.6661 51.9999 28.8538 51.6925 28.1952 51.0778C27.5804 50.4192 27.2731 49.6069 27.2731 48.6409V19.2658C27.2731 18.2559 27.5804 17.4435 28.1952 16.8288C28.8538 16.2141 29.6661 15.9067 30.6321 15.9067C31.642 15.9067 32.4543 16.2141 33.069 16.8288C33.6838 17.4435 33.9911 18.2559 33.9911 19.2658V48.6409C33.9911 49.6069 33.6838 50.4192 33.069 51.0778C32.4543 51.6925 31.642 51.9999 30.6321 51.9999Z" fill="#0F0F0F"/>
<path d="M47.7329 53.0537C46.5035 53.0537 45.4277 52.6146 44.5056 51.7364C43.6274 50.8144 43.1883 49.7386 43.1883 48.5091C43.1883 47.2358 43.6274 46.16 44.5056 45.2818C45.4277 44.3597 46.5035 43.8987 47.7329 43.8987C49.0063 43.8987 50.0821 44.3597 50.9602 45.2818C51.8384 46.16 52.2775 47.2358 52.2775 48.5091C52.2775 49.7386 51.8384 50.8144 50.9602 51.7364C50.0821 52.6146 49.0063 53.0537 47.7329 53.0537Z" fill="#0F0F0F"/>
<path d="M74.6237 52.2634C71.5501 52.2634 68.696 51.8023 66.0615 50.8802C63.4709 49.9142 61.451 48.7067 60.002 47.2577C59.3434 46.5552 59.058 45.7648 59.1458 44.8867C59.2776 43.9646 59.7166 43.2181 60.4631 42.6473C61.3413 41.9447 62.1975 41.6593 63.0318 41.7911C63.9099 41.8789 64.6564 42.2521 65.2711 42.9107C66.0176 43.745 67.2031 44.5354 68.8278 45.2818C70.4963 45.9844 72.3405 46.3356 74.3603 46.3356C76.907 46.3356 78.839 45.9185 80.1563 45.0842C81.5174 44.25 82.22 43.1742 82.2639 41.8569C82.3078 40.5397 81.6711 39.398 80.3539 38.432C79.0805 37.466 76.7314 36.6757 73.3065 36.0609C68.8717 35.1828 65.6444 33.8655 63.6245 32.1091C61.6486 30.3528 60.6607 28.2012 60.6607 25.6545C60.6607 23.4152 61.3193 21.571 62.6366 20.122C63.9539 18.6291 65.6444 17.5314 67.7081 16.8288C69.7718 16.0824 71.9233 15.7091 74.1627 15.7091C77.0607 15.7091 79.6294 16.1702 81.8687 17.0923C84.1081 18.0144 85.8864 19.2877 87.2037 20.9124C87.8184 21.6149 88.1038 22.3613 88.0599 23.1517C88.016 23.8982 87.6427 24.5348 86.9402 25.0618C86.2377 25.5447 85.4034 25.6984 84.4374 25.5228C83.4714 25.3472 82.6591 24.952 82.0004 24.3373C80.9027 23.2834 79.7172 22.5589 78.4438 22.1638C77.1705 21.7686 75.6995 21.571 74.031 21.571C72.099 21.571 70.4524 21.9003 69.0912 22.5589C67.7739 23.2176 67.1153 24.1836 67.1153 25.4569C67.1153 26.2473 67.3129 26.9718 67.7081 27.6304C68.1472 28.2451 68.9814 28.816 70.2109 29.3429C71.4403 29.8259 73.2406 30.3089 75.6117 30.7919C78.9049 31.4505 81.4955 32.2848 83.3836 33.2947C85.3156 34.3046 86.6987 35.4901 87.533 36.8513C88.3672 38.1686 88.7844 39.7054 88.7844 41.4618C88.7844 43.4816 88.2355 45.3038 87.1378 46.9284C86.084 48.553 84.5033 49.8484 82.3956 50.8144C80.3319 51.7804 77.7413 52.2634 74.6237 52.2634Z" fill="#0F0F0F"/>
<path d="M112.296 52.2634C109.09 52.2634 106.214 51.473 103.667 49.8923C101.121 48.2676 99.1009 46.0941 97.608 43.3718C96.159 40.6055 95.4345 37.488 95.4345 34.0192C95.4345 30.5504 96.2249 27.4328 97.8056 24.6666C99.4302 21.9003 101.604 19.7268 104.326 18.1461C107.092 16.5215 110.188 15.7091 113.613 15.7091C117.038 15.7091 120.111 16.5215 122.834 18.1461C125.556 19.7268 127.708 21.9003 129.288 24.6666C130.913 27.4328 131.725 30.5504 131.725 34.0192H129.157C129.157 37.488 128.41 40.6055 126.917 43.3718C125.468 46.0941 123.47 48.2676 120.924 49.8923C118.377 51.473 115.501 52.2634 112.296 52.2634ZM113.613 46.3356C115.852 46.3356 117.85 45.8087 119.606 44.7549C121.363 43.6572 122.746 42.1862 123.756 40.3421C124.766 38.454 125.271 36.3464 125.271 34.0192C125.271 31.6481 124.766 29.5405 123.756 27.6963C122.746 25.8082 121.363 24.3373 119.606 23.2834C117.85 22.1857 115.852 21.6369 113.613 21.6369C111.417 21.6369 109.42 22.1857 107.619 23.2834C105.863 24.3373 104.458 25.8082 103.404 27.6963C102.394 29.5405 101.889 31.6481 101.889 34.0192C101.889 36.3464 102.394 38.454 103.404 40.3421C104.458 42.1862 105.863 43.6572 107.619 44.7549C109.42 45.8087 111.417 46.3356 113.613 46.3356ZM128.366 52.0658C127.4 52.0658 126.588 51.7584 125.929 51.1437C125.315 50.485 125.007 49.6727 125.007 48.7067V38.6296L126.259 31.6481L131.725 34.0192V48.7067C131.725 49.6727 131.396 50.485 130.737 51.1437C130.123 51.7584 129.332 52.0658 128.366 52.0658Z" fill="#0F0F0F"/>
<path d="M145.61 51.9999C144.775 51.9999 144.029 51.6925 143.37 51.0778C142.712 50.4631 142.382 49.6508 142.382 48.6409V16.1702C142.382 13.0087 142.997 10.2644 144.226 7.93725C145.5 5.61008 147.256 3.80981 149.496 2.53645C151.735 1.21918 154.326 0.560547 157.267 0.560547C158.233 0.560547 159.024 0.845955 159.639 1.41677C160.297 1.98759 160.626 2.71208 160.626 3.59027C160.626 4.42454 160.297 5.14903 159.639 5.76376C159.024 6.33458 158.233 6.61998 157.267 6.61998C155.643 6.61998 154.216 6.99321 152.986 7.73966C151.757 8.48611 150.791 9.51798 150.088 10.8352C149.43 12.1525 149.1 13.7113 149.1 15.5115V48.6409C149.1 49.6508 148.793 50.4631 148.178 51.0778C147.564 51.6925 146.707 51.9999 145.61 51.9999ZM139.55 22.9541C138.628 22.9541 137.882 22.6907 137.311 22.1638C136.74 21.6369 136.455 20.9782 136.455 20.1879C136.455 19.3097 136.74 18.6071 137.311 18.0802C137.882 17.5533 138.628 17.2899 139.55 17.2899H155.818C156.741 17.2899 157.487 17.5533 158.058 18.0802C158.629 18.6071 158.914 19.3097 158.914 20.1879C158.914 20.9782 158.629 21.6369 158.058 22.1638C157.487 22.6907 156.741 22.9541 155.818 22.9541H139.55Z" fill="#0F0F0F"/>
<path d="M181.548 52.2634C177.904 52.2634 174.655 51.4949 171.801 49.9581C168.99 48.3774 166.773 46.2259 165.148 43.5035C163.568 40.7373 162.777 37.5758 162.777 34.0192C162.777 30.4186 163.524 27.2572 165.017 24.5348C166.554 21.7686 168.661 19.617 171.34 18.0802C174.018 16.4995 177.092 15.7091 180.56 15.7091C183.985 15.7091 186.927 16.4775 189.386 18.0144C191.845 19.5073 193.711 21.5929 194.985 24.2714C196.302 26.9059 196.96 29.9576 196.96 33.4264C196.96 34.2607 196.675 34.9632 196.104 35.534C195.533 36.0609 194.809 36.3244 193.931 36.3244H167.388V31.0553H193.733L191.033 32.8995C190.989 30.7041 190.55 28.7501 189.715 27.0377C188.881 25.2813 187.696 23.8982 186.159 22.8883C184.622 21.8783 182.756 21.3734 180.56 21.3734C178.058 21.3734 175.906 21.9223 174.106 23.02C172.349 24.1177 171.01 25.6326 170.088 27.5646C169.166 29.4526 168.705 31.6042 168.705 34.0192C168.705 36.4342 169.254 38.5857 170.352 40.4738C171.449 42.3619 172.964 43.8548 174.896 44.9525C176.828 46.0502 179.046 46.5991 181.548 46.5991C182.91 46.5991 184.293 46.3576 185.698 45.8746C187.147 45.3477 188.31 44.7549 189.189 44.0963C189.847 43.6133 190.55 43.3718 191.296 43.3718C192.087 43.3279 192.767 43.5474 193.338 44.0304C194.084 44.6891 194.48 45.4136 194.524 46.2039C194.567 46.9943 194.216 47.6749 193.47 48.2457C191.977 49.4312 190.111 50.3972 187.871 51.1437C185.676 51.8901 183.568 52.2634 181.548 52.2634Z" fill="#0F0F0F"/>
<path d="M239.236 19.9999V1.6699H241.368L248.596 17.9459H247.816L255.044 1.6699H257.15V19.9999H254.94V4.8939H255.746L248.96 19.9999H247.426L240.64 4.8939H241.446V19.9999H239.236Z" fill="#0F0F0F"/>
<path d="M267.454 20.2339C265.374 20.2339 263.728 19.6359 262.514 18.4399C261.318 17.2439 260.72 15.5972 260.72 13.4999C260.72 12.1132 260.981 10.9172 261.501 9.9119C262.038 8.88923 262.775 8.10057 263.711 7.5459C264.647 6.9739 265.739 6.6879 266.987 6.6879C268.183 6.6879 269.197 6.9479 270.029 7.4679C270.861 7.97057 271.493 8.6899 271.927 9.6259C272.36 10.5619 272.577 11.6712 272.577 12.9539V13.7339H262.566V12.3299H270.965L270.522 12.6679C270.522 11.3159 270.219 10.2672 269.613 9.5219C269.023 8.77657 268.148 8.4039 266.987 8.4039C265.721 8.4039 264.742 8.8459 264.048 9.7299C263.355 10.5966 263.009 11.7839 263.009 13.2919V13.5259C263.009 15.1206 263.398 16.3252 264.178 17.1399C264.976 17.9546 266.076 18.3619 267.48 18.3619C268.26 18.3619 268.988 18.2492 269.664 18.0239C270.34 17.7986 270.991 17.4259 271.615 16.9059L272.395 18.5439C271.805 19.0812 271.069 19.4972 270.185 19.7919C269.318 20.0866 268.408 20.2339 267.454 20.2339Z" fill="#0F0F0F"/>
<path d="M274.518 23.3799V18.1539H275.948C276.537 17.2699 276.962 16.2299 277.222 15.0339C277.499 13.8379 277.638 12.4166 277.638 10.7699V6.9219H287.024V18.1539H289.104V23.3799H287.076V19.9999H276.572V23.3799H274.518ZM278.184 18.1799H284.814V8.7419H279.718V11.1859C279.718 12.5032 279.588 13.7859 279.328 15.0339C279.068 16.2646 278.686 17.3132 278.184 18.1799Z" fill="#0F0F0F"/>
<path d="M291.84 19.9999V6.9219H293.998V17.7639H293.296L301.408 6.9219H303.384V19.9999H301.226V9.1319H301.954L293.816 19.9999H291.84Z" fill="#0F0F0F"/>
<path d="M312.5 20.2339C311.356 20.2339 310.351 19.9652 309.484 19.4279C308.618 18.8906 307.942 18.1106 307.456 17.0879C306.971 16.0652 306.728 14.8519 306.728 13.4479C306.728 12.0439 306.971 10.8392 307.456 9.8339C307.942 8.81123 308.618 8.03123 309.484 7.4939C310.351 6.95657 311.356 6.6879 312.5 6.6879C313.662 6.6879 314.667 6.98257 315.516 7.5719C316.383 8.1439 316.955 8.93257 317.232 9.9379H316.92L317.206 6.9219H319.494C319.442 7.4419 319.39 7.9619 319.338 8.4819C319.304 9.0019 319.286 9.51323 319.286 10.0159V19.9999H316.92V17.0099H317.206C316.929 17.9979 316.357 18.7866 315.49 19.3759C314.641 19.9479 313.644 20.2339 312.5 20.2339ZM313.046 18.3619C314.225 18.3619 315.17 17.9459 315.88 17.1139C316.591 16.2819 316.946 15.0599 316.946 13.4479C316.946 11.8359 316.591 10.6226 315.88 9.8079C315.17 8.99323 314.225 8.5859 313.046 8.5859C311.868 8.5859 310.914 8.99323 310.186 9.8079C309.476 10.6226 309.12 11.8359 309.12 13.4479C309.12 15.0599 309.476 16.2819 310.186 17.1139C310.897 17.9459 311.85 18.3619 313.046 18.3619Z" fill="#0F0F0F"/>
<path d="M323.27 13.8379V11.9139H330.784V13.8379H323.27Z" fill="#0F0F0F"/>
<path d="M340.724 20.2339C339.424 20.2339 338.297 19.9652 337.344 19.4279C336.391 18.8732 335.645 18.0846 335.108 17.0619C334.588 16.0219 334.328 14.7912 334.328 13.3699C334.328 11.9659 334.597 10.7699 335.134 9.7819C335.671 8.77657 336.417 8.0139 337.37 7.4939C338.323 6.95657 339.441 6.6879 340.724 6.6879C341.573 6.6879 342.397 6.83523 343.194 7.1299C343.991 7.40723 344.641 7.81457 345.144 8.3519L344.338 10.0159C343.835 9.53057 343.281 9.17523 342.674 8.9499C342.067 8.70723 341.469 8.5859 340.88 8.5859C339.597 8.5859 338.592 9.0019 337.864 9.8339C337.136 10.6486 336.772 11.8359 336.772 13.3959C336.772 14.9732 337.136 16.1866 337.864 17.0359C338.592 17.8852 339.597 18.3099 340.88 18.3099C341.452 18.3099 342.041 18.1972 342.648 17.9719C343.255 17.7466 343.818 17.3912 344.338 16.9059L345.144 18.5439C344.624 19.0986 343.957 19.5232 343.142 19.8179C342.345 20.0952 341.539 20.2339 340.724 20.2339Z" fill="#0F0F0F"/>
<path d="M354.265 20.2339C352.185 20.2339 350.538 19.6359 349.325 18.4399C348.129 17.2439 347.531 15.5972 347.531 13.4999C347.531 12.1132 347.791 10.9172 348.311 9.9119C348.848 8.88923 349.585 8.10057 350.521 7.5459C351.457 6.9739 352.549 6.6879 353.797 6.6879C354.993 6.6879 356.007 6.9479 356.839 7.4679C357.671 7.97057 358.304 8.6899 358.737 9.6259C359.17 10.5619 359.387 11.6712 359.387 12.9539V13.7339H349.377V12.3299H357.775L357.333 12.6679C357.333 11.3159 357.03 10.2672 356.423 9.5219C355.834 8.77657 354.958 8.4039 353.797 8.4039C352.532 8.4039 351.552 8.8459 350.859 9.7299C350.166 10.5966 349.819 11.7839 349.819 13.2919V13.5259C349.819 15.1206 350.209 16.3252 350.989 17.1399C351.786 17.9546 352.887 18.3619 354.291 18.3619C355.071 18.3619 355.799 18.2492 356.475 18.0239C357.151 17.7986 357.801 17.4259 358.425 16.9059L359.205 18.5439C358.616 19.0812 357.879 19.4972 356.995 19.7919C356.128 20.0866 355.218 20.2339 354.265 20.2339Z" fill="#0F0F0F"/>
<path d="M362.758 25.6159V10.0159C362.758 9.51323 362.741 9.0019 362.706 8.4819C362.672 7.9619 362.62 7.4419 362.55 6.9219H364.838L365.124 9.9379H364.838C365.098 8.93257 365.653 8.1439 366.502 7.5719C367.352 6.98257 368.366 6.6879 369.544 6.6879C370.706 6.6879 371.72 6.95657 372.586 7.4939C373.453 8.03123 374.12 8.81123 374.588 9.8339C375.074 10.8392 375.316 12.0439 375.316 13.4479C375.316 14.8519 375.074 16.0652 374.588 17.0879C374.12 18.1106 373.453 18.8906 372.586 19.4279C371.72 19.9652 370.706 20.2339 369.544 20.2339C368.383 20.2339 367.378 19.9479 366.528 19.3759C365.696 18.7866 365.133 17.9979 364.838 17.0099H365.124V25.6159H362.758ZM368.998 18.3619C370.194 18.3619 371.148 17.9459 371.858 17.1139C372.569 16.2819 372.924 15.0599 372.924 13.4479C372.924 11.8359 372.569 10.6226 371.858 9.8079C371.148 8.99323 370.194 8.5859 368.998 8.5859C367.802 8.5859 366.849 8.99323 366.138 9.8079C365.445 10.6226 365.098 11.8359 365.098 13.4479C365.098 15.0599 365.445 16.2819 366.138 17.1139C366.849 17.9459 367.802 18.3619 368.998 18.3619Z" fill="#0F0F0F"/>
<path d="M378.702 19.9999V6.9219H385.15C386.692 6.9219 387.836 7.21657 388.582 7.8059C389.344 8.39523 389.726 9.24457 389.726 10.3539C389.726 11.1859 389.44 11.8879 388.868 12.4599C388.296 13.0146 387.55 13.3526 386.632 13.4739V13.1359C387.724 13.1706 388.582 13.4912 389.206 14.0979C389.847 14.6872 390.168 15.4499 390.168 16.3859C390.168 17.4952 389.743 18.3792 388.894 19.0379C388.062 19.6792 386.892 19.9999 385.384 19.9999H378.702ZM380.938 18.4399H385.228C386.112 18.4399 386.788 18.2579 387.256 17.8939C387.724 17.5126 387.958 16.9752 387.958 16.2819C387.958 15.5712 387.724 15.0339 387.256 14.6699C386.788 14.3059 386.112 14.1239 385.228 14.1239H380.938V18.4399ZM380.938 12.5639H384.942C385.756 12.5639 386.389 12.3819 386.84 12.0179C387.29 11.6539 387.516 11.1512 387.516 10.5099C387.516 9.85124 387.29 9.34857 386.84 9.0019C386.389 8.65523 385.756 8.4819 384.942 8.4819H380.938V12.5639Z" fill="#0F0F0F"/>
<path d="M393.352 19.9999V6.9219H395.51V17.7639H394.808L402.92 6.9219H404.896V19.9999H402.738V9.1319H403.466L395.328 19.9999H393.352Z" fill="#0F0F0F"/>
<path d="M414.636 20.2339C413.336 20.2339 412.209 19.9652 411.256 19.4279C410.303 18.8732 409.557 18.0846 409.02 17.0619C408.5 16.0219 408.24 14.7912 408.24 13.3699C408.24 11.9659 408.509 10.7699 409.046 9.7819C409.583 8.77657 410.329 8.0139 411.282 7.4939C412.235 6.95657 413.353 6.6879 414.636 6.6879C415.485 6.6879 416.309 6.83523 417.106 7.1299C417.903 7.40723 418.553 7.81457 419.056 8.3519L418.25 10.0159C417.747 9.53057 417.193 9.17523 416.586 8.9499C415.979 8.70723 415.381 8.5859 414.792 8.5859C413.509 8.5859 412.504 9.0019 411.776 9.8339C411.048 10.6486 410.684 11.8359 410.684 13.3959C410.684 14.9732 411.048 16.1866 411.776 17.0359C412.504 17.8852 413.509 18.3099 414.792 18.3099C415.364 18.3099 415.953 18.1972 416.56 17.9719C417.167 17.7466 417.73 17.3912 418.25 16.9059L419.056 18.5439C418.536 19.0986 417.869 19.5232 417.054 19.8179C416.257 20.0952 415.451 20.2339 414.636 20.2339Z" fill="#0F0F0F"/>
<path d="M239.028 52.9999V39.9219H250.546V52.9999H248.206V41.7679H241.368V52.9999H239.028Z" fill="#0F0F0F"/>
<path d="M260.182 53.2339C258.9 53.2339 257.79 52.9652 256.854 52.4279C255.918 51.8732 255.19 51.0932 254.67 50.0879C254.15 49.0652 253.89 47.8519 253.89 46.4479C253.89 45.0612 254.15 43.8652 254.67 42.8599C255.19 41.8372 255.918 41.0572 256.854 40.5199C257.79 39.9652 258.9 39.6879 260.182 39.6879C261.465 39.6879 262.574 39.9652 263.51 40.5199C264.464 41.0572 265.192 41.8372 265.694 42.8599C266.214 43.8652 266.474 45.0612 266.474 46.4479C266.474 47.8519 266.214 49.0652 265.694 50.0879C265.192 51.0932 264.464 51.8732 263.51 52.4279C262.574 52.9652 261.465 53.2339 260.182 53.2339ZM260.182 51.3619C261.361 51.3619 262.306 50.9459 263.016 50.1139C263.727 49.2819 264.082 48.0599 264.082 46.4479C264.082 44.8359 263.727 43.6226 263.016 42.8079C262.306 41.9932 261.361 41.5859 260.182 41.5859C258.986 41.5859 258.033 41.9932 257.322 42.8079C256.629 43.6226 256.282 44.8359 256.282 46.4479C256.282 48.0599 256.629 49.2819 257.322 50.1139C258.033 50.9459 258.986 51.3619 260.182 51.3619Z" fill="#0F0F0F"/>
<path d="M276.084 53.3119L275.252 51.4659C275.858 51.1886 276.361 50.8592 276.76 50.4779C277.176 50.0792 277.496 49.5766 277.722 48.9699C277.964 48.3632 278.138 47.6092 278.242 46.7079C278.346 45.8066 278.398 44.7146 278.398 43.4319V39.9219H288.044V52.9999H285.704V41.7679H280.582V43.4839C280.582 45.4946 280.426 47.1586 280.114 48.4759C279.819 49.7759 279.342 50.8072 278.684 51.5699C278.042 52.3326 277.176 52.9132 276.084 53.3119Z" fill="#0F0F0F"/>
<path d="M292.094 52.9999V39.9219H294.252V50.7639H293.55L301.662 39.9219H303.638V52.9999H301.48V42.1319H302.208L294.07 52.9999H292.094Z" fill="#0F0F0F"/>
<path d="M316.082 52.9999V47.8259C315.58 48.1032 315.042 48.3199 314.47 48.4759C313.898 48.6146 313.292 48.6839 312.65 48.6839C310.778 48.6839 309.392 48.2506 308.49 47.3839C307.606 46.4999 307.164 45.1739 307.164 43.4059V39.9219H309.504V43.2239C309.504 44.4546 309.782 45.3472 310.336 45.9019C310.908 46.4392 311.792 46.7079 312.988 46.7079C313.595 46.7079 314.141 46.6472 314.626 46.5259C315.112 46.3872 315.58 46.1706 316.03 45.8759V39.9219H318.396V52.9999H316.082Z" fill="#0F0F0F"/>
<path d="M322.462 52.9999V39.9219H324.802V45.3299H331.718V39.9219H334.058V52.9999H331.718V47.2019H324.802V52.9999H322.462Z" fill="#0F0F0F"/>
<path d="M343.692 53.2339C342.41 53.2339 341.3 52.9652 340.364 52.4279C339.428 51.8732 338.7 51.0932 338.18 50.0879C337.66 49.0652 337.4 47.8519 337.4 46.4479C337.4 45.0612 337.66 43.8652 338.18 42.8599C338.7 41.8372 339.428 41.0572 340.364 40.5199C341.3 39.9652 342.41 39.6879 343.692 39.6879C344.975 39.6879 346.084 39.9652 347.02 40.5199C347.974 41.0572 348.702 41.8372 349.204 42.8599C349.724 43.8652 349.984 45.0612 349.984 46.4479C349.984 47.8519 349.724 49.0652 349.204 50.0879C348.702 51.0932 347.974 51.8732 347.02 52.4279C346.084 52.9652 344.975 53.2339 343.692 53.2339ZM343.692 51.3619C344.871 51.3619 345.816 50.9459 346.526 50.1139C347.237 49.2819 347.592 48.0599 347.592 46.4479C347.592 44.8359 347.237 43.6226 346.526 42.8079C345.816 41.9932 344.871 41.5859 343.692 41.5859C342.496 41.5859 341.543 41.9932 340.832 42.8079C340.139 43.6226 339.792 44.8359 339.792 46.4479C339.792 48.0599 340.139 49.2819 340.832 50.1139C341.543 50.9459 342.496 51.3619 343.692 51.3619Z" fill="#0F0F0F"/>
<path d="M353.362 52.9999V39.9219H355.52V50.7639H354.818L362.93 39.9219H364.906V52.9999H362.748V42.1319H363.476L355.338 52.9999H353.362ZM359.134 38.7259C358.389 38.7259 357.704 38.5959 357.08 38.3359C356.456 38.0759 355.919 37.7032 355.468 37.2179C355.035 36.7152 354.705 36.0912 354.48 35.3459L355.832 34.8519C356.144 35.6839 356.569 36.2992 357.106 36.6979C357.643 37.0792 358.319 37.2699 359.134 37.2699C359.966 37.2699 360.651 37.0879 361.188 36.7239C361.725 36.3599 362.193 35.7446 362.592 34.8779L363.866 35.3459C363.433 36.5246 362.8 37.3826 361.968 37.9199C361.153 38.4572 360.209 38.7259 359.134 38.7259Z" fill="#0F0F0F"/>
<path d="M381.501 53.2339C379.543 53.2339 377.991 52.6186 376.847 51.3879C375.703 50.1572 375.131 48.3546 375.131 45.9799V43.7179C375.131 41.2912 375.643 39.3326 376.665 37.8419C377.688 36.3512 379.274 35.3459 381.423 34.8259L386.207 33.6299L386.909 35.5539L381.605 36.8279C380.652 37.0532 379.863 37.4606 379.239 38.0499C378.615 38.6392 378.147 39.3326 377.835 40.1299C377.541 40.9272 377.393 41.7766 377.393 42.6779V43.7959H377.029C377.237 43.0159 377.567 42.3399 378.017 41.7679C378.485 41.1959 379.066 40.7626 379.759 40.4679C380.453 40.1559 381.215 39.9999 382.047 39.9999C383.174 39.9999 384.162 40.2599 385.011 40.7799C385.861 41.2999 386.519 42.0539 386.987 43.0419C387.473 44.0126 387.715 45.1739 387.715 46.5259C387.715 47.9126 387.455 49.1086 386.935 50.1139C386.433 51.1192 385.713 51.8906 384.777 52.4279C383.841 52.9652 382.749 53.2339 381.501 53.2339ZM381.423 51.3619C382.637 51.3619 383.59 50.9632 384.283 50.1659C384.994 49.3686 385.349 48.1812 385.349 46.6039C385.349 45.0612 384.994 43.8826 384.283 43.0679C383.59 42.2532 382.637 41.8459 381.423 41.8459C380.21 41.8459 379.248 42.2446 378.537 43.0419C377.844 43.8392 377.497 44.9746 377.497 46.4479C377.497 48.0946 377.844 49.3252 378.537 50.1399C379.248 50.9546 380.21 51.3619 381.423 51.3619Z" fill="#0F0F0F"/>
<path d="M397.099 53.2339C395.019 53.2339 393.372 52.6359 392.159 51.4399C390.963 50.2439 390.365 48.5972 390.365 46.4999C390.365 45.1132 390.625 43.9172 391.145 42.9119C391.682 41.8892 392.419 41.1006 393.355 40.5459C394.291 39.9739 395.383 39.6879 396.631 39.6879C397.827 39.6879 398.841 39.9479 399.673 40.4679C400.505 40.9706 401.138 41.6899 401.571 42.6259C402.004 43.5619 402.221 44.6712 402.221 45.9539V46.7339H392.211V45.3299H400.609L400.167 45.6679C400.167 44.3159 399.864 43.2672 399.257 42.5219C398.668 41.7766 397.792 41.4039 396.631 41.4039C395.366 41.4039 394.386 41.8459 393.693 42.7299C393 43.5966 392.653 44.7839 392.653 46.2919V46.5259C392.653 48.1206 393.043 49.3252 393.823 50.1399C394.62 50.9546 395.721 51.3619 397.125 51.3619C397.905 51.3619 398.633 51.2492 399.309 51.0239C399.985 50.7986 400.635 50.4259 401.259 49.9059L402.039 51.5439C401.45 52.0812 400.713 52.4972 399.829 52.7919C398.962 53.0866 398.052 53.2339 397.099 53.2339Z" fill="#0F0F0F"/>
<path d="M409.96 53.2339C408.816 53.2339 407.75 53.0866 406.762 52.7919C405.774 52.4972 404.96 52.0812 404.318 51.5439L405.098 49.9059C405.74 50.4259 406.468 50.8159 407.282 51.0759C408.097 51.3359 408.981 51.4659 409.934 51.4659C411.182 51.4659 412.084 51.2839 412.638 50.9199C413.21 50.5386 413.496 49.9926 413.496 49.2819C413.496 48.6059 413.262 48.0946 412.794 47.7479C412.326 47.4012 411.642 47.2279 410.74 47.2279H407.568V45.5119H410.454C411.269 45.5119 411.902 45.3386 412.352 44.9919C412.82 44.6279 413.054 44.1339 413.054 43.5099C413.054 42.8686 412.794 42.3659 412.274 42.0019C411.754 41.6206 410.957 41.4299 409.882 41.4299C408.981 41.4299 408.158 41.5512 407.412 41.7939C406.667 42.0192 405.956 42.3659 405.28 42.8339L404.526 41.2999C405.237 40.7452 406.069 40.3379 407.022 40.0779C407.976 39.8179 409.016 39.6879 410.142 39.6879C411.789 39.6879 413.046 40.0086 413.912 40.6499C414.796 41.2739 415.238 42.1666 415.238 43.3279C415.238 44.1426 414.961 44.8446 414.406 45.4339C413.852 46.0059 413.115 46.3526 412.196 46.4739V46.1359C413.236 46.1879 414.077 46.5086 414.718 47.0979C415.36 47.6699 415.68 48.4326 415.68 49.3859C415.68 50.5472 415.195 51.4832 414.224 52.1939C413.254 52.8872 411.832 53.2339 409.96 53.2339Z" fill="#0F0F0F"/>
<path d="M424.434 53.2339C423.152 53.2339 422.042 52.9652 421.106 52.4279C420.17 51.8732 419.442 51.0932 418.922 50.0879C418.402 49.0652 418.142 47.8519 418.142 46.4479C418.142 45.0612 418.402 43.8652 418.922 42.8599C419.442 41.8372 420.17 41.0572 421.106 40.5199C422.042 39.9652 423.152 39.6879 424.434 39.6879C425.717 39.6879 426.826 39.9652 427.762 40.5199C428.716 41.0572 429.444 41.8372 429.946 42.8599C430.466 43.8652 430.726 45.0612 430.726 46.4479C430.726 47.8519 430.466 49.0652 429.946 50.0879C429.444 51.0932 428.716 51.8732 427.762 52.4279C426.826 52.9652 425.717 53.2339 424.434 53.2339ZM424.434 51.3619C425.613 51.3619 426.558 50.9459 427.268 50.1139C427.979 49.2819 428.334 48.0599 428.334 46.4479C428.334 44.8359 427.979 43.6226 427.268 42.8079C426.558 41.9932 425.613 41.5859 424.434 41.5859C423.238 41.5859 422.285 41.9932 421.574 42.8079C420.881 43.6226 420.534 44.8359 420.534 46.4479C420.534 48.0599 420.881 49.2819 421.574 50.1139C422.285 50.9459 423.238 51.3619 424.434 51.3619Z" fill="#0F0F0F"/>
<path d="M434.104 52.9999V39.9219H445.622V52.9999H443.282V41.7679H436.444V52.9999H434.104Z" fill="#0F0F0F"/>
<path d="M454.739 53.2339C453.595 53.2339 452.589 52.9652 451.723 52.4279C450.856 51.8906 450.18 51.1106 449.695 50.0879C449.209 49.0652 448.967 47.8519 448.967 46.4479C448.967 45.0439 449.209 43.8392 449.695 42.8339C450.18 41.8112 450.856 41.0312 451.723 40.4939C452.589 39.9566 453.595 39.6879 454.739 39.6879C455.9 39.6879 456.905 39.9826 457.755 40.5719C458.621 41.1439 459.193 41.9326 459.471 42.9379H459.159L459.445 39.9219H461.733C461.681 40.4419 461.629 40.9619 461.577 41.4819C461.542 42.0019 461.525 42.5132 461.525 43.0159V52.9999H459.159V50.0099H459.445C459.167 50.9979 458.595 51.7866 457.729 52.3759C456.879 52.9479 455.883 53.2339 454.739 53.2339ZM455.285 51.3619C456.463 51.3619 457.408 50.9459 458.119 50.1139C458.829 49.2819 459.185 48.0599 459.185 46.4479C459.185 44.8359 458.829 43.6226 458.119 42.8079C457.408 41.9932 456.463 41.5859 455.285 41.5859C454.106 41.5859 453.153 41.9932 452.425 42.8079C451.714 43.6226 451.359 44.8359 451.359 46.4479C451.359 48.0599 451.714 49.2819 452.425 50.1139C453.135 50.9459 454.089 51.3619 455.285 51.3619Z" fill="#0F0F0F"/>
<path d="M471.384 53.2339C470.084 53.2339 468.957 52.9652 468.004 52.4279C467.051 51.8732 466.305 51.0846 465.768 50.0619C465.248 49.0219 464.988 47.7912 464.988 46.3699C464.988 44.9659 465.257 43.7699 465.794 42.7819C466.331 41.7766 467.077 41.0139 468.03 40.4939C468.983 39.9566 470.101 39.6879 471.384 39.6879C472.233 39.6879 473.057 39.8352 473.854 40.1299C474.651 40.4072 475.301 40.8146 475.804 41.3519L474.998 43.0159C474.495 42.5306 473.941 42.1752 473.334 41.9499C472.727 41.7072 472.129 41.5859 471.54 41.5859C470.257 41.5859 469.252 42.0019 468.524 42.8339C467.796 43.6486 467.432 44.8359 467.432 46.3959C467.432 47.9732 467.796 49.1866 468.524 50.0359C469.252 50.8852 470.257 51.3099 471.54 51.3099C472.112 51.3099 472.701 51.1972 473.308 50.9719C473.915 50.7466 474.478 50.3912 474.998 49.9059L475.804 51.5439C475.284 52.0986 474.617 52.5232 473.802 52.8179C473.005 53.0952 472.199 53.2339 471.384 53.2339Z" fill="#0F0F0F"/>
<path d="M478.893 52.9999V39.9219H481.233V45.3299H488.149V39.9219H490.489V52.9999H488.149V47.2019H481.233V52.9999H478.893Z" fill="#0F0F0F"/>
<path d="M500.124 53.2339C498.841 53.2339 497.732 52.9652 496.796 52.4279C495.86 51.8732 495.132 51.0932 494.612 50.0879C494.092 49.0652 493.832 47.8519 493.832 46.4479C493.832 45.0612 494.092 43.8652 494.612 42.8599C495.132 41.8372 495.86 41.0572 496.796 40.5199C497.732 39.9652 498.841 39.6879 500.124 39.6879C501.407 39.6879 502.516 39.9652 503.452 40.5199C504.405 41.0572 505.133 41.8372 505.636 42.8599C506.156 43.8652 506.416 45.0612 506.416 46.4479C506.416 47.8519 506.156 49.0652 505.636 50.0879C505.133 51.0932 504.405 51.8732 503.452 52.4279C502.516 52.9652 501.407 53.2339 500.124 53.2339ZM500.124 51.3619C501.303 51.3619 502.247 50.9459 502.958 50.1139C503.668 49.2819 504.024 48.0599 504.024 46.4479C504.024 44.8359 503.668 43.6226 502.958 42.8079C502.247 41.9932 501.303 41.5859 500.124 41.5859C498.928 41.5859 497.974 41.9932 497.264 42.8079C496.57 43.6226 496.224 44.8359 496.224 46.4479C496.224 48.0599 496.57 49.2819 497.264 50.1139C497.974 50.9459 498.928 51.3619 500.124 51.3619Z" fill="#0F0F0F"/>
<path d="M515.488 53.2339C514.188 53.2339 513.061 52.9652 512.108 52.4279C511.154 51.8732 510.409 51.0846 509.872 50.0619C509.352 49.0219 509.092 47.7912 509.092 46.3699C509.092 44.9659 509.36 43.7699 509.898 42.7819C510.435 41.7766 511.18 41.0139 512.134 40.4939C513.087 39.9566 514.205 39.6879 515.488 39.6879C516.337 39.6879 517.16 39.8352 517.958 40.1299C518.755 40.4072 519.405 40.8146 519.908 41.3519L519.102 43.0159C518.599 42.5306 518.044 42.1752 517.438 41.9499C516.831 41.7072 516.233 41.5859 515.644 41.5859C514.361 41.5859 513.356 42.0019 512.628 42.8339C511.9 43.6486 511.536 44.8359 511.536 46.3959C511.536 47.9732 511.9 49.1866 512.628 50.0359C513.356 50.8852 514.361 51.3099 515.644 51.3099C516.216 51.3099 516.805 51.1972 517.412 50.9719C518.018 50.7466 518.582 50.3912 519.102 49.9059L519.908 51.5439C519.388 52.0986 518.72 52.5232 517.906 52.8179C517.108 53.0952 516.302 53.2339 515.488 53.2339Z" fill="#0F0F0F"/>
<path d="M525.805 52.9999V41.8199H521.099V39.9219H532.851V41.8199H528.145V52.9999H525.805Z" fill="#0F0F0F"/>
<path d="M535.006 52.9999V39.9219H537.164V50.7639H536.462L544.574 39.9219H546.55V52.9999H544.393V42.1319H545.12L536.982 52.9999H535.006Z" fill="#0F0F0F"/>
</svg>
