<svg width="567" height="735" viewBox="0 0 567 735" fill="none" xmlns="http://www.w3.org/2000/svg">
<path d="M473.03 269.303C473.03 269.303 521.695 154.956 506.976 138.811C492.257 122.666 464.521 172.803 459.507 177.724C459.507 177.724 447.824 41.9885 427.77 41.6205C407.669 41.2525 414.155 115.491 414.155 115.491C414.155 115.491 400.54 19.0362 380.439 19.7721C360.339 20.5081 374.966 118.021 374.966 118.021C374.966 118.021 359.281 46.6801 341.71 48.106C324.139 49.5319 337.386 128.416 337.386 128.416C337.386 128.416 324.461 75.014 305.097 78.2338C285.732 81.4535 312.272 152.472 312.272 152.472L319.816 269.349" fill="#FFCB44"/>
<path d="M298.104 299.891L343.733 682.766L567 732.442L484.988 269.303C480.664 254.63 405.138 257.344 380.668 258.172L331.82 259.828C298.058 257.436 297.644 293.543 298.058 299.891H298.104Z" fill="#0E0E0E"/>
<path d="M381.089 199.25C381.089 199.25 395.21 158.313 432.559 156.336" stroke="#0E0E0E" stroke-width="5" stroke-linecap="round" stroke-linejoin="round"/>
<path d="M244.56 288.897L252.104 172.02C252.104 172.02 278.644 101.047 259.279 97.7816C239.915 94.5158 226.989 147.964 226.989 147.964C226.989 147.964 240.237 69.0797 222.666 67.6538C205.095 66.2279 189.41 137.569 189.41 137.569C189.41 137.569 203.991 40.0559 183.937 39.3199C163.836 38.584 150.221 135.039 150.221 135.039C150.221 135.039 156.661 60.8003 136.606 61.1683C116.506 61.5363 104.869 197.272 104.869 197.272C99.809 192.35 72.0731 142.214 57.4002 158.359C42.6813 174.504 91.3457 288.851 91.3457 288.851" fill="#FFCB44"/>
<path d="M133.434 200.216C133.434 200.216 188.813 190.741 214.388 232" stroke="#0E0E0E" stroke-width="5" stroke-linecap="round" stroke-linejoin="round"/>
<path d="M0 699.095C0 699.095 23.9182 385.536 70.1907 293.635C88.4054 257.436 114.439 259.736 136.196 255.55C155.376 251.87 200.085 260.702 200.085 260.702C215.862 261.99 251.877 269.303 251.877 293.497L197.233 734.512L0.0460064 699.095H0Z" fill="#0E0E0E"/>
<path d="M336.922 3.25891C318.523 -5.48044 294.513 3.90285 274.734 24.8773C254.082 7.49058 230.716 1.23507 213.743 11.0323C188.353 25.7052 186.835 70.5978 210.339 111.305C225.15 136.971 246.354 154.818 266.409 160.843C268.157 161.441 269.951 161.901 271.791 162.223C271.791 162.223 271.79 162.223 271.836 162.223C272.71 162.361 273.584 162.499 274.458 162.591C283.29 163.833 291.661 162.637 298.882 158.497C300.584 157.531 302.148 156.381 303.62 155.185C320.455 145.618 336.784 127.68 347.915 104.175C368.337 61.0306 363.462 15.8619 336.968 3.30488L336.922 3.25891Z" fill="#0E0E0E"/>
</svg>
