<svg width="90" height="32" viewBox="0 0 90 32" fill="none" xmlns="http://www.w3.org/2000/svg">
<path d="M11.7903 21.0938C10.5731 21.0938 9.47934 20.838 8.50909 20.3264C7.55647 19.7972 6.79791 19.0298 6.23339 18.0243C5.68652 17.0187 5.41309 15.7839 5.41309 14.3197V7.81012C5.41309 7.42202 5.53657 7.10448 5.78355 6.8575C6.04816 6.59289 6.37452 6.46058 6.76262 6.46058C7.15073 6.46058 7.46827 6.59289 7.71524 6.8575C7.97986 7.10448 8.11216 7.42202 8.11216 7.81012V14.3197C8.11216 15.3076 8.29739 16.1279 8.66786 16.7806C9.03832 17.4157 9.54109 17.892 10.1762 18.2095C10.8112 18.5094 11.5257 18.6594 12.3195 18.6594C13.0781 18.6594 13.7485 18.5094 14.3306 18.2095C14.9304 17.9096 15.4067 17.5039 15.7595 16.9923C16.1124 16.4807 16.2888 15.9074 16.2888 15.2723H17.9559C17.9559 16.366 17.6824 17.3539 17.1355 18.236C16.6063 19.118 15.8742 19.8148 14.9392 20.3264C14.0219 20.838 12.9723 21.0938 11.7903 21.0938ZM17.6383 20.9615C17.2502 20.9615 16.9239 20.838 16.6592 20.591C16.4123 20.3264 16.2888 20.0001 16.2888 19.612V7.81012C16.2888 7.40438 16.4123 7.07802 16.6592 6.83104C16.9239 6.58407 17.2502 6.46058 17.6383 6.46058C18.0441 6.46058 18.3704 6.58407 18.6174 6.83104C18.8644 7.07802 18.9879 7.40438 18.9879 7.81012V19.612C18.9879 20.0001 18.8644 20.3264 18.6174 20.591C18.3704 20.838 18.0441 20.9615 17.6383 20.9615Z" fill="white"/>
<path d="M24.5088 21.3849C24.0149 21.3849 23.5827 21.2085 23.2122 20.8557C22.8594 20.4852 22.683 20.053 22.683 19.559C22.683 19.0475 22.8594 18.6153 23.2122 18.2624C23.5827 17.892 24.0149 17.7067 24.5088 17.7067C25.0204 17.7067 25.4526 17.892 25.8054 18.2624C26.1582 18.6153 26.3347 19.0475 26.3347 19.559C26.3347 20.053 26.1582 20.4852 25.8054 20.8557C25.4526 21.2085 25.0204 21.3849 24.5088 21.3849Z" fill="white"/>
<path d="M35.3126 21.0674C34.0777 21.0674 32.931 20.8821 31.8726 20.5117C30.8317 20.1236 30.0202 19.6384 29.4381 19.0563C29.1735 18.774 29.0588 18.4565 29.0941 18.1037C29.147 17.7332 29.3234 17.4333 29.6233 17.204C29.9761 16.9217 30.3201 16.807 30.6553 16.86C31.0081 16.8953 31.308 17.0452 31.555 17.3098C31.8549 17.645 32.3312 17.9625 32.9839 18.2624C33.6543 18.5447 34.3952 18.6858 35.2067 18.6858C36.2299 18.6858 37.0061 18.5182 37.5353 18.183C38.0822 17.8479 38.3645 17.4157 38.3821 16.8864C38.3997 16.3572 38.1439 15.8985 37.6147 15.5104C37.1031 15.1223 36.1593 14.8048 34.7833 14.5578C33.0016 14.205 31.705 13.6758 30.8935 12.9701C30.0996 12.2645 29.7027 11.4001 29.7027 10.3769C29.7027 9.4772 29.9673 8.73627 30.4966 8.15412C31.0258 7.55433 31.705 7.1133 32.5341 6.83104C33.3632 6.53115 34.2276 6.3812 35.1273 6.3812C36.2916 6.3812 37.3236 6.56643 38.2233 6.93689C39.123 7.30735 39.8375 7.81894 40.3667 8.47166C40.6137 8.75392 40.7284 9.05381 40.7107 9.37135C40.6931 9.67125 40.5431 9.92704 40.2609 10.1387C39.9786 10.3328 39.6434 10.3945 39.2553 10.324C38.8672 10.2534 38.5409 10.0946 38.2762 9.84766C37.8352 9.42428 37.3589 9.1332 36.8473 8.97443C36.3357 8.81566 35.7448 8.73628 35.0744 8.73628C34.2982 8.73628 33.6367 8.86858 33.0898 9.1332C32.5606 9.39781 32.2959 9.78592 32.2959 10.2975C32.2959 10.615 32.3753 10.9061 32.5341 11.1707C32.7105 11.4177 33.0457 11.647 33.5396 11.8587C34.0336 12.0528 34.7569 12.2468 35.7095 12.4409C37.0326 12.7055 38.0734 13.0407 38.8319 13.4464C39.6081 13.8522 40.1638 14.3285 40.499 14.8754C40.8342 15.4046 41.0018 16.022 41.0018 16.7277C41.0018 17.5391 40.7813 18.2713 40.3403 18.924C39.9169 19.5767 39.2818 20.0971 38.435 20.4852C37.6059 20.8733 36.5651 21.0674 35.3126 21.0674Z" fill="white"/>
<path d="M50.4477 21.0674C49.1599 21.0674 48.0044 20.7498 46.9813 20.1147C45.9581 19.462 45.1466 18.5888 44.5468 17.495C43.9647 16.3837 43.6736 15.1311 43.6736 13.7375C43.6736 12.3439 43.9911 11.0914 44.6262 9.97997C45.2789 8.86858 46.1521 7.99535 47.2459 7.36028C48.3573 6.70756 49.601 6.3812 50.977 6.3812C52.353 6.3812 53.5878 6.70756 54.6816 7.36028C55.7753 7.99535 56.6397 8.86858 57.2748 9.97997C57.9275 11.0914 58.2539 12.3439 58.2539 13.7375H57.2219C57.2219 15.1311 56.922 16.3837 56.3222 17.495C55.74 18.5888 54.9374 19.462 53.9142 20.1147C52.891 20.7498 51.7355 21.0674 50.4477 21.0674ZM50.977 18.6858C51.8767 18.6858 52.6793 18.4741 53.385 18.0507C54.0906 17.6097 54.6463 17.0187 55.052 16.2778C55.4578 15.5193 55.6607 14.6725 55.6607 13.7375C55.6607 12.7849 55.4578 11.9381 55.052 11.1972C54.6463 10.4386 54.0906 9.84766 53.385 9.42428C52.6793 8.98325 51.8767 8.76274 50.977 8.76274C50.0949 8.76274 49.2922 8.98325 48.569 9.42428C47.8633 9.84766 47.2988 10.4386 46.8754 11.1972C46.4697 11.9381 46.2668 12.7849 46.2668 13.7375C46.2668 14.6725 46.4697 15.5193 46.8754 16.2778C47.2988 17.0187 47.8633 17.6097 48.569 18.0507C49.2922 18.4741 50.0949 18.6858 50.977 18.6858ZM56.9044 20.988C56.5162 20.988 56.1899 20.8645 55.9253 20.6175C55.6783 20.3529 55.5548 20.0265 55.5548 19.6384V15.5898L56.0576 12.7849L58.2539 13.7375V19.6384C58.2539 20.0265 58.1216 20.3529 57.857 20.6175C57.61 20.8645 57.2925 20.988 56.9044 20.988Z" fill="white"/>
<path d="M63.8321 20.9615C63.4969 20.9615 63.197 20.838 62.9324 20.591C62.6678 20.3441 62.5355 20.0177 62.5355 19.612V6.56643C62.5355 5.29627 62.7825 4.19371 63.2764 3.25874C63.788 2.32376 64.4936 1.60048 65.3933 1.08889C66.293 0.559659 67.3338 0.295044 68.5158 0.295044C68.9039 0.295044 69.2214 0.409711 69.4684 0.639044C69.733 0.868377 69.8653 1.15945 69.8653 1.51227C69.8653 1.84745 69.733 2.13853 69.4684 2.38551C69.2214 2.61484 68.9039 2.72951 68.5158 2.72951C67.8631 2.72951 67.2897 2.87945 66.7958 3.17935C66.3018 3.47925 65.9137 3.89381 65.6315 4.42304C65.3669 4.95227 65.2346 5.57853 65.2346 6.30181V19.612C65.2346 20.0177 65.1111 20.3441 64.8641 20.591C64.6171 20.838 64.2731 20.9615 63.8321 20.9615ZM61.3976 9.29197C61.0272 9.29197 60.7273 9.18612 60.4979 8.97443C60.2686 8.76274 60.1539 8.49812 60.1539 8.18058C60.1539 7.82776 60.2686 7.54551 60.4979 7.33381C60.7273 7.12212 61.0272 7.01628 61.3976 7.01628H67.9336C68.3041 7.01628 68.604 7.12212 68.8333 7.33381C69.0627 7.54551 69.1773 7.82776 69.1773 8.18058C69.1773 8.49812 69.0627 8.76274 68.8333 8.97443C68.604 9.18612 68.3041 9.29197 67.9336 9.29197H61.3976Z" fill="white"/>
<path d="M78.271 21.0674C76.8068 21.0674 75.5014 20.7586 74.3547 20.1412C73.2257 19.5061 72.3348 18.6417 71.6821 17.548C71.047 16.4366 70.7295 15.1664 70.7295 13.7375C70.7295 12.2909 71.0294 11.0208 71.6292 9.92704C72.2466 8.81566 73.0934 7.95125 74.1695 7.33381C75.2456 6.69874 76.4804 6.3812 77.8741 6.3812C79.2501 6.3812 80.432 6.68992 81.4199 7.30735C82.4078 7.90715 83.1576 8.7451 83.6692 9.8212C84.1984 10.8797 84.463 12.1057 84.463 13.4994C84.463 13.8345 84.3483 14.1168 84.119 14.3461C83.8897 14.5578 83.5986 14.6637 83.2458 14.6637H72.5818V12.5467H83.1664L82.0815 13.2877C82.0638 12.4056 81.8874 11.6206 81.5522 10.9326C81.2171 10.2269 80.7407 9.67125 80.1233 9.26551C79.5059 8.85976 78.7561 8.65689 77.8741 8.65689C76.8685 8.65689 76.0041 8.8774 75.2809 9.31843C74.5752 9.75945 74.0372 10.3681 73.6667 11.1443C73.2962 11.9028 73.111 12.7673 73.111 13.7375C73.111 14.7078 73.3315 15.5722 73.7725 16.3307C74.2136 17.0893 74.8222 17.6891 75.5984 18.1301C76.3746 18.5711 77.2655 18.7917 78.271 18.7917C78.8179 18.7917 79.3736 18.6946 79.9381 18.5006C80.5202 18.2889 80.9877 18.0507 81.3405 17.7861C81.6052 17.5921 81.8874 17.495 82.1873 17.495C82.5049 17.4774 82.7783 17.5656 83.0076 17.7597C83.3075 18.0243 83.4663 18.3154 83.4839 18.6329C83.5016 18.9504 83.3604 19.2239 83.0605 19.4532C82.4608 19.9295 81.711 20.3176 80.8113 20.6175C79.9293 20.9174 79.0825 21.0674 78.271 21.0674Z" fill="white"/>
<path d="M2 27.7381C5.23838 31.1918 8.63719 28.7187 12.3371 27.4504C14.0579 26.8605 16.359 26.8249 17.9319 27.6741C19.715 28.6368 20.6617 28.5906 22.8607 28.2974C24.94 28.0202 25.9953 26.5873 28.1625 26.5873C31.13 26.5873 31.3174 28.125 33.6507 28.8249C35.9891 29.5263 37.4122 28.0707 38.6861 27.3065C40.7996 26.0386 41.7334 25.6513 44.6805 26.5873C46.1958 27.0685 48.3968 28.8396 49.9557 28.8888C52.5538 28.9708 53.4966 28.4797 55.0177 27.3065C56.8414 25.8999 61.2252 27.6661 62.4241 28.665C64.4213 30.3291 67.3061 29.7 69.3777 28.4573C74.4477 25.4158 75.4922 31.2182 80.1677 29.8158C81.6289 29.3775 82.7309 28.3862 84.244 27.8819C85.4579 27.4773 88.7594 29.1402 87.8407 28.3134" stroke="#FF9775" stroke-width="2.64615" stroke-linecap="round"/>
</svg>
