<svg width="45" height="43" viewBox="0 0 45 43" fill="none" xmlns="http://www.w3.org/2000/svg">
<path d="M23.404 43C20.6884 42.6815 17.9913 41.9827 15.3129 40.9034C12.6344 39.8242 10.2079 38.2508 8.03322 36.1834C5.85854 34.116 4.05134 31.4953 2.6116 28.3215C1.17187 25.1477 0.334829 21.3216 0.100481 16.8433L0 14.7627L2.00898 14.8617C3.82704 14.9608 5.98662 15.4133 8.48771 16.2191C10.9888 17.0249 13.1116 18.052 14.856 19.3004C15.077 16.0705 15.8864 12.6696 17.2843 9.09785C18.6822 5.52609 20.4208 2.49347 22.5 0C24.5792 2.49347 26.3178 5.5426 27.7157 9.14737C29.1136 12.7522 29.923 16.1696 30.144 19.3995C31.7879 18.2502 33.827 17.2313 36.2612 16.3429C38.6953 15.4546 40.9051 14.9608 42.8906 14.8617L45 14.7627L44.8995 16.9424C44.7656 20.496 44.2048 23.6863 43.2171 26.5134C42.2293 29.3404 40.8323 31.8207 39.0259 33.9541C37.2195 36.0876 35.0198 37.8999 32.4266 39.391C29.8334 40.8822 26.8259 42.0852 23.404 43ZM23.3739 40.3942C22.8951 33.2672 20.7514 27.879 16.9428 24.2296C13.1342 20.5802 8.40072 18.3262 2.74225 17.4675C3.22104 24.8092 5.43002 30.2833 9.36919 33.8897C13.3084 37.4962 17.9766 39.6643 23.3739 40.3942ZM22.5 27.405C23.086 26.3284 23.8385 25.203 24.7575 24.0289C25.6766 22.8549 26.6216 21.8699 27.5926 21.074C27.5725 18.4285 27.1163 15.6675 26.224 12.791C25.3317 9.9144 24.0904 7.16005 22.5 4.5279C20.9096 7.16005 19.6683 9.9144 18.776 12.791C17.8837 15.6675 17.4275 18.4285 17.4074 21.074C18.3784 21.8699 19.3175 22.8549 20.2249 24.0289C21.1323 25.203 21.8906 26.3284 22.5 27.405ZM25.9855 39.5322C28.0313 38.8519 29.9916 37.9519 31.8666 36.8323C33.7416 35.7127 35.4216 34.2803 36.9065 32.5349C38.3914 30.7894 39.6085 28.6832 40.5577 26.2161C41.507 23.7491 42.0736 20.8329 42.2577 17.4675C38.0323 18.0686 34.274 19.5341 30.9827 21.8641C27.6914 24.1941 25.3192 27.0517 23.8661 30.4369C24.3884 31.8108 24.8178 33.1978 25.1543 34.5981C25.4908 35.9984 25.7679 37.6431 25.9855 39.5322Z" fill="black"/>
</svg>
