<svg width="33" height="43" viewBox="0 0 33 43" fill="none" xmlns="http://www.w3.org/2000/svg">
<path d="M16.5 43C11.7645 41.5667 7.83068 38.6407 4.69843 34.222C1.56614 29.8033 0 24.8259 0 19.2899V6.28815L16.5 0L33 6.28815V19.2899C33 24.8259 31.4339 29.8033 28.3016 34.222C25.1693 38.6407 21.2355 41.5667 16.5 43ZM16.5 40.4477C20.5857 39.1253 23.9643 36.4806 26.6357 32.5135C29.3071 28.5464 30.6429 24.1385 30.6429 19.2899V7.92956L16.5 2.56611L2.35714 7.92956V19.2899C2.35714 24.1385 3.69286 28.5464 6.36429 32.5135C9.03572 36.4806 12.4143 39.1253 16.5 40.4477Z" fill="black"/>
</svg>
