<svg width="22" height="22" viewBox="0 0 22 22" fill="none" xmlns="http://www.w3.org/2000/svg">
<path d="M13.7502 10.083H11.9168V6.41634C11.9168 6.17323 11.8203 5.94007 11.6483 5.76816C11.4764 5.59625 11.2433 5.49967 11.0002 5.49967C10.7571 5.49967 10.5239 5.59625 10.352 5.76816C10.1801 5.94007 10.0835 6.17323 10.0835 6.41634V10.9997C10.0835 11.2428 10.1801 11.4759 10.352 11.6479C10.5239 11.8198 10.7571 11.9163 11.0002 11.9163H13.7502C13.9933 11.9163 14.2264 11.8198 14.3983 11.6479C14.5703 11.4759 14.6668 11.2428 14.6668 10.9997C14.6668 10.7566 14.5703 10.5234 14.3983 10.3515C14.2264 10.1796 13.9933 10.083 13.7502 10.083ZM11.0002 1.83301C9.18717 1.83301 7.41489 2.37062 5.90744 3.37787C4.39999 4.38512 3.22507 5.81675 2.53127 7.49174C1.83747 9.16673 1.65594 11.0098 2.00964 12.788C2.36333 14.5662 3.23637 16.1995 4.51835 17.4815C5.80034 18.7635 7.43368 19.6365 9.21184 19.9902C10.99 20.3439 12.8331 20.1624 14.5081 19.4686C16.1831 18.7748 17.6147 17.5999 18.622 16.0924C19.6292 14.585 20.1668 12.8127 20.1668 10.9997C20.1668 9.79589 19.9297 8.60389 19.4691 7.49174C19.0084 6.37959 18.3332 5.36907 17.482 4.51786C16.6308 3.66666 15.6202 2.99145 14.5081 2.53078C13.3959 2.07011 12.204 1.83301 11.0002 1.83301V1.83301ZM11.0002 18.333C9.54977 18.333 8.13195 17.9029 6.92598 17.0971C5.72002 16.2913 4.78009 15.146 4.22505 13.806C3.67001 12.466 3.52478 10.9915 3.80774 9.56901C4.0907 8.14649 4.78913 6.83981 5.81472 5.81423C6.8403 4.78864 8.14698 4.09021 9.5695 3.80725C10.992 3.52429 12.4665 3.66952 13.8065 4.22456C15.1465 4.7796 16.2918 5.71953 17.0976 6.92549C17.9034 8.13145 18.3335 9.54928 18.3335 10.9997C18.3335 12.9446 17.5609 14.8099 16.1856 16.1851C14.8103 17.5604 12.9451 18.333 11.0002 18.333V18.333Z" fill="white"/>
</svg>
