<svg width="1200" height="200" viewBox="0 0 1200 200" fill="none" xmlns="http://www.w3.org/2000/svg">
<path d="M27.7552 179.695H0V2.03046H87.555V179.695H59.2952V27.4112H27.7552V179.695Z" fill="white"/>
<path d="M148.555 2.03046C162.517 2.03046 172.862 5.75296 179.591 13.198C186.487 20.643 189.936 31.5566 189.936 45.939V69.0355C189.936 83.4179 186.487 94.3316 179.591 101.777C172.862 109.222 162.517 112.944 148.555 112.944H135.435V179.695H107.679V2.03046H148.555ZM135.435 27.4112V87.5634H148.555C152.929 87.5634 156.293 86.379 158.648 84.0102C161.003 81.6413 162.181 77.2419 162.181 70.8121V44.1624C162.181 37.7326 161.003 33.3333 158.648 30.9645C156.293 28.5956 152.929 27.4112 148.555 27.4112H135.435Z" fill="white"/>
<path d="M227.778 138.832C227.778 145.262 229.039 149.831 231.563 152.538C234.254 155.076 237.786 156.345 242.16 156.345C242.34 156.345 362.953 155.807 363.13 155.803C367.25 155.703 370.744 155.639 373.163 153.205C375.854 150.498 376.976 147.291 376.976 140.861V44.9218C376.976 38.492 375.631 34.0081 372.939 31.4701C370.52 28.8749 367.651 26.1944 363.532 26.087C363.354 26.0823 242.341 25.3807 242.16 25.3807C237.786 25.3807 234.254 26.7343 231.563 29.4416C229.039 31.9797 227.778 36.4636 227.778 42.8934V138.832ZM200.023 44.67C200.023 30.2876 203.639 19.2893 210.872 11.6751C218.105 3.89171 228.535 0 242.16 0C242.34 0 363.353 0.723279 363.532 0.724638C376.894 0.826118 386.744 6.023 393.882 13.7036C401.115 21.3178 404.731 32.3161 404.731 46.6985V139.084C404.731 153.467 401.115 164.55 393.882 172.333C386.744 179.847 376.493 178.525 363.13 178.624C362.952 178.625 242.339 179.162 242.16 179.162C228.535 179.162 218.105 177.919 210.872 170.305C203.639 162.521 200.023 151.438 200.023 137.056V44.67Z" fill="white"/>
<path d="M409.29 154.315C410.804 154.484 412.402 154.569 414.084 154.569C415.767 154.569 417.365 154.569 418.878 154.569C423.252 154.569 426.953 153.469 429.981 151.269C433.177 149.069 434.775 144.501 434.775 137.563V2.03046H522.582V154.315H536.712V200H508.452V179.695H437.55V200H409.29V154.315ZM462.53 135.533C462.53 142.978 461.773 149.239 460.259 154.315H494.827V27.4112H462.53V135.533Z" fill="white"/>
<path d="M637.581 179.695H609.573L604.779 147.462H570.716L565.922 179.695H540.437L568.697 2.03046H609.321L637.581 179.695ZM574.248 123.35H600.994L587.621 33.5025L574.248 123.35Z" fill="white"/>
<path d="M686.6 108.883L678.021 125.127V179.695H650.266V2.03046H678.021V79.4416L714.859 2.03046H742.11L703.505 81.2183L742.11 179.695H713.598L686.6 108.883Z" fill="white"/>
<path d="M832.709 154.315H855.165V2.03046H883.173V179.695H754.742V2.03046H782.245V154.315H804.953V2.03046H832.709V154.315Z" fill="white"/>
<path d="M931.08 76.9035H969.18V102.284H931.08V154.315H979.02V179.695H903.325V2.03046H979.02V27.4112H931.08V76.9035Z" fill="white"/>
<path d="M1023.24 179.695H995.48V2.03046H1023.24V78.1726L1171.74 78.1726V2.03052H1200V179.695H1171.74V103.553L1023.24 103.553V179.695Z" fill="white"/>
</svg>
