<svg width="35" height="43" viewBox="0 0 35 43" fill="none" xmlns="http://www.w3.org/2000/svg">
<path fill-rule="evenodd" clip-rule="evenodd" d="M15.0091 2.15C15.9301 2.15 16.6767 2.87194 16.6767 3.7625V20.425H18.9003V6.9875C18.9003 6.09694 19.647 5.375 20.568 5.375C21.489 5.375 22.2357 6.09694 22.2357 6.9875V23.7419C22.2357 25.789 24.9146 26.6777 26.2144 25.0618L29.7571 20.6576C30.4404 19.8082 31.772 19.8195 32.4398 20.6804C32.8535 21.2138 32.8901 21.9369 32.5322 22.5068L24.5229 35.2591C22.3426 38.7304 18.4468 40.85 14.2465 40.85C7.60637 40.85 2.22357 35.6453 2.22357 29.2248V13.4375C2.22357 12.547 2.97024 11.825 3.89124 11.825C4.81224 11.825 5.55891 12.547 5.55891 13.4375V22.7014H7.78248V6.9875C7.78248 6.09694 8.52915 5.375 9.45015 5.375C10.3712 5.375 11.1178 6.09694 11.1178 6.9875V20.425H13.3414V3.7625C13.3414 2.87194 14.0881 2.15 15.0091 2.15ZM11.1219 3.58895C11.2157 1.59154 12.9201 0 15.0091 0C17.098 0 18.8025 1.59154 18.8962 3.58895C19.4027 3.35561 19.9696 3.225 20.568 3.225C22.7171 3.225 24.4592 4.90953 24.4592 6.9875V23.7419L28.0019 19.3376C29.5853 17.3692 32.6712 17.3953 34.2187 19.3904C35.1775 20.6265 35.2622 22.3022 34.4327 23.6228L26.4234 36.3751C23.84 40.4885 19.2236 43 14.2465 43C6.37841 43 0 36.8326 0 29.2248V13.4375C0 11.3595 1.74216 9.675 3.89124 9.675C4.48804 9.675 5.0535 9.80486 5.55891 10.0371V6.9875C5.55891 4.90953 7.30108 3.225 9.45015 3.225C10.0485 3.225 10.6154 3.35561 11.1219 3.58895Z" fill="black"/>
</svg>
