<svg width="380" height="381" viewBox="0 0 380 381" fill="none" xmlns="http://www.w3.org/2000/svg">
<g opacity="0.1">
<mask id="path-1-inside-1_112_2930" fill="white">
<path d="M365.941 122.983C340.175 85.5799 283.349 76.9582 221.754 95.4619C201.289 38.8293 163.161 0.691333 119.459 0.713991C54.0641 0.780417 1.02595 85.8778 0.966598 190.773C0.912327 256.901 21.9289 315.038 53.92 349.04C56.6269 352.144 59.5768 355.033 62.7694 357.706C62.7694 357.706 62.7693 357.706 62.8581 357.758C64.3913 358.998 65.9244 360.239 67.5089 361.391C83.1723 373.636 100.669 380.655 119.231 380.701C123.595 380.73 127.897 380.25 132.074 379.579C175.253 379.847 226.799 363.367 274.524 330.334C362.108 269.687 403.111 176.93 365.978 123.123L365.941 122.983Z"/>
</mask>
<path d="M365.941 122.983L370.771 121.692L370.548 120.858L370.058 120.146L365.941 122.983ZM221.754 95.4619L217.051 97.1611L218.66 101.612L223.192 100.25L221.754 95.4619ZM119.459 0.713991L119.456 -4.28601L119.454 -4.28601L119.459 0.713991ZM0.966598 190.773L5.9666 190.777L5.9666 190.776L0.966598 190.773ZM53.92 349.04L57.6884 345.754L57.6263 345.683L57.5616 345.614L53.92 349.04ZM62.7694 357.706L60.2694 362.037L65.9793 353.873L62.7694 357.706ZM62.8581 357.758L66.0037 353.871L65.6983 353.624L65.3581 353.428L62.8581 357.758ZM67.5089 361.391L70.5883 357.452L70.5196 357.398L70.4491 357.347L67.5089 361.391ZM119.231 380.701L119.265 375.701L119.254 375.701L119.243 375.701L119.231 380.701ZM132.074 379.579L132.105 374.579L131.69 374.576L131.28 374.642L132.074 379.579ZM274.524 330.334L277.369 334.445L277.37 334.445L274.524 330.334ZM365.978 123.123L361.148 124.414L361.371 125.25L361.863 125.963L365.978 123.123ZM370.058 120.146C342.398 79.9924 282.593 71.9645 220.315 90.6733L223.192 100.25C284.105 81.9518 337.953 91.1675 361.823 125.819L370.058 120.146ZM226.456 93.7627C205.721 36.3796 166.328 -4.31031 119.456 -4.28601L119.462 5.71399C159.995 5.69298 196.858 41.279 217.051 97.1611L226.456 93.7627ZM119.454 -4.28601C84.4056 -4.25041 53.4326 18.5552 31.4689 53.7877C9.45983 89.093 -4.00328 137.538 -4.0334 190.771L5.9666 190.776C5.99583 139.113 19.0815 92.5617 39.955 59.0778C60.874 25.5211 89.1174 5.74482 119.464 5.71399L119.454 -4.28601ZM-4.0334 190.769C-4.08842 257.809 17.1936 317.302 50.2784 352.466L57.5616 345.614C26.6643 312.775 5.91306 255.993 5.9666 190.777L-4.0334 190.769ZM50.1516 352.326C53.032 355.63 56.1689 358.701 59.5595 361.54L65.9793 353.873C62.9847 351.365 60.2219 348.659 57.6884 345.754L50.1516 352.326ZM62.7694 357.706C65.2694 353.376 62.7694 357.706 60.2694 362.037C60.2694 362.037 60.2694 362.037 60.2694 362.037L60.2694 362.037C60.2694 362.037 60.2694 362.037 60.2694 362.037C60.2694 362.037 60.2694 362.037 60.2694 362.037C60.2694 362.037 60.2694 362.037 60.2694 362.037C60.2694 362.037 60.2694 362.037 60.2694 362.037L60.2695 362.037C60.2695 362.037 60.2695 362.037 60.2695 362.037C60.2695 362.037 60.2695 362.037 60.2695 362.037C60.2695 362.037 60.2695 362.037 60.2695 362.037C60.2695 362.037 60.2695 362.037 60.2695 362.037C60.2695 362.037 60.2695 362.037 60.2695 362.037L60.2695 362.037C60.2695 362.037 60.2695 362.037 60.2695 362.037C60.2695 362.037 60.2695 362.037 60.2696 362.037C60.2696 362.037 60.2696 362.037 60.2696 362.037L60.2696 362.037C60.2696 362.037 60.2696 362.037 60.2696 362.037C60.2696 362.037 60.2696 362.037 60.2696 362.037L60.2696 362.037C60.2696 362.037 60.2696 362.037 60.2696 362.037C60.2696 362.037 60.2696 362.037 60.2697 362.037C60.2697 362.037 60.2697 362.037 60.2697 362.037C60.2697 362.037 60.2697 362.037 60.2697 362.037C60.2697 362.037 60.2697 362.037 60.2697 362.037C60.2697 362.037 60.2697 362.037 60.2697 362.037C60.2697 362.037 60.2697 362.037 60.2697 362.037C60.2697 362.037 60.2697 362.037 60.2697 362.037C60.2697 362.037 60.2697 362.037 60.2697 362.037C60.2698 362.037 60.2698 362.037 60.2698 362.037C60.2698 362.037 60.2698 362.037 60.2698 362.037C60.2698 362.037 60.2698 362.037 60.2698 362.037C60.2698 362.037 60.2698 362.037 60.2698 362.037C60.2698 362.037 60.2698 362.037 60.2698 362.037L60.2698 362.037L60.2698 362.037C60.2699 362.037 60.2699 362.037 60.2699 362.037C60.2699 362.037 60.2699 362.037 60.2699 362.037L60.2699 362.037C60.2699 362.037 60.2699 362.037 60.2699 362.037C60.2699 362.037 60.2699 362.037 60.2699 362.037L60.27 362.037C60.27 362.037 60.27 362.037 60.27 362.037L60.27 362.037C60.27 362.037 60.27 362.037 60.27 362.037L60.27 362.037C60.27 362.037 60.27 362.037 60.2701 362.037L60.2701 362.037C60.2701 362.037 60.2701 362.037 60.2701 362.037L60.2701 362.037C60.2701 362.037 60.2701 362.037 60.2701 362.037C60.2702 362.037 60.2702 362.037 60.2702 362.037L60.2702 362.037C60.2702 362.037 60.2702 362.037 60.2702 362.037C60.2702 362.037 60.2702 362.037 60.2702 362.037C60.2702 362.037 60.2702 362.037 60.2703 362.037C60.2703 362.037 60.2703 362.037 60.2703 362.037C60.2703 362.037 60.2703 362.037 60.2703 362.037C60.2703 362.037 60.2703 362.037 60.2703 362.037C60.2703 362.037 60.2704 362.037 60.2704 362.037C60.2704 362.037 60.2704 362.037 60.2704 362.037C60.2704 362.037 60.2704 362.037 60.2704 362.037C60.2704 362.037 60.2704 362.037 60.2704 362.037C60.2704 362.037 60.2705 362.037 60.2705 362.037C60.2705 362.037 60.2705 362.037 60.2705 362.037C60.2705 362.037 60.2705 362.037 60.2705 362.037C60.2705 362.037 60.2705 362.037 60.2705 362.037C60.2706 362.037 60.2706 362.037 60.2706 362.037C60.2706 362.037 60.2706 362.037 60.2706 362.037C60.2706 362.037 60.2706 362.037 60.2706 362.037C60.2707 362.037 60.2707 362.037 60.2707 362.037C60.2707 362.037 60.2707 362.037 60.2707 362.037C60.2707 362.037 60.2707 362.037 60.2707 362.037C60.2707 362.037 60.2708 362.037 60.2708 362.037C60.2708 362.037 60.2708 362.037 60.2708 362.037C60.2708 362.037 60.2708 362.037 60.2708 362.037C60.2709 362.037 60.2709 362.037 60.2709 362.037C60.2709 362.037 60.2709 362.037 60.2709 362.037C60.2709 362.037 60.2709 362.037 60.2709 362.037C60.271 362.037 60.271 362.037 60.271 362.037C60.271 362.037 60.271 362.037 60.271 362.037C60.271 362.037 60.271 362.037 60.2711 362.037C60.2711 362.038 60.2711 362.038 60.2711 362.038C60.2711 362.038 60.2711 362.038 60.2711 362.038C60.2711 362.038 60.2712 362.038 60.2712 362.038C60.2712 362.038 60.2712 362.038 60.2712 362.038C60.2712 362.038 60.2712 362.038 60.2713 362.038C60.2713 362.038 60.2713 362.038 60.2713 362.038C60.2713 362.038 60.2713 362.038 60.2713 362.038C60.2713 362.038 60.2714 362.038 60.2714 362.038C60.2714 362.038 60.2714 362.038 60.2714 362.038C60.2714 362.038 60.2714 362.038 60.2714 362.038C60.2715 362.038 60.2715 362.038 60.2715 362.038C60.2715 362.038 60.2715 362.038 60.2715 362.038C60.2716 362.038 60.2716 362.038 60.2716 362.038C60.2716 362.038 60.2716 362.038 60.2716 362.038C60.2716 362.038 60.2717 362.038 60.2717 362.038C60.2717 362.038 60.2717 362.038 60.2717 362.038C60.2717 362.038 60.2718 362.038 60.2718 362.038C60.2718 362.038 60.2718 362.038 60.2718 362.038C60.2718 362.038 60.2718 362.038 60.2719 362.038C60.2719 362.038 60.2719 362.038 60.2719 362.038C60.2719 362.038 60.2719 362.038 60.272 362.038C60.272 362.038 60.272 362.038 60.272 362.038C60.272 362.038 60.272 362.038 60.2721 362.038C60.2721 362.038 60.2721 362.038 60.2721 362.038C60.2721 362.038 60.2721 362.038 60.2722 362.038C60.2722 362.038 60.2722 362.038 60.2722 362.038C60.2722 362.038 60.2722 362.038 60.2723 362.038C60.2723 362.038 60.2723 362.038 60.2723 362.038C60.2723 362.038 60.2724 362.038 60.2724 362.038C60.2724 362.038 60.2724 362.038 60.2724 362.038C60.2725 362.038 60.2725 362.038 60.2725 362.038C60.2725 362.038 60.2725 362.038 60.2725 362.038C60.2726 362.038 60.2726 362.038 60.2726 362.038C60.2726 362.038 60.2726 362.038 60.2727 362.038C60.2727 362.038 60.2727 362.038 60.2727 362.038C60.2727 362.038 60.2728 362.038 60.2728 362.038C60.2728 362.039 60.2728 362.039 60.2728 362.039C60.2728 362.039 60.2729 362.039 60.2729 362.039C60.2729 362.039 60.2729 362.039 60.273 362.039C60.273 362.039 60.273 362.039 60.273 362.039C60.273 362.039 60.2731 362.039 60.2731 362.039C60.2731 362.039 60.2731 362.039 60.2731 362.039C60.2732 362.039 60.2732 362.039 60.2732 362.039C60.2732 362.039 60.2732 362.039 60.2733 362.039C60.2733 362.039 60.2733 362.039 60.2733 362.039C60.2734 362.039 60.2734 362.039 60.2734 362.039C60.2734 362.039 60.2734 362.039 60.2735 362.039C60.2735 362.039 60.2735 362.039 60.2735 362.039C60.2735 362.039 60.2736 362.039 60.2736 362.039C60.2736 362.039 60.2736 362.039 60.2737 362.039C60.2737 362.039 60.2737 362.039 60.2737 362.039C60.2738 362.039 60.2738 362.039 60.2738 362.039C60.2738 362.039 60.2739 362.039 60.2739 362.039C60.2739 362.039 60.2739 362.039 60.274 362.039C60.274 362.039 60.274 362.039 60.274 362.039C60.2741 362.039 60.2741 362.039 60.2741 362.039C60.2741 362.039 60.2741 362.039 60.2742 362.039C60.2742 362.039 60.2742 362.039 60.2742 362.039C60.2743 362.039 60.2743 362.039 60.2743 362.039C60.2744 362.039 60.2744 362.039 60.2744 362.039C60.2744 362.039 60.2744 362.039 60.2745 362.039C60.2745 362.039 60.2745 362.04 60.2746 362.04C60.2746 362.04 60.2746 362.04 60.2746 362.04C60.2747 362.04 60.2747 362.04 60.2747 362.04C60.2747 362.04 60.2748 362.04 60.2748 362.04C60.2748 362.04 60.2748 362.04 60.2749 362.04C60.2749 362.04 60.2749 362.04 60.275 362.04C60.275 362.04 60.275 362.04 60.275 362.04C60.2751 362.04 60.2751 362.04 60.2751 362.04C60.2751 362.04 60.2752 362.04 60.2752 362.04C60.2752 362.04 60.2753 362.04 60.2753 362.04C60.2753 362.04 60.2753 362.04 60.2754 362.04C60.2754 362.04 60.2754 362.04 60.2755 362.04C60.2755 362.04 60.2755 362.04 60.2756 362.04C60.2756 362.04 60.2756 362.04 60.2757 362.04C60.2757 362.04 60.2757 362.04 60.2757 362.04C60.2758 362.04 60.2758 362.04 60.2758 362.04C60.2758 362.04 60.2759 362.04 60.2759 362.04C60.2759 362.04 60.276 362.04 60.276 362.04C60.276 362.04 60.2761 362.04 60.2761 362.04C60.2761 362.04 60.2762 362.04 60.2762 362.04C60.2762 362.04 60.2763 362.041 60.2763 362.041C60.2763 362.041 60.2764 362.041 60.2764 362.041C60.2764 362.041 60.2764 362.041 60.2765 362.041C60.2765 362.041 60.2765 362.041 60.2766 362.041C60.2766 362.041 60.2766 362.041 60.2767 362.041C60.2767 362.041 60.2767 362.041 60.2768 362.041C60.2768 362.041 60.2768 362.041 60.2769 362.041C60.2769 362.041 60.2769 362.041 60.277 362.041C60.277 362.041 60.277 362.041 60.2771 362.041C60.2771 362.041 60.2771 362.041 60.2772 362.041C60.2772 362.041 60.2772 362.041 60.2773 362.041C60.2773 362.041 60.2774 362.041 60.2774 362.041C60.2774 362.041 60.2775 362.041 60.2775 362.041C60.2775 362.041 60.2776 362.041 60.2776 362.041C60.2776 362.041 60.2777 362.041 60.2777 362.041C60.2777 362.041 60.2778 362.041 60.2778 362.041C60.2779 362.041 60.2779 362.041 60.2779 362.041C60.278 362.041 60.278 362.042 60.278 362.042C60.2781 362.042 60.2781 362.042 60.2781 362.042C60.2782 362.042 60.2782 362.042 60.2783 362.042C60.2783 362.042 60.2783 362.042 60.2784 362.042C60.2784 362.042 60.2784 362.042 60.2785 362.042C60.2785 362.042 60.2786 362.042 60.2786 362.042C60.2786 362.042 60.2787 362.042 60.2787 362.042C60.2788 362.042 60.2788 362.042 60.2788 362.042C60.2789 362.042 60.2789 362.042 60.279 362.042C60.279 362.042 60.279 362.042 60.2791 362.042C60.2791 362.042 60.2791 362.042 60.2792 362.042C60.2792 362.042 60.2793 362.042 60.2793 362.042C60.2794 362.042 60.2794 362.042 60.2794 362.042C60.2795 362.042 60.2795 362.042 60.2795 362.042C60.2796 362.042 60.2796 362.042 60.2797 362.042C60.2797 362.042 60.2798 362.043 60.2798 362.043C60.2798 362.043 60.2799 362.043 60.2799 362.043C60.28 362.043 60.28 362.043 60.2801 362.043C60.2801 362.043 60.2801 362.043 60.2802 362.043C60.2802 362.043 60.2803 362.043 60.2803 362.043C60.2804 362.043 60.2804 362.043 60.2804 362.043C60.2805 362.043 60.2805 362.043 60.2806 362.043C60.2806 362.043 60.2807 362.043 60.2807 362.043C60.2807 362.043 60.2808 362.043 60.2808 362.043C60.2809 362.043 60.2809 362.043 60.281 362.043C60.281 362.043 60.2811 362.043 60.2811 362.043C60.2811 362.043 60.2812 362.043 60.2812 362.043C60.2813 362.043 60.2813 362.043 60.2814 362.043C60.2814 362.043 60.2815 362.044 60.2815 362.044C60.2816 362.044 60.2816 362.044 60.2816 362.044C60.2817 362.044 60.2817 362.044 60.2818 362.044C60.2818 362.044 60.2819 362.044 60.2819 362.044C60.282 362.044 60.282 362.044 60.2821 362.044C60.2821 362.044 60.2822 362.044 60.2822 362.044C60.2823 362.044 60.2823 362.044 60.2824 362.044C60.2824 362.044 60.2825 362.044 60.2825 362.044C60.2825 362.044 60.2826 362.044 60.2826 362.044C60.2827 362.044 60.2827 362.044 60.2828 362.044C60.2828 362.044 60.2829 362.044 60.2829 362.044C60.283 362.044 60.283 362.044 60.2831 362.044C60.2831 362.044 60.2832 362.045 60.2832 362.045C60.2833 362.045 60.2833 362.045 60.2834 362.045C60.2834 362.045 60.2835 362.045 60.2836 362.045C60.2836 362.045 60.2836 362.045 60.2837 362.045C60.2838 362.045 60.2838 362.045 60.2839 362.045C60.2839 362.045 60.284 362.045 60.284 362.045C60.2841 362.045 60.2841 362.045 60.2842 362.045C60.2842 362.045 60.2843 362.045 60.2843 362.045C60.2844 362.045 60.2844 362.045 60.2845 362.045C60.2845 362.045 60.2846 362.045 60.2846 362.045C60.2847 362.045 60.2848 362.045 60.2848 362.045C60.2849 362.045 60.2849 362.045 60.285 362.046C60.285 362.046 60.2851 362.046 60.2851 362.046C60.2852 362.046 60.2852 362.046 60.2853 362.046C60.2854 362.046 60.2854 362.046 60.2855 362.046C60.2855 362.046 60.2856 362.046 60.2856 362.046C60.2857 362.046 60.2857 362.046 60.2858 362.046C60.2859 362.046 60.2859 362.046 60.286 362.046C60.286 362.046 60.2861 362.046 60.2861 362.046C60.2862 362.046 60.2863 362.046 60.2863 362.046C60.2864 362.046 60.2864 362.046 60.2865 362.046C60.2866 362.046 60.2866 362.046 60.2867 362.047C60.2867 362.047 60.2868 362.047 60.2868 362.047C60.2869 362.047 60.2869 362.047 60.287 362.047C60.2871 362.047 60.2871 362.047 60.2872 362.047C60.2873 362.047 60.2873 362.047 60.2874 362.047C60.2874 362.047 60.2875 362.047 60.2876 362.047C60.2876 362.047 60.2877 362.047 60.2877 362.047C60.2878 362.047 60.2879 362.047 60.2879 362.047C60.288 362.047 60.288 362.047 60.2881 362.047C60.2882 362.047 60.2882 362.047 60.2883 362.047C60.2883 362.047 60.2884 362.048 60.2885 362.048C60.2885 362.048 60.2886 362.048 60.2887 362.048C60.2887 362.048 60.2888 362.048 60.2889 362.048C60.2889 362.048 60.289 362.048 60.289 362.048C60.2891 362.048 60.2892 362.048 60.2892 362.048C60.2893 362.048 60.2894 362.048 60.2894 362.048C60.2895 362.048 60.2896 362.048 60.2896 362.048C60.2897 362.048 60.2898 362.048 60.2898 362.048C60.2899 362.048 60.2899 362.048 60.29 362.048C60.2901 362.048 60.2901 362.049 60.2902 362.049C60.2903 362.049 60.2903 362.049 60.2904 362.049C60.2905 362.049 60.2905 362.049 60.2906 362.049C60.2907 362.049 60.2907 362.049 60.2908 362.049C60.2909 362.049 60.2909 362.049 60.291 362.049C60.2911 362.049 60.2911 362.049 60.2912 362.049C60.2913 362.049 60.2913 362.049 60.2914 362.049C60.2915 362.049 60.2915 362.049 60.2916 362.049C60.2917 362.049 60.2918 362.049 60.2918 362.049C60.2919 362.05 60.292 362.05 60.292 362.05C60.2921 362.05 60.2922 362.05 60.2922 362.05C60.2923 362.05 60.2924 362.05 60.2925 362.05C60.2925 362.05 60.2926 362.05 60.2927 362.05C60.2927 362.05 60.2928 362.05 60.2929 362.05C60.293 362.05 60.293 362.05 60.2931 362.05C60.2932 362.05 60.2933 362.05 60.2933 362.05C60.2934 362.05 60.2935 362.05 60.2935 362.05C60.2936 362.051 60.2937 362.051 60.2938 362.051C60.2938 362.051 60.2939 362.051 60.294 362.051C60.294 362.051 60.2941 362.051 60.2942 362.051C60.2943 362.051 60.2943 362.051 60.2944 362.051C60.2945 362.051 60.2946 362.051 60.2946 362.051C60.2947 362.051 60.2948 362.051 60.2949 362.051C60.2949 362.051 60.295 362.051 60.2951 362.051C60.2952 362.051 60.2952 362.051 60.2953 362.052C60.2954 362.052 60.2955 362.052 60.2956 362.052C60.2956 362.052 60.2957 362.052 60.2958 362.052C60.2959 362.052 60.2959 362.052 60.296 362.052C60.2961 362.052 60.2962 362.052 60.2963 362.052C60.2963 362.052 60.2964 362.052 60.2965 362.052C60.2966 362.052 60.2966 362.052 60.2967 362.052C60.2968 362.052 60.2969 362.052 60.297 362.052C60.297 362.053 60.2971 362.053 60.2972 362.053C60.2973 362.053 60.2974 362.053 60.2974 362.053C60.2975 362.053 60.2976 362.053 60.2977 362.053C60.2978 362.053 60.2979 362.053 60.2979 362.053C60.298 362.053 60.2981 362.053 60.2982 362.053C60.2983 362.053 60.2983 362.053 60.2984 362.053C60.2985 362.053 60.2986 362.053 60.2987 362.053C60.2987 362.053 60.2988 362.054 60.2989 362.054C60.299 362.054 60.2991 362.054 60.2992 362.054C60.2993 362.054 60.2993 362.054 60.2994 362.054C60.2995 362.054 60.2996 362.054 60.2997 362.054C60.2998 362.054 60.2998 362.054 60.2999 362.054C60.3 362.054 60.3001 362.054 60.3002 362.054C60.3003 362.054 60.3004 362.054 60.3005 362.054C60.3005 362.055 60.3006 362.055 60.3007 362.055C60.3008 362.055 60.3009 362.055 60.301 362.055C60.301 362.055 60.3011 362.055 60.3012 362.055C60.3013 362.055 60.3014 362.055 60.3015 362.055C60.3016 362.055 60.3017 362.055 60.3018 362.055C60.3018 362.055 60.3019 362.055 60.302 362.055C60.3021 362.055 60.3022 362.055 60.3023 362.056C60.3024 362.056 60.3025 362.056 60.3026 362.056C60.3026 362.056 60.3027 362.056 60.3028 362.056C60.3029 362.056 60.303 362.056 60.3031 362.056C60.3032 362.056 60.3033 362.056 60.3034 362.056C60.3035 362.056 60.3036 362.056 60.3037 362.056C60.3037 362.056 60.3038 362.056 60.3039 362.056C60.304 362.057 60.3041 362.057 60.3042 362.057C60.3043 362.057 60.3044 362.057 60.3045 362.057C60.3046 362.057 60.3047 362.057 60.3048 362.057C60.3049 362.057 60.305 362.057 60.3051 362.057C60.3051 362.057 60.3052 362.057 60.3053 362.057C60.3054 362.057 60.3055 362.057 60.3056 362.057C60.3057 362.058 60.3058 362.058 60.3059 362.058C60.306 362.058 60.3061 362.058 60.3062 362.058C60.3063 362.058 60.3064 362.058 60.3065 362.058C60.3066 362.058 60.3067 362.058 60.3068 362.058C60.3069 362.058 60.307 362.058 60.3071 362.058C60.3072 362.058 60.3073 362.058 60.3074 362.058C60.3075 362.059 60.3076 362.059 60.3077 362.059C60.3078 362.059 60.3079 362.059 60.308 362.059C60.3081 362.059 60.3082 362.059 60.3083 362.059C60.3084 362.059 60.3085 362.059 60.3086 362.059C60.3087 362.059 60.3088 362.059 60.3089 362.059C60.309 362.059 60.3091 362.059 60.3092 362.06C60.3093 362.06 60.3094 362.06 60.3095 362.06C60.3096 362.06 60.3097 362.06 60.3098 362.06C60.3099 362.06 60.31 362.06 60.3101 362.06C60.3102 362.06 60.3103 362.06 60.3104 362.06C60.3105 362.06 60.3106 362.06 60.3107 362.06C60.3108 362.06 60.3109 362.061 60.311 362.061C60.3111 362.061 60.3112 362.061 60.3113 362.061C60.3114 362.061 60.3116 362.061 60.3117 362.061C60.3118 362.061 60.3119 362.061 60.312 362.061C60.3121 362.061 60.3122 362.061 60.3123 362.061C60.3124 362.061 60.3125 362.061 60.3126 362.061C60.3127 362.062 60.3128 362.062 60.3129 362.062C60.313 362.062 60.3132 362.062 60.3133 362.062C60.3134 362.062 60.3135 362.062 60.3136 362.062C60.3137 362.062 60.3138 362.062 60.3139 362.062C60.314 362.062 60.3141 362.062 60.3143 362.062C60.3144 362.062 60.3145 362.063 60.3146 362.063C60.3147 362.063 60.3148 362.063 60.3149 362.063C60.315 362.063 60.3151 362.063 60.3153 362.063C60.3154 362.063 60.3155 362.063 60.3156 362.063C60.3157 362.063 60.3158 362.063 60.3159 362.063C60.316 362.063 60.3162 362.064 60.3163 362.064C60.3164 362.064 60.3165 362.064 60.3166 362.064C60.3167 362.064 60.3168 362.064 60.3169 362.064C60.3171 362.064 60.3172 362.064 60.3173 362.064C60.3174 362.064 60.3175 362.064 60.3176 362.064C60.3178 362.064 60.3179 362.065 60.318 362.065C60.3181 362.065 60.3182 362.065 60.3183 362.065C60.3185 362.065 60.3186 362.065 60.3187 362.065C60.3188 362.065 60.3189 362.065 60.319 362.065C60.3192 362.065 60.3193 362.065 60.3194 362.065C60.3195 362.065 60.3196 362.066 60.3197 362.066C60.3199 362.066 60.32 362.066 60.3201 362.066C60.3202 362.066 60.3203 362.066 60.3205 362.066C60.3206 362.066 60.3207 362.066 60.3208 362.066C60.3209 362.066 60.3211 362.066 60.3212 362.066C60.3213 362.067 60.3214 362.067 60.3216 362.067C60.3217 362.067 60.3218 362.067 60.3219 362.067C60.322 362.067 60.3222 362.067 60.3223 362.067C60.3224 362.067 60.3225 362.067 60.3227 362.067C60.3228 362.067 60.3229 362.067 60.323 362.068C60.3232 362.068 60.3233 362.068 60.3234 362.068C60.3235 362.068 60.3236 362.068 60.3238 362.068C60.3239 362.068 60.324 362.068 60.3241 362.068C60.3243 362.068 60.3244 362.068 60.3245 362.068C60.3246 362.068 60.3248 362.069 60.3249 362.069C60.325 362.069 60.3252 362.069 60.3253 362.069C60.3254 362.069 60.3255 362.069 60.3257 362.069C60.3258 362.069 60.3259 362.069 60.3261 362.069C60.3262 362.069 60.3263 362.069 60.3264 362.069C60.3266 362.07 60.3267 362.07 60.3268 362.07C60.327 362.07 60.3271 362.07 60.3272 362.07C60.3274 362.07 60.3275 362.07 60.3276 362.07C60.3277 362.07 60.3279 362.07 60.328 362.07C60.3281 362.07 60.3283 362.071 60.3284 362.071C60.3285 362.071 60.3287 362.071 60.3288 362.071C60.3289 362.071 60.3291 362.071 60.3292 362.071C60.3293 362.071 60.3295 362.071 60.3296 362.071C60.3297 362.071 60.3299 362.071 60.33 362.072C60.3301 362.072 60.3303 362.072 60.3304 362.072C60.3305 362.072 60.3307 362.072 60.3308 362.072C60.331 362.072 60.3311 362.072 60.3312 362.072C60.3314 362.072 60.3315 362.072 60.3316 362.072C60.3318 362.073 60.3319 362.073 60.3321 362.073C60.3322 362.073 60.3323 362.073 60.3325 362.073C60.3326 362.073 60.3327 362.073 60.3329 362.073C60.333 362.073 60.3331 362.073 60.3333 362.073C60.3334 362.074 60.3336 362.074 60.3337 362.074C60.3338 362.074 60.334 362.074 60.3341 362.074C60.3343 362.074 60.3344 362.074 60.3346 362.074C60.3347 362.074 60.3348 362.074 60.335 362.074C60.3351 362.074 60.3353 362.075 60.3354 362.075C60.3356 362.075 60.3357 362.075 60.3358 362.075C60.336 362.075 60.3361 362.075 60.3363 362.075C60.3364 362.075 60.3366 362.075 60.3367 362.075C60.3368 362.075 60.337 362.076 60.3371 362.076C60.3373 362.076 60.3374 362.076 60.3376 362.076C60.3377 362.076 60.3379 362.076 60.338 362.076C60.3382 362.076 60.3383 362.076 60.3384 362.076C60.3386 362.076 60.3387 362.077 60.3389 362.077C60.339 362.077 60.3392 362.077 60.3393 362.077C60.3395 362.077 60.3396 362.077 60.3398 362.077C60.3399 362.077 60.3401 362.077 60.3402 362.077C60.3404 362.078 60.3405 362.078 60.3407 362.078C60.3408 362.078 60.341 362.078 60.3411 362.078C60.3413 362.078 60.3414 362.078 60.3416 362.078C60.3417 362.078 60.3419 362.078 60.342 362.078C60.3422 362.079 60.3423 362.079 60.3425 362.079C60.3426 362.079 60.3428 362.079 60.3429 362.079C60.3431 362.079 60.3432 362.079 60.3434 362.079C60.3435 362.079 60.3437 362.079 60.3439 362.08C60.344 362.08 60.3442 362.08 60.3443 362.08C60.3445 362.08 60.3446 362.08 60.3448 362.08C60.3449 362.08 60.3451 362.08 60.3453 362.08C60.3454 362.08 60.3456 362.081 60.3457 362.081C60.3459 362.081 60.346 362.081 60.3462 362.081C60.3464 362.081 60.3465 362.081 60.3467 362.081C60.3468 362.081 60.347 362.081 60.3472 362.081C60.3473 362.082 60.3475 362.082 60.3476 362.082C60.3478 362.082 60.3479 362.082 60.3481 362.082C60.3483 362.082 60.3484 362.082 60.3486 362.082C60.3488 362.082 60.3489 362.082 60.3491 362.083C60.3492 362.083 60.3494 362.083 60.3496 362.083C60.3497 362.083 60.3499 362.083 60.35 362.083C60.3502 362.083 60.3504 362.083 60.3505 362.083C60.3507 362.083 60.3509 362.084 60.351 362.084C60.3512 362.084 60.3514 362.084 60.3515 362.084C60.3517 362.084 60.3518 362.084 60.352 362.084C60.3522 362.084 60.3523 362.084 60.3525 362.085C60.3527 362.085 60.3528 362.085 60.353 362.085C60.3532 362.085 60.3533 362.085 60.3535 362.085C60.3537 362.085 60.3538 362.085 60.354 362.085C60.3542 362.085 60.3544 362.086 60.3545 362.086C60.3547 362.086 60.3549 362.086 60.355 362.086C60.3552 362.086 60.3554 362.086 60.3555 362.086C60.3557 362.086 60.3559 362.086 60.356 362.087C60.3562 362.087 60.3564 362.087 60.3566 362.087C60.3567 362.087 60.3569 362.087 60.3571 362.087C60.3573 362.087 60.3574 362.087 60.3576 362.087C60.3578 362.088 60.3579 362.088 60.3581 362.088L65.3581 353.428C65.3579 353.427 65.3578 353.427 65.3576 353.427C65.3574 353.427 65.3573 353.427 65.3571 353.427C65.3569 353.427 65.3567 353.427 65.3566 353.427C65.3564 353.427 65.3562 353.426 65.356 353.426C65.3559 353.426 65.3557 353.426 65.3555 353.426C65.3554 353.426 65.3552 353.426 65.355 353.426C65.3549 353.426 65.3547 353.426 65.3545 353.425C65.3544 353.425 65.3542 353.425 65.354 353.425C65.3538 353.425 65.3537 353.425 65.3535 353.425C65.3533 353.425 65.3532 353.425 65.353 353.425C65.3528 353.424 65.3527 353.424 65.3525 353.424C65.3523 353.424 65.3522 353.424 65.352 353.424C65.3518 353.424 65.3517 353.424 65.3515 353.424C65.3514 353.424 65.3512 353.424 65.351 353.423C65.3509 353.423 65.3507 353.423 65.3505 353.423C65.3504 353.423 65.3502 353.423 65.35 353.423C65.3499 353.423 65.3497 353.423 65.3496 353.423C65.3494 353.422 65.3492 353.422 65.3491 353.422C65.3489 353.422 65.3488 353.422 65.3486 353.422C65.3484 353.422 65.3483 353.422 65.3481 353.422C65.3479 353.422 65.3478 353.422 65.3476 353.421C65.3475 353.421 65.3473 353.421 65.3472 353.421C65.347 353.421 65.3468 353.421 65.3467 353.421C65.3465 353.421 65.3464 353.421 65.3462 353.421C65.346 353.421 65.3459 353.42 65.3457 353.42C65.3456 353.42 65.3454 353.42 65.3453 353.42C65.3451 353.42 65.3449 353.42 65.3448 353.42C65.3446 353.42 65.3445 353.42 65.3443 353.42C65.3442 353.419 65.344 353.419 65.3439 353.419C65.3437 353.419 65.3435 353.419 65.3434 353.419C65.3432 353.419 65.3431 353.419 65.3429 353.419C65.3428 353.419 65.3426 353.419 65.3425 353.418C65.3423 353.418 65.3422 353.418 65.342 353.418C65.3419 353.418 65.3417 353.418 65.3416 353.418C65.3414 353.418 65.3413 353.418 65.3411 353.418C65.341 353.418 65.3408 353.418 65.3407 353.417C65.3405 353.417 65.3404 353.417 65.3402 353.417C65.3401 353.417 65.3399 353.417 65.3398 353.417C65.3396 353.417 65.3395 353.417 65.3393 353.417C65.3392 353.417 65.339 353.416 65.3389 353.416C65.3387 353.416 65.3386 353.416 65.3384 353.416C65.3383 353.416 65.3382 353.416 65.338 353.416C65.3379 353.416 65.3377 353.416 65.3376 353.416C65.3374 353.416 65.3373 353.415 65.3371 353.415C65.337 353.415 65.3368 353.415 65.3367 353.415C65.3366 353.415 65.3364 353.415 65.3363 353.415C65.3361 353.415 65.336 353.415 65.3358 353.415C65.3357 353.415 65.3356 353.414 65.3354 353.414C65.3353 353.414 65.3351 353.414 65.335 353.414C65.3348 353.414 65.3347 353.414 65.3346 353.414C65.3344 353.414 65.3343 353.414 65.3341 353.414C65.334 353.414 65.3338 353.413 65.3337 353.413C65.3336 353.413 65.3334 353.413 65.3333 353.413C65.3331 353.413 65.333 353.413 65.3329 353.413C65.3327 353.413 65.3326 353.413 65.3325 353.413C65.3323 353.413 65.3322 353.413 65.3321 353.412C65.3319 353.412 65.3318 353.412 65.3316 353.412C65.3315 353.412 65.3314 353.412 65.3312 353.412C65.3311 353.412 65.331 353.412 65.3308 353.412C65.3307 353.412 65.3305 353.412 65.3304 353.412C65.3303 353.411 65.3301 353.411 65.33 353.411C65.3299 353.411 65.3297 353.411 65.3296 353.411C65.3295 353.411 65.3293 353.411 65.3292 353.411C65.3291 353.411 65.3289 353.411 65.3288 353.411C65.3287 353.411 65.3285 353.41 65.3284 353.41C65.3283 353.41 65.3281 353.41 65.328 353.41C65.3279 353.41 65.3277 353.41 65.3276 353.41C65.3275 353.41 65.3274 353.41 65.3272 353.41C65.3271 353.41 65.327 353.41 65.3268 353.409C65.3267 353.409 65.3266 353.409 65.3264 353.409C65.3263 353.409 65.3262 353.409 65.3261 353.409C65.3259 353.409 65.3258 353.409 65.3257 353.409C65.3255 353.409 65.3254 353.409 65.3253 353.409C65.3252 353.408 65.325 353.408 65.3249 353.408C65.3248 353.408 65.3246 353.408 65.3245 353.408C65.3244 353.408 65.3243 353.408 65.3241 353.408C65.324 353.408 65.3239 353.408 65.3238 353.408C65.3236 353.408 65.3235 353.408 65.3234 353.407C65.3233 353.407 65.3232 353.407 65.323 353.407C65.3229 353.407 65.3228 353.407 65.3227 353.407C65.3225 353.407 65.3224 353.407 65.3223 353.407C65.3222 353.407 65.322 353.407 65.3219 353.407C65.3218 353.407 65.3217 353.406 65.3216 353.406C65.3214 353.406 65.3213 353.406 65.3212 353.406C65.3211 353.406 65.3209 353.406 65.3208 353.406C65.3207 353.406 65.3206 353.406 65.3205 353.406C65.3203 353.406 65.3202 353.406 65.3201 353.406C65.32 353.405 65.3199 353.405 65.3197 353.405C65.3196 353.405 65.3195 353.405 65.3194 353.405C65.3193 353.405 65.3192 353.405 65.319 353.405C65.3189 353.405 65.3188 353.405 65.3187 353.405C65.3186 353.405 65.3185 353.405 65.3183 353.405C65.3182 353.404 65.3181 353.404 65.318 353.404C65.3179 353.404 65.3178 353.404 65.3176 353.404C65.3175 353.404 65.3174 353.404 65.3173 353.404C65.3172 353.404 65.3171 353.404 65.3169 353.404C65.3168 353.404 65.3167 353.404 65.3166 353.404C65.3165 353.403 65.3164 353.403 65.3163 353.403C65.3162 353.403 65.316 353.403 65.3159 353.403C65.3158 353.403 65.3157 353.403 65.3156 353.403C65.3155 353.403 65.3154 353.403 65.3153 353.403C65.3151 353.403 65.315 353.403 65.3149 353.403C65.3148 353.403 65.3147 353.402 65.3146 353.402C65.3145 353.402 65.3144 353.402 65.3143 353.402C65.3141 353.402 65.314 353.402 65.3139 353.402C65.3138 353.402 65.3137 353.402 65.3136 353.402C65.3135 353.402 65.3134 353.402 65.3133 353.402C65.3132 353.402 65.313 353.401 65.3129 353.401C65.3128 353.401 65.3127 353.401 65.3126 353.401C65.3125 353.401 65.3124 353.401 65.3123 353.401C65.3122 353.401 65.3121 353.401 65.312 353.401C65.3119 353.401 65.3118 353.401 65.3117 353.401C65.3116 353.401 65.3114 353.401 65.3113 353.401C65.3112 353.4 65.3111 353.4 65.311 353.4C65.3109 353.4 65.3108 353.4 65.3107 353.4C65.3106 353.4 65.3105 353.4 65.3104 353.4C65.3103 353.4 65.3102 353.4 65.3101 353.4C65.31 353.4 65.3099 353.4 65.3098 353.4C65.3097 353.4 65.3096 353.399 65.3095 353.399C65.3094 353.399 65.3093 353.399 65.3092 353.399C65.3091 353.399 65.309 353.399 65.3089 353.399C65.3088 353.399 65.3087 353.399 65.3086 353.399C65.3085 353.399 65.3084 353.399 65.3083 353.399C65.3082 353.399 65.3081 353.399 65.308 353.399C65.3079 353.398 65.3078 353.398 65.3077 353.398C65.3076 353.398 65.3075 353.398 65.3074 353.398C65.3073 353.398 65.3072 353.398 65.3071 353.398C65.307 353.398 65.3069 353.398 65.3068 353.398C65.3067 353.398 65.3066 353.398 65.3065 353.398C65.3064 353.398 65.3063 353.398 65.3062 353.398C65.3061 353.397 65.306 353.397 65.3059 353.397C65.3058 353.397 65.3057 353.397 65.3056 353.397C65.3055 353.397 65.3054 353.397 65.3053 353.397C65.3052 353.397 65.3051 353.397 65.3051 353.397C65.305 353.397 65.3049 353.397 65.3048 353.397C65.3047 353.397 65.3046 353.397 65.3045 353.397C65.3044 353.396 65.3043 353.396 65.3042 353.396C65.3041 353.396 65.304 353.396 65.3039 353.396C65.3038 353.396 65.3037 353.396 65.3037 353.396C65.3036 353.396 65.3035 353.396 65.3034 353.396C65.3033 353.396 65.3032 353.396 65.3031 353.396C65.303 353.396 65.3029 353.396 65.3028 353.396C65.3027 353.396 65.3026 353.395 65.3026 353.395C65.3025 353.395 65.3024 353.395 65.3023 353.395C65.3022 353.395 65.3021 353.395 65.302 353.395C65.3019 353.395 65.3018 353.395 65.3018 353.395C65.3017 353.395 65.3016 353.395 65.3015 353.395C65.3014 353.395 65.3013 353.395 65.3012 353.395C65.3011 353.395 65.301 353.395 65.301 353.395C65.3009 353.394 65.3008 353.394 65.3007 353.394C65.3006 353.394 65.3005 353.394 65.3005 353.394C65.3004 353.394 65.3003 353.394 65.3002 353.394C65.3001 353.394 65.3 353.394 65.2999 353.394C65.2998 353.394 65.2998 353.394 65.2997 353.394C65.2996 353.394 65.2995 353.394 65.2994 353.394C65.2993 353.394 65.2993 353.394 65.2992 353.393C65.2991 353.393 65.299 353.393 65.2989 353.393C65.2988 353.393 65.2987 353.393 65.2987 353.393C65.2986 353.393 65.2985 353.393 65.2984 353.393C65.2983 353.393 65.2983 353.393 65.2982 353.393C65.2981 353.393 65.298 353.393 65.2979 353.393C65.2979 353.393 65.2978 353.393 65.2977 353.393C65.2976 353.393 65.2975 353.393 65.2974 353.392C65.2974 353.392 65.2973 353.392 65.2972 353.392C65.2971 353.392 65.297 353.392 65.297 353.392C65.2969 353.392 65.2968 353.392 65.2967 353.392C65.2966 353.392 65.2966 353.392 65.2965 353.392C65.2964 353.392 65.2963 353.392 65.2963 353.392C65.2962 353.392 65.2961 353.392 65.296 353.392C65.2959 353.392 65.2959 353.392 65.2958 353.392C65.2957 353.391 65.2956 353.391 65.2956 353.391C65.2955 353.391 65.2954 353.391 65.2953 353.391C65.2952 353.391 65.2952 353.391 65.2951 353.391C65.295 353.391 65.2949 353.391 65.2949 353.391C65.2948 353.391 65.2947 353.391 65.2946 353.391C65.2946 353.391 65.2945 353.391 65.2944 353.391C65.2943 353.391 65.2943 353.391 65.2942 353.391C65.2941 353.391 65.294 353.391 65.294 353.39C65.2939 353.39 65.2938 353.39 65.2938 353.39C65.2937 353.39 65.2936 353.39 65.2935 353.39C65.2935 353.39 65.2934 353.39 65.2933 353.39C65.2933 353.39 65.2932 353.39 65.2931 353.39C65.293 353.39 65.293 353.39 65.2929 353.39C65.2928 353.39 65.2927 353.39 65.2927 353.39C65.2926 353.39 65.2925 353.39 65.2925 353.39C65.2924 353.39 65.2923 353.39 65.2922 353.389C65.2922 353.389 65.2921 353.389 65.292 353.389C65.292 353.389 65.2919 353.389 65.2918 353.389C65.2918 353.389 65.2917 353.389 65.2916 353.389C65.2915 353.389 65.2915 353.389 65.2914 353.389C65.2913 353.389 65.2913 353.389 65.2912 353.389C65.2911 353.389 65.2911 353.389 65.291 353.389C65.2909 353.389 65.2909 353.389 65.2908 353.389C65.2907 353.389 65.2907 353.389 65.2906 353.389C65.2905 353.388 65.2905 353.388 65.2904 353.388C65.2903 353.388 65.2903 353.388 65.2902 353.388C65.2901 353.388 65.2901 353.388 65.29 353.388C65.2899 353.388 65.2899 353.388 65.2898 353.388C65.2898 353.388 65.2897 353.388 65.2896 353.388C65.2896 353.388 65.2895 353.388 65.2894 353.388C65.2894 353.388 65.2893 353.388 65.2892 353.388C65.2892 353.388 65.2891 353.388 65.289 353.388C65.289 353.388 65.2889 353.388 65.2889 353.388C65.2888 353.387 65.2887 353.387 65.2887 353.387C65.2886 353.387 65.2885 353.387 65.2885 353.387C65.2884 353.387 65.2883 353.387 65.2883 353.387C65.2882 353.387 65.2882 353.387 65.2881 353.387C65.288 353.387 65.288 353.387 65.2879 353.387C65.2879 353.387 65.2878 353.387 65.2877 353.387C65.2877 353.387 65.2876 353.387 65.2876 353.387C65.2875 353.387 65.2874 353.387 65.2874 353.387C65.2873 353.387 65.2873 353.387 65.2872 353.387C65.2871 353.387 65.2871 353.386 65.287 353.386C65.2869 353.386 65.2869 353.386 65.2868 353.386C65.2868 353.386 65.2867 353.386 65.2867 353.386C65.2866 353.386 65.2866 353.386 65.2865 353.386C65.2864 353.386 65.2864 353.386 65.2863 353.386C65.2863 353.386 65.2862 353.386 65.2861 353.386C65.2861 353.386 65.286 353.386 65.286 353.386C65.2859 353.386 65.2859 353.386 65.2858 353.386C65.2857 353.386 65.2857 353.386 65.2856 353.386C65.2856 353.386 65.2855 353.386 65.2855 353.386C65.2854 353.386 65.2854 353.385 65.2853 353.385C65.2852 353.385 65.2852 353.385 65.2851 353.385C65.2851 353.385 65.285 353.385 65.285 353.385C65.2849 353.385 65.2849 353.385 65.2848 353.385C65.2848 353.385 65.2847 353.385 65.2846 353.385C65.2846 353.385 65.2845 353.385 65.2845 353.385C65.2844 353.385 65.2844 353.385 65.2843 353.385C65.2843 353.385 65.2842 353.385 65.2842 353.385C65.2841 353.385 65.2841 353.385 65.284 353.385C65.284 353.385 65.2839 353.385 65.2839 353.385C65.2838 353.385 65.2838 353.385 65.2837 353.385C65.2836 353.385 65.2836 353.384 65.2836 353.384C65.2835 353.384 65.2834 353.384 65.2834 353.384C65.2833 353.384 65.2833 353.384 65.2832 353.384C65.2832 353.384 65.2831 353.384 65.2831 353.384C65.283 353.384 65.283 353.384 65.2829 353.384C65.2829 353.384 65.2828 353.384 65.2828 353.384C65.2827 353.384 65.2827 353.384 65.2826 353.384C65.2826 353.384 65.2825 353.384 65.2825 353.384C65.2825 353.384 65.2824 353.384 65.2824 353.384C65.2823 353.384 65.2823 353.384 65.2822 353.384C65.2822 353.384 65.2821 353.384 65.2821 353.384C65.282 353.384 65.282 353.384 65.2819 353.384C65.2819 353.383 65.2818 353.383 65.2818 353.383C65.2817 353.383 65.2817 353.383 65.2816 353.383C65.2816 353.383 65.2816 353.383 65.2815 353.383C65.2815 353.383 65.2814 353.383 65.2814 353.383C65.2813 353.383 65.2813 353.383 65.2812 353.383C65.2812 353.383 65.2811 353.383 65.2811 353.383C65.2811 353.383 65.281 353.383 65.281 353.383C65.2809 353.383 65.2809 353.383 65.2808 353.383C65.2808 353.383 65.2807 353.383 65.2807 353.383C65.2807 353.383 65.2806 353.383 65.2806 353.383C65.2805 353.383 65.2805 353.383 65.2804 353.383C65.2804 353.383 65.2804 353.383 65.2803 353.383C65.2803 353.383 65.2802 353.383 65.2802 353.383C65.2801 353.382 65.2801 353.382 65.2801 353.382C65.28 353.382 65.28 353.382 65.2799 353.382C65.2799 353.382 65.2798 353.382 65.2798 353.382C65.2798 353.382 65.2797 353.382 65.2797 353.382C65.2796 353.382 65.2796 353.382 65.2795 353.382C65.2795 353.382 65.2795 353.382 65.2794 353.382C65.2794 353.382 65.2794 353.382 65.2793 353.382C65.2793 353.382 65.2792 353.382 65.2792 353.382C65.2791 353.382 65.2791 353.382 65.2791 353.382C65.279 353.382 65.279 353.382 65.279 353.382C65.2789 353.382 65.2789 353.382 65.2788 353.382C65.2788 353.382 65.2788 353.382 65.2787 353.382C65.2787 353.382 65.2786 353.382 65.2786 353.382C65.2786 353.382 65.2785 353.382 65.2785 353.382C65.2784 353.382 65.2784 353.381 65.2784 353.381C65.2783 353.381 65.2783 353.381 65.2783 353.381C65.2782 353.381 65.2782 353.381 65.2781 353.381C65.2781 353.381 65.2781 353.381 65.278 353.381C65.278 353.381 65.278 353.381 65.2779 353.381C65.2779 353.381 65.2779 353.381 65.2778 353.381C65.2778 353.381 65.2777 353.381 65.2777 353.381C65.2777 353.381 65.2776 353.381 65.2776 353.381C65.2776 353.381 65.2775 353.381 65.2775 353.381C65.2775 353.381 65.2774 353.381 65.2774 353.381C65.2774 353.381 65.2773 353.381 65.2773 353.381C65.2772 353.381 65.2772 353.381 65.2772 353.381C65.2771 353.381 65.2771 353.381 65.2771 353.381C65.277 353.381 65.277 353.381 65.277 353.381C65.2769 353.381 65.2769 353.381 65.2769 353.381C65.2768 353.381 65.2768 353.381 65.2768 353.381C65.2767 353.381 65.2767 353.381 65.2767 353.38C65.2766 353.38 65.2766 353.38 65.2766 353.38C65.2765 353.38 65.2765 353.38 65.2765 353.38C65.2764 353.38 65.2764 353.38 65.2764 353.38C65.2764 353.38 65.2763 353.38 65.2763 353.38C65.2763 353.38 65.2762 353.38 65.2762 353.38C65.2762 353.38 65.2761 353.38 65.2761 353.38C65.2761 353.38 65.276 353.38 65.276 353.38C65.276 353.38 65.2759 353.38 65.2759 353.38C65.2759 353.38 65.2758 353.38 65.2758 353.38C65.2758 353.38 65.2758 353.38 65.2757 353.38C65.2757 353.38 65.2757 353.38 65.2757 353.38C65.2756 353.38 65.2756 353.38 65.2756 353.38C65.2755 353.38 65.2755 353.38 65.2755 353.38C65.2754 353.38 65.2754 353.38 65.2754 353.38C65.2753 353.38 65.2753 353.38 65.2753 353.38C65.2753 353.38 65.2752 353.38 65.2752 353.38C65.2752 353.38 65.2751 353.38 65.2751 353.38C65.2751 353.38 65.2751 353.38 65.275 353.38C65.275 353.38 65.275 353.38 65.275 353.379C65.2749 353.379 65.2749 353.379 65.2749 353.379C65.2748 353.379 65.2748 353.379 65.2748 353.379C65.2748 353.379 65.2747 353.379 65.2747 353.379C65.2747 353.379 65.2747 353.379 65.2746 353.379C65.2746 353.379 65.2746 353.379 65.2746 353.379C65.2745 353.379 65.2745 353.379 65.2745 353.379C65.2744 353.379 65.2744 353.379 65.2744 353.379C65.2744 353.379 65.2744 353.379 65.2743 353.379C65.2743 353.379 65.2743 353.379 65.2742 353.379C65.2742 353.379 65.2742 353.379 65.2742 353.379C65.2741 353.379 65.2741 353.379 65.2741 353.379C65.2741 353.379 65.2741 353.379 65.274 353.379C65.274 353.379 65.274 353.379 65.274 353.379C65.2739 353.379 65.2739 353.379 65.2739 353.379C65.2739 353.379 65.2738 353.379 65.2738 353.379C65.2738 353.379 65.2738 353.379 65.2737 353.379C65.2737 353.379 65.2737 353.379 65.2737 353.379C65.2736 353.379 65.2736 353.379 65.2736 353.379C65.2736 353.379 65.2735 353.379 65.2735 353.379C65.2735 353.379 65.2735 353.379 65.2735 353.379C65.2734 353.379 65.2734 353.379 65.2734 353.379C65.2734 353.379 65.2734 353.379 65.2733 353.379C65.2733 353.379 65.2733 353.379 65.2733 353.379C65.2732 353.379 65.2732 353.378 65.2732 353.378C65.2732 353.378 65.2732 353.378 65.2731 353.378C65.2731 353.378 65.2731 353.378 65.2731 353.378C65.2731 353.378 65.273 353.378 65.273 353.378C65.273 353.378 65.273 353.378 65.273 353.378C65.2729 353.378 65.2729 353.378 65.2729 353.378C65.2729 353.378 65.2728 353.378 65.2728 353.378C65.2728 353.378 65.2728 353.378 65.2728 353.378C65.2728 353.378 65.2727 353.378 65.2727 353.378C65.2727 353.378 65.2727 353.378 65.2727 353.378C65.2726 353.378 65.2726 353.378 65.2726 353.378C65.2726 353.378 65.2726 353.378 65.2725 353.378C65.2725 353.378 65.2725 353.378 65.2725 353.378C65.2725 353.378 65.2725 353.378 65.2724 353.378C65.2724 353.378 65.2724 353.378 65.2724 353.378C65.2724 353.378 65.2723 353.378 65.2723 353.378C65.2723 353.378 65.2723 353.378 65.2723 353.378C65.2722 353.378 65.2722 353.378 65.2722 353.378C65.2722 353.378 65.2722 353.378 65.2722 353.378C65.2721 353.378 65.2721 353.378 65.2721 353.378C65.2721 353.378 65.2721 353.378 65.2721 353.378C65.272 353.378 65.272 353.378 65.272 353.378C65.272 353.378 65.272 353.378 65.272 353.378C65.2719 353.378 65.2719 353.378 65.2719 353.378C65.2719 353.378 65.2719 353.378 65.2719 353.378C65.2718 353.378 65.2718 353.378 65.2718 353.378C65.2718 353.378 65.2718 353.378 65.2718 353.378C65.2718 353.378 65.2717 353.378 65.2717 353.378C65.2717 353.378 65.2717 353.378 65.2717 353.378C65.2717 353.378 65.2716 353.378 65.2716 353.378C65.2716 353.378 65.2716 353.378 65.2716 353.378C65.2716 353.378 65.2716 353.378 65.2715 353.378C65.2715 353.378 65.2715 353.378 65.2715 353.377C65.2715 353.377 65.2715 353.377 65.2714 353.377C65.2714 353.377 65.2714 353.377 65.2714 353.377C65.2714 353.377 65.2714 353.377 65.2714 353.377C65.2714 353.377 65.2713 353.377 65.2713 353.377C65.2713 353.377 65.2713 353.377 65.2713 353.377C65.2713 353.377 65.2713 353.377 65.2713 353.377C65.2712 353.377 65.2712 353.377 65.2712 353.377C65.2712 353.377 65.2712 353.377 65.2712 353.377C65.2712 353.377 65.2711 353.377 65.2711 353.377C65.2711 353.377 65.2711 353.377 65.2711 353.377C65.2711 353.377 65.2711 353.377 65.2711 353.377C65.271 353.377 65.271 353.377 65.271 353.377C65.271 353.377 65.271 353.377 65.271 353.377C65.271 353.377 65.271 353.377 65.2709 353.377C65.2709 353.377 65.2709 353.377 65.2709 353.377C65.2709 353.377 65.2709 353.377 65.2709 353.377C65.2709 353.377 65.2709 353.377 65.2708 353.377C65.2708 353.377 65.2708 353.377 65.2708 353.377C65.2708 353.377 65.2708 353.377 65.2708 353.377C65.2708 353.377 65.2707 353.377 65.2707 353.377C65.2707 353.377 65.2707 353.377 65.2707 353.377C65.2707 353.377 65.2707 353.377 65.2707 353.377C65.2707 353.377 65.2707 353.377 65.2706 353.377C65.2706 353.377 65.2706 353.377 65.2706 353.377C65.2706 353.377 65.2706 353.377 65.2706 353.377C65.2706 353.377 65.2706 353.377 65.2705 353.377C65.2705 353.377 65.2705 353.377 65.2705 353.377C65.2705 353.377 65.2705 353.377 65.2705 353.377C65.2705 353.377 65.2705 353.377 65.2705 353.377C65.2705 353.377 65.2704 353.377 65.2704 353.377C65.2704 353.377 65.2704 353.377 65.2704 353.377C65.2704 353.377 65.2704 353.377 65.2704 353.377C65.2704 353.377 65.2704 353.377 65.2704 353.377C65.2704 353.377 65.2703 353.377 65.2703 353.377C65.2703 353.377 65.2703 353.377 65.2703 353.377C65.2703 353.377 65.2703 353.377 65.2703 353.377C65.2703 353.377 65.2703 353.377 65.2703 353.377C65.2702 353.377 65.2702 353.377 65.2702 353.377C65.2702 353.377 65.2702 353.377 65.2702 353.377C65.2702 353.377 65.2702 353.377 65.2702 353.377L65.2702 353.377C65.2702 353.377 65.2702 353.377 65.2701 353.377C65.2701 353.377 65.2701 353.377 65.2701 353.377L65.2701 353.377C65.2701 353.377 65.2701 353.377 65.2701 353.377L65.2701 353.377C65.27 353.377 65.27 353.377 65.27 353.377L65.27 353.377C65.27 353.377 65.27 353.377 65.27 353.377L65.27 353.377C65.27 353.377 65.27 353.377 65.27 353.377L65.2699 353.377C65.2699 353.377 65.2699 353.377 65.2699 353.377C65.2699 353.377 65.2699 353.377 65.2699 353.377L65.2699 353.377C65.2699 353.377 65.2699 353.377 65.2699 353.377C65.2699 353.377 65.2699 353.377 65.2698 353.377L65.2698 353.377L65.2698 353.377C65.2698 353.377 65.2698 353.377 65.2698 353.377C65.2698 353.377 65.2698 353.377 65.2698 353.377C65.2698 353.377 65.2698 353.377 65.2698 353.377C65.2698 353.377 65.2698 353.377 65.2698 353.376C65.2698 353.376 65.2698 353.376 65.2697 353.376C65.2697 353.376 65.2697 353.376 65.2697 353.376C65.2697 353.376 65.2697 353.376 65.2697 353.376C65.2697 353.376 65.2697 353.376 65.2697 353.376C65.2697 353.376 65.2697 353.376 65.2697 353.376C65.2697 353.376 65.2697 353.376 65.2697 353.376C65.2697 353.376 65.2697 353.376 65.2697 353.376C65.2697 353.376 65.2697 353.376 65.2697 353.376C65.2696 353.376 65.2696 353.376 65.2696 353.376C65.2696 353.376 65.2696 353.376 65.2696 353.376L65.2696 353.376C65.2696 353.376 65.2696 353.376 65.2696 353.376C65.2696 353.376 65.2696 353.376 65.2696 353.376L65.2696 353.376C65.2696 353.376 65.2696 353.376 65.2696 353.376C65.2695 353.376 65.2695 353.376 65.2695 353.376C65.2695 353.376 65.2695 353.376 65.2695 353.376L65.2695 353.376C65.2695 353.376 65.2695 353.376 65.2695 353.376C65.2695 353.376 65.2695 353.376 65.2695 353.376C65.2695 353.376 65.2695 353.376 65.2695 353.376C65.2695 353.376 65.2695 353.376 65.2695 353.376C65.2695 353.376 65.2695 353.376 65.2695 353.376L65.2694 353.376C65.2694 353.376 65.2694 353.376 65.2694 353.376C65.2694 353.376 65.2694 353.376 65.2694 353.376C65.2694 353.376 65.2694 353.376 65.2694 353.376C65.2694 353.376 65.2694 353.376 65.2694 353.376L65.2694 353.376C65.2694 353.376 65.2694 353.376 65.2694 353.376C62.7694 357.706 60.2694 362.037 62.7694 357.706ZM59.7125 361.644C61.2283 362.871 62.8619 364.195 64.5688 365.436L70.4491 357.347C68.987 356.284 67.5543 355.126 66.0037 353.871L59.7125 361.644ZM64.4296 365.331C80.7921 378.122 99.3392 385.651 119.218 385.701L119.243 375.701C101.998 375.658 85.5524 369.15 70.5883 357.452L64.4296 365.331ZM119.197 385.701C123.939 385.733 128.54 385.211 132.867 384.515L131.28 374.642C127.255 375.289 123.25 375.728 119.265 375.701L119.197 385.701ZM132.043 384.579C176.43 384.854 228.962 367.951 277.369 334.445L271.678 326.223C224.636 358.783 174.076 374.84 132.105 374.579L132.043 384.579ZM277.37 334.445C321.794 303.683 354.607 264.651 371.594 226.183C388.54 187.805 390.018 149.155 370.093 120.283L361.863 125.963C379.071 150.898 378.613 185.53 362.446 222.144C346.318 258.668 314.837 296.338 271.677 326.223L277.37 334.445ZM370.809 121.832L370.771 121.692L361.11 124.274L361.148 124.414L370.809 121.832Z" fill="white" mask="url(#path-1-inside-1_112_2930)"/>
</g>
</svg>
