<svg width="25" height="25" viewBox="0 0 25 25" fill="none" xmlns="http://www.w3.org/2000/svg">
<path d="M15.6254 11.46H13.5421V7.29329C13.5421 7.01703 13.4323 6.75208 13.237 6.55672C13.0416 6.36137 12.7767 6.25163 12.5004 6.25163C12.2241 6.25163 11.9592 6.36137 11.7638 6.55672C11.5685 6.75208 11.4587 7.01703 11.4587 7.29329V12.5016C11.4587 12.7779 11.5685 13.0428 11.7638 13.2382C11.9592 13.4335 12.2241 13.5433 12.5004 13.5433H15.6254C15.9017 13.5433 16.1666 13.4335 16.362 13.2382C16.5573 13.0428 16.6671 12.7779 16.6671 12.5016C16.6671 12.2254 16.5573 11.9604 16.362 11.7651C16.1666 11.5697 15.9017 11.46 15.6254 11.46ZM12.5004 2.08496C10.4402 2.08496 8.42623 2.69589 6.71322 3.84049C5.00021 4.98508 3.66508 6.61194 2.87667 8.51534C2.08825 10.4187 1.88197 12.5132 2.2839 14.5338C2.68583 16.5545 3.67792 18.4105 5.13472 19.8673C6.59151 21.3241 8.44759 22.3162 10.4682 22.7181C12.4889 23.1201 14.5833 22.9138 16.4867 22.1254C18.3901 21.337 20.017 20.0018 21.1616 18.2888C22.3061 16.5758 22.9171 14.5618 22.9171 12.5016C22.9171 11.1337 22.6476 9.77915 22.1242 8.51534C21.6007 7.25153 20.8334 6.10321 19.8661 5.13593C18.8988 4.16865 17.7505 3.40137 16.4867 2.87788C15.2229 2.3544 13.8683 2.08496 12.5004 2.08496V2.08496ZM12.5004 20.835C10.8522 20.835 9.24107 20.3462 7.87066 19.4305C6.50025 18.5149 5.43215 17.2134 4.80142 15.6907C4.17069 14.1679 4.00566 12.4924 4.3272 10.8759C4.64874 9.25937 5.44242 7.77451 6.60785 6.60907C7.77329 5.44363 9.25815 4.64996 10.8747 4.32842C12.4912 4.00687 14.1667 4.1719 15.6894 4.80263C17.2122 5.43336 18.5136 6.50147 19.4293 7.87188C20.345 9.24228 20.8337 10.8534 20.8337 12.5016C20.8337 14.7118 19.9558 16.8314 18.393 18.3942C16.8302 19.957 14.7105 20.835 12.5004 20.835V20.835Z" fill="#898989"/>
</svg>
